<svg width="716" height="313" viewBox="0 0 716 313" fill="none" xmlns="http://www.w3.org/2000/svg">
<path d="M128.631 140.18C128.631 140.18 127.796 140.18 127.425 140.366C127.054 140.551 126.683 140.83 126.219 141.294C120.282 146.861 113.603 151.223 106.089 154.378C98.5755 157.44 90.1341 159.018 80.5794 159.018C66.6649 159.018 54.7912 155.955 44.9583 149.738C35.1254 143.521 27.6115 135.076 22.5095 124.312C17.4076 113.548 14.8102 101.392 14.8102 87.7512C14.8102 74.1103 17.5003 61.0263 22.9734 50.1693C28.4464 39.3123 36.2385 30.868 46.3497 24.8363C56.4609 18.8046 68.613 15.7424 82.713 15.7424C91.1545 15.7424 99.0394 16.7632 106.182 18.7119C112.583 20.475 117.963 22.6092 122.508 24.9291L124.457 45.7151C124.642 46.4575 124.92 47.1071 125.477 47.571C126.034 48.035 126.683 48.2206 127.425 48.2206H133.362V18.2479C128.816 15.6496 123.807 13.4226 118.241 11.4739C112.676 9.52517 106.831 7.94766 100.616 6.83412C94.4012 5.72059 88.0005 5.16382 81.3215 5.16382C69.3551 5.16382 58.5945 7.2053 48.9471 11.1955C39.2997 15.1857 31.0438 20.8461 24.0865 28.0841C17.3148 35.3221 11.9345 44.0448 8.13121 54.0667C4.23515 64.0885 2.37988 75.4095 2.37988 87.7512C2.37988 99.4433 4.14239 110.207 7.57463 120.229C11.0069 130.251 16.1089 138.881 22.7878 146.305C29.7451 153.914 37.9083 159.667 47.2774 163.657C56.6465 167.647 67.2215 169.689 79.0952 169.689C91.6183 169.689 102.564 167.555 111.748 163.193C120.932 158.832 128.816 153.264 135.31 146.305L130.579 141.108C129.93 140.551 129.373 140.18 128.724 140.18H128.631Z" fill="#507096" stroke="#507096" stroke-width="4.76" stroke-linecap="round" stroke-linejoin="round"/>
<path d="M216.478 52.7686C207.573 52.7686 200.059 55.4596 194.029 60.7489C187.999 66.0382 183.176 73.369 179.744 82.7413L178.816 58.4291C178.816 57.0372 178.538 56.1092 177.888 55.4596C177.239 54.9029 176.311 54.5317 174.92 54.5317H151.358V59.7282C151.358 60.6562 151.543 61.3057 152.007 61.7697C152.471 62.2337 153.028 62.512 153.863 62.6976L168.89 64.4607V157.905L153.863 159.668C153.12 159.668 152.471 159.947 152.007 160.503C151.543 161.06 151.358 161.71 151.358 162.638V167.834H197.647V162.638C197.647 161.71 197.461 161.06 196.998 160.503C196.534 159.947 195.977 159.668 195.142 159.668L180.207 157.905V94.5262C183.732 84.69 188.185 77.0808 193.565 71.7915C199.038 66.5022 205.903 63.8112 214.252 63.8112C217.313 63.8112 220.281 64.1824 223.342 65.0175C226.404 65.8527 228.444 66.4094 229.743 66.6878C230.3 66.6878 230.949 66.5022 231.413 66.2238C231.969 65.9455 232.248 65.4815 232.433 64.8319L234.01 56.666C231.413 55.4596 228.723 54.4389 225.94 53.6965C223.157 52.9542 220.003 52.583 216.571 52.583L216.478 52.7686Z" fill="#507096" stroke="#507096" stroke-width="4.76" stroke-linecap="round" stroke-linejoin="round"/>
<path d="M339.297 159.761L324.362 157.998V94.3411C324.362 85.8968 323.063 78.566 320.373 72.3487C317.683 66.1315 313.694 61.3061 308.314 57.9655C302.933 54.6249 296.162 52.8618 287.998 52.8618C279.835 52.8618 272.229 54.3465 265.642 57.4088C259.056 60.471 252.841 64.9251 246.904 70.7712L248.945 74.3902C249.409 75.0398 249.965 75.4109 250.615 75.7821C251.264 76.1533 252.099 76.1533 253.027 75.9677C255.717 74.483 258.871 72.6271 262.488 70.4C266.013 68.173 269.91 66.3171 274.084 64.6468C278.258 62.9764 282.433 62.1413 286.7 62.1413C295.605 62.1413 302.284 64.9251 306.644 70.5856C311.004 76.1533 313.23 84.1337 313.23 94.4339V106.033C300.336 106.312 289.39 107.425 280.299 109.188C271.208 110.951 263.787 113.457 258.036 116.426C252.284 119.396 248.017 123.015 245.327 127.098C242.637 131.181 241.246 135.635 241.246 140.46C241.246 146.863 242.637 152.152 245.327 156.421C248.017 160.689 251.728 164.03 256.366 166.257C261.004 168.484 266.013 169.69 271.486 169.69C280.67 169.69 288.555 167.927 294.956 164.494C301.356 161.061 307.664 156.235 313.879 150.204L315.271 164.494C315.549 165.886 316.106 166.721 316.755 167.185C317.404 167.649 318.425 167.835 319.816 167.835H341.801V162.638C341.801 161.71 341.616 161.061 341.152 160.504C340.688 159.947 340.131 159.669 339.297 159.669V159.761ZM313.137 142.502C307.664 148.069 302.006 152.616 296.162 156.142C290.225 159.669 282.989 161.339 274.362 161.339C268.333 161.339 263.138 159.576 258.778 155.957C254.511 152.431 252.284 147.049 252.284 139.903C252.284 135.078 253.861 130.995 257.015 127.654C260.169 124.314 264.622 121.716 270.188 119.674C275.754 117.725 282.247 116.241 289.575 115.22C296.904 114.199 304.696 113.642 313.045 113.271V142.316L313.137 142.502Z" fill="#507096" stroke="#507096" stroke-width="4.76" stroke-linecap="round" stroke-linejoin="round"/>
<path d="M466.383 159.76L449.129 157.718L448.016 157.533L405.53 110.95C403.86 108.723 402.005 106.96 399.871 105.753C400.799 105.289 401.541 104.733 402.283 104.083C402.933 103.433 403.675 102.691 404.417 101.949L443.285 64.8308L459.797 62.8821C460.539 62.6965 461.188 62.4181 461.745 61.9541C462.301 61.4901 462.579 60.8406 462.579 59.9126V54.7161H420.094V59.9126C420.094 60.8406 420.279 61.4901 420.743 61.9541C421.207 62.4181 421.764 62.6965 422.598 62.8821L431.133 63.9028L393.1 100.557C392.079 101.577 391.059 102.32 390.038 102.598C389.018 102.877 387.998 103.062 386.792 103.062H381.597V2.37988H352.748V7.57639C352.748 8.50434 352.933 9.1539 353.397 9.61787C353.861 10.0818 354.417 10.3602 355.252 10.5458L370.28 12.3089V157.904L355.252 159.667C354.51 159.667 353.861 159.945 353.397 160.502C352.933 161.059 352.748 161.708 352.748 162.636V167.833H399.036V162.636C399.036 161.708 398.851 161.059 398.387 160.502C397.923 159.945 397.367 159.667 396.532 159.667L381.597 157.904V110.857H386.792C389.111 110.857 390.688 111.043 391.801 111.507C392.821 111.97 394.027 112.991 395.233 114.476L442.264 165.142C443.192 166.07 444.027 166.719 444.769 167.183C445.511 167.647 446.439 167.833 447.459 167.833H468.98V162.636C468.98 161.708 468.795 161.059 468.331 160.502C467.867 159.945 467.31 159.667 466.475 159.667L466.383 159.76Z" fill="#507096" stroke="#507096" stroke-width="4.76" stroke-linecap="round" stroke-linejoin="round"/>
<path d="M552.838 58.8933C546.159 54.8103 538.367 52.7688 529.462 52.7688C518.887 52.7688 509.796 55.1815 502.097 60.0068C494.49 64.8321 488.553 71.5133 484.472 79.9577C480.39 88.402 478.349 98.0526 478.349 108.817C478.349 121.066 480.39 131.737 484.564 140.831C488.739 149.925 494.675 156.885 502.468 161.803C510.26 166.721 519.536 169.226 530.297 169.226C535.399 169.226 540.779 168.577 546.252 167.185C551.818 165.793 556.827 163.937 561.372 161.524C565.918 159.112 569.443 156.328 572.04 153.08L569.072 149.183C568.33 148.44 567.309 148.162 566.103 148.255C564.712 148.719 562.3 149.925 558.682 151.874C555.157 153.822 550.983 155.678 546.159 157.441C541.335 159.204 536.326 160.04 530.853 160.04C518.145 160.04 508.126 155.771 500.891 147.141C493.655 138.511 489.852 126.633 489.573 111.508V106.961H570.834C572.04 106.961 572.875 106.683 573.339 106.033C573.803 105.476 573.988 104.177 573.988 102.414C573.988 92.1138 572.133 83.2983 568.33 75.9675C564.526 68.6367 559.332 62.8834 552.653 58.8005L552.838 58.8933ZM490.223 99.8158C491.614 88.0308 495.603 78.6585 502.375 71.7917C509.147 64.9249 518.237 61.4915 529.74 61.4915C540.13 61.4915 548.478 65.0177 554.601 71.9773C560.723 78.9369 563.784 88.2164 563.784 99.9085H490.223V99.8158Z" fill="#507096" stroke="#507096" stroke-width="4.76" stroke-linecap="round" stroke-linejoin="round"/>
<path d="M712.855 160.504C712.391 159.947 711.834 159.669 711 159.669L695.972 157.905V95.4546C695.972 86.8247 694.58 79.3083 691.798 72.9055C689.015 66.5026 684.84 61.4917 679.274 58.0583C673.709 54.5321 666.751 52.8618 658.31 52.8618C649.868 52.8618 642.447 54.9033 635.583 58.8935C628.811 62.8837 622.782 68.173 617.68 74.6686L616.566 57.8727C616.288 55.7385 615.082 54.7177 613.134 54.7177H589.294V59.9142C589.294 60.8422 589.479 61.4917 589.943 61.9557C590.407 62.4197 590.964 62.6981 591.799 62.8836L606.826 64.6468V158.091L591.799 159.854C591.056 159.854 590.407 160.133 589.943 160.689C589.479 161.246 589.294 161.896 589.294 162.824V168.02H635.583V162.824C635.583 161.896 635.397 161.246 634.934 160.689C634.47 160.133 633.913 159.854 633.078 159.854L618.143 158.091V83.3913C623.153 76.7101 628.811 71.5136 635.026 67.8018C641.334 64.09 648.106 62.2341 655.342 62.2341C665.36 62.2341 672.688 65.1107 677.512 70.9568C682.243 76.8029 684.655 84.9688 684.655 95.5474V168.02H713.504V162.824C713.504 161.896 713.319 161.246 712.855 160.689V160.504Z" fill="#507096" stroke="#507096" stroke-width="4.76" stroke-linecap="round" stroke-linejoin="round"/>
<path d="M111.852 261.082L109.557 253.972H97.9473L95.6523 261.082H91.8273L101.997 230.482H105.687L115.902 261.082H111.852ZM100.782 245.152L99.0723 250.417H108.387L106.677 245.152L103.752 235.702L100.782 245.152ZM131.348 241.822C130.508 241.822 129.518 242.032 128.378 242.452C127.268 242.872 125.918 243.727 124.328 245.017V261.082H120.638V238.807H124.148V241.912C125.738 240.562 127.178 239.632 128.468 239.122C129.788 238.612 131.048 238.357 132.248 238.357C134.318 238.357 135.893 239.017 136.973 240.337C138.083 241.627 138.638 243.472 138.638 245.872V261.082H134.948V246.412C134.948 243.352 133.748 241.822 131.348 241.822ZM160.061 233.362H155.921V229.222H160.061V233.362ZM159.836 261.082H156.146V238.807H159.836V261.082ZM178.502 241.822C177.662 241.822 176.672 242.032 175.532 242.452C174.422 242.872 173.072 243.727 171.482 245.017V261.082H167.792V238.807H171.302V241.912C172.892 240.562 174.332 239.632 175.622 239.122C176.942 238.612 178.202 238.357 179.402 238.357C181.472 238.357 183.047 239.017 184.127 240.337C185.237 241.627 185.792 243.472 185.792 245.872V261.082H182.102V246.412C182.102 243.352 180.902 241.822 178.502 241.822ZM205.74 260.272C204.06 261.112 202.275 261.532 200.385 261.532C198.765 261.532 197.49 261.202 196.56 260.542C195.66 259.882 195.015 258.997 194.625 257.887C194.265 256.777 194.085 255.547 194.085 254.197V242.047H190.215V238.807H194.085V232.597H197.775V238.807H205.065V242.047H197.775V254.062C197.775 255.622 198.03 256.702 198.54 257.302C199.08 257.872 199.905 258.157 201.015 258.157C201.555 258.157 202.11 258.097 202.68 257.977C203.28 257.827 203.925 257.587 204.615 257.257L205.74 260.272ZM226.749 259.777C225.399 260.437 224.049 260.887 222.699 261.127C221.349 261.397 220.104 261.532 218.964 261.532C215.754 261.532 213.354 260.617 211.764 258.787C210.204 256.957 209.424 254.452 209.424 251.272V248.572C209.424 245.482 210.204 243.007 211.764 241.147C213.354 239.287 215.589 238.357 218.469 238.357C219.999 238.357 221.394 238.672 222.654 239.302C223.944 239.902 224.964 240.832 225.714 242.092C226.494 243.322 226.884 244.912 226.884 246.862C226.884 248.122 226.704 249.562 226.344 251.182H213.069V251.272C213.069 253.552 213.534 255.277 214.464 256.447C215.424 257.617 216.954 258.202 219.054 258.202C220.014 258.202 221.064 258.082 222.204 257.842C223.374 257.602 224.514 257.227 225.624 256.717L226.749 259.777ZM218.469 241.597C216.729 241.597 215.409 242.167 214.509 243.307C213.639 244.417 213.159 245.992 213.069 248.032H223.149C223.239 247.492 223.284 246.982 223.284 246.502C223.284 244.822 222.804 243.592 221.844 242.812C220.914 242.002 219.789 241.597 218.469 241.597ZM233.225 255.682V227.782H236.915V255.502C236.915 256.312 237.035 256.927 237.275 257.347C237.545 257.737 238.07 257.932 238.85 257.932H239.57V261.307H238.535C236.555 261.307 235.175 260.782 234.395 259.732C233.615 258.682 233.225 257.332 233.225 255.682ZM245.09 255.682V227.782H248.78V255.502C248.78 256.312 248.9 256.927 249.14 257.347C249.41 257.737 249.935 257.932 250.715 257.932H251.435V261.307H250.4C248.42 261.307 247.04 260.782 246.26 259.732C245.48 258.682 245.09 257.332 245.09 255.682ZM260.916 233.362H256.776V229.222H260.916V233.362ZM260.691 261.082H257.001V238.807H260.691V261.082ZM286.466 263.872C286.466 266.062 285.566 267.817 283.766 269.137C281.996 270.457 279.551 271.117 276.431 271.117C274.871 271.117 273.236 270.907 271.526 270.487C269.846 270.067 268.256 269.392 266.756 268.462L268.016 265.582C269.516 266.422 270.956 267.007 272.336 267.337C273.746 267.697 275.111 267.877 276.431 267.877C278.471 267.877 280.046 267.547 281.156 266.887C282.266 266.227 282.821 265.342 282.821 264.232C282.821 263.422 282.551 262.792 282.011 262.342C281.471 261.922 280.601 261.712 279.401 261.712H274.226C272.276 261.712 270.866 261.247 269.996 260.317C269.126 259.387 268.691 258.367 268.691 257.257C268.691 256.477 268.871 255.712 269.231 254.962C269.591 254.182 270.101 253.417 270.761 252.667C269.711 252.037 268.871 251.182 268.241 250.102C267.611 248.992 267.296 247.657 267.296 246.097C267.296 244.387 267.656 242.962 268.376 241.822C269.126 240.682 270.116 239.827 271.346 239.257C272.576 238.657 273.956 238.357 275.486 238.357H276.251C277.301 238.357 278.261 238.507 279.131 238.807H287.141V242.092L282.281 241.417C282.911 241.957 283.421 242.632 283.811 243.442C284.201 244.222 284.396 245.182 284.396 246.322C284.396 247.942 284.021 249.307 283.271 250.417C282.551 251.527 281.576 252.382 280.346 252.982C279.116 253.552 277.751 253.837 276.251 253.837H275.486C275.096 253.837 274.721 253.822 274.361 253.792C274.001 253.732 273.641 253.672 273.281 253.612C272.411 254.572 271.976 255.517 271.976 256.447C271.976 257.647 272.816 258.247 274.496 258.247H279.536C281.696 258.247 283.391 258.727 284.621 259.687C285.851 260.647 286.466 262.042 286.466 263.872ZM276.251 250.642C277.421 250.642 278.456 250.267 279.356 249.517C280.256 248.767 280.706 247.627 280.706 246.097C280.706 244.597 280.256 243.472 279.356 242.722C278.456 241.942 277.421 241.552 276.251 241.552H275.486C274.286 241.552 273.236 241.942 272.336 242.722C271.436 243.472 270.986 244.597 270.986 246.097C270.986 247.627 271.436 248.767 272.336 249.517C273.236 250.267 274.286 250.642 275.486 250.642H276.251ZM308.18 259.777C306.83 260.437 305.48 260.887 304.13 261.127C302.78 261.397 301.535 261.532 300.395 261.532C297.185 261.532 294.785 260.617 293.195 258.787C291.635 256.957 290.855 254.452 290.855 251.272V248.572C290.855 245.482 291.635 243.007 293.195 241.147C294.785 239.287 297.02 238.357 299.9 238.357C301.43 238.357 302.825 238.672 304.085 239.302C305.375 239.902 306.395 240.832 307.145 242.092C307.925 243.322 308.315 244.912 308.315 246.862C308.315 248.122 308.135 249.562 307.775 251.182H294.5V251.272C294.5 253.552 294.965 255.277 295.895 256.447C296.855 257.617 298.385 258.202 300.485 258.202C301.445 258.202 302.495 258.082 303.635 257.842C304.805 257.602 305.945 257.227 307.055 256.717L308.18 259.777ZM299.9 241.597C298.16 241.597 296.84 242.167 295.94 243.307C295.07 244.417 294.59 245.992 294.5 248.032H304.58C304.67 247.492 304.715 246.982 304.715 246.502C304.715 244.822 304.235 243.592 303.275 242.812C302.345 242.002 301.22 241.597 299.9 241.597ZM325.411 241.822C324.571 241.822 323.581 242.032 322.441 242.452C321.331 242.872 319.981 243.727 318.391 245.017V261.082H314.701V238.807H318.211V241.912C319.801 240.562 321.241 239.632 322.531 239.122C323.851 238.612 325.111 238.357 326.311 238.357C328.381 238.357 329.956 239.017 331.036 240.337C332.146 241.627 332.701 243.472 332.701 245.872V261.082H329.011V246.412C329.011 243.352 327.811 241.822 325.411 241.822ZM352.649 260.272C350.969 261.112 349.184 261.532 347.294 261.532C345.674 261.532 344.399 261.202 343.469 260.542C342.569 259.882 341.924 258.997 341.534 257.887C341.174 256.777 340.994 255.547 340.994 254.197V242.047H337.124V238.807H340.994V232.597H344.684V238.807H351.974V242.047H344.684V254.062C344.684 255.622 344.939 256.702 345.449 257.302C345.989 257.872 346.814 258.157 347.924 258.157C348.464 258.157 349.019 258.097 349.589 257.977C350.189 257.827 350.834 257.587 351.524 257.257L352.649 260.272ZM383.458 259.777C382.108 260.437 380.758 260.887 379.408 261.127C378.058 261.397 376.813 261.532 375.673 261.532C372.463 261.532 370.063 260.617 368.473 258.787C366.913 256.957 366.133 254.452 366.133 251.272V248.572C366.133 245.482 366.913 243.007 368.473 241.147C370.063 239.287 372.298 238.357 375.178 238.357C376.708 238.357 378.103 238.672 379.363 239.302C380.653 239.902 381.673 240.832 382.423 242.092C383.203 243.322 383.593 244.912 383.593 246.862C383.593 248.122 383.413 249.562 383.053 251.182H369.778V251.272C369.778 253.552 370.243 255.277 371.173 256.447C372.133 257.617 373.663 258.202 375.763 258.202C376.723 258.202 377.773 258.082 378.913 257.842C380.083 257.602 381.223 257.227 382.333 256.717L383.458 259.777ZM375.178 241.597C373.438 241.597 372.118 242.167 371.218 243.307C370.348 244.417 369.868 245.992 369.778 248.032H379.858C379.948 247.492 379.993 246.982 379.993 246.502C379.993 244.822 379.513 243.592 378.553 242.812C377.623 242.002 376.498 241.597 375.178 241.597ZM400.689 241.822C399.849 241.822 398.859 242.032 397.719 242.452C396.609 242.872 395.259 243.727 393.669 245.017V261.082H389.979V238.807H393.489V241.912C395.079 240.562 396.519 239.632 397.809 239.122C399.129 238.612 400.389 238.357 401.589 238.357C403.659 238.357 405.234 239.017 406.314 240.337C407.424 241.627 407.979 243.472 407.979 245.872V261.082H404.289V246.412C404.289 243.352 403.089 241.822 400.689 241.822ZM431.318 238.807L423.443 261.082H419.978L412.013 238.807H415.838L419.573 249.652L421.823 256.447L424.028 249.652L427.673 238.807H431.318ZM440.168 233.362H436.028V229.222H440.168V233.362ZM439.943 261.082H436.253V238.807H439.943V261.082ZM459.599 242.047C458.249 242.047 456.929 242.287 455.639 242.767C454.379 243.247 453.029 244.162 451.589 245.512V261.082H447.899V238.807H451.409V242.407C452.939 240.907 454.334 239.857 455.594 239.257C456.884 238.657 458.219 238.357 459.599 238.357V242.047ZM482.062 248.572V251.272C482.062 254.452 481.237 256.957 479.587 258.787C477.967 260.617 475.642 261.532 472.612 261.532C469.612 261.532 467.287 260.617 465.637 258.787C463.987 256.957 463.162 254.452 463.162 251.272V248.572C463.162 245.452 463.972 242.977 465.592 241.147C467.242 239.287 469.582 238.357 472.612 238.357C475.642 238.357 477.967 239.287 479.587 241.147C481.237 242.977 482.062 245.452 482.062 248.572ZM478.237 248.572C478.237 246.442 477.757 244.777 476.797 243.577C475.837 242.347 474.442 241.732 472.612 241.732C470.812 241.732 469.417 242.347 468.427 243.577C467.467 244.777 466.987 246.442 466.987 248.572V251.272C466.987 253.492 467.467 255.202 468.427 256.402C469.417 257.602 470.812 258.202 472.612 258.202C474.442 258.202 475.837 257.602 476.797 256.402C477.757 255.202 478.237 253.492 478.237 251.272V248.572ZM499.478 241.822C498.638 241.822 497.648 242.032 496.508 242.452C495.398 242.872 494.048 243.727 492.458 245.017V261.082H488.768V238.807H492.278V241.912C493.868 240.562 495.308 239.632 496.598 239.122C497.918 238.612 499.178 238.357 500.378 238.357C502.448 238.357 504.023 239.017 505.103 240.337C506.213 241.627 506.768 243.472 506.768 245.872V261.082H503.078V246.412C503.078 243.352 501.878 241.822 499.478 241.822ZM524.961 241.822C524.121 241.822 523.176 242.047 522.126 242.497C521.076 242.917 519.756 243.757 518.166 245.017V261.082H514.476V238.807H517.986V241.912C519.576 240.592 520.986 239.677 522.216 239.167C523.446 238.627 524.661 238.357 525.861 238.357C527.271 238.357 528.441 238.687 529.371 239.347C530.301 239.977 530.991 240.892 531.441 242.092C533.091 240.682 534.561 239.707 535.851 239.167C537.171 238.627 538.461 238.357 539.721 238.357C541.701 238.357 543.216 239.017 544.266 240.337C545.316 241.627 545.841 243.472 545.841 245.872V261.082H542.151V246.412C542.151 243.352 541.041 241.822 538.821 241.822C537.981 241.822 537.021 242.047 535.941 242.497C534.891 242.917 533.571 243.757 531.981 245.017C532.011 245.137 532.026 245.272 532.026 245.422C532.026 245.572 532.026 245.722 532.026 245.872V261.082H528.336V246.412C528.336 243.352 527.211 241.822 524.961 241.822ZM569.742 259.777C568.392 260.437 567.042 260.887 565.692 261.127C564.342 261.397 563.097 261.532 561.957 261.532C558.747 261.532 556.347 260.617 554.757 258.787C553.197 256.957 552.417 254.452 552.417 251.272V248.572C552.417 245.482 553.197 243.007 554.757 241.147C556.347 239.287 558.582 238.357 561.462 238.357C562.992 238.357 564.387 238.672 565.647 239.302C566.937 239.902 567.957 240.832 568.707 242.092C569.487 243.322 569.877 244.912 569.877 246.862C569.877 248.122 569.697 249.562 569.337 251.182H556.062V251.272C556.062 253.552 556.527 255.277 557.457 256.447C558.417 257.617 559.947 258.202 562.047 258.202C563.007 258.202 564.057 258.082 565.197 257.842C566.367 257.602 567.507 257.227 568.617 256.717L569.742 259.777ZM561.462 241.597C559.722 241.597 558.402 242.167 557.502 243.307C556.632 244.417 556.152 245.992 556.062 248.032H566.142C566.232 247.492 566.277 246.982 566.277 246.502C566.277 244.822 565.797 243.592 564.837 242.812C563.907 242.002 562.782 241.597 561.462 241.597ZM586.973 241.822C586.133 241.822 585.143 242.032 584.003 242.452C582.893 242.872 581.543 243.727 579.953 245.017V261.082H576.263V238.807H579.773V241.912C581.363 240.562 582.803 239.632 584.093 239.122C585.413 238.612 586.673 238.357 587.873 238.357C589.943 238.357 591.518 239.017 592.598 240.337C593.708 241.627 594.263 243.472 594.263 245.872V261.082H590.573V246.412C590.573 243.352 589.373 241.822 586.973 241.822ZM614.211 260.272C612.531 261.112 610.746 261.532 608.856 261.532C607.236 261.532 605.961 261.202 605.031 260.542C604.131 259.882 603.486 258.997 603.096 257.887C602.736 256.777 602.556 255.547 602.556 254.197V242.047H598.686V238.807H602.556V232.597H606.246V238.807H613.536V242.047H606.246V254.062C606.246 255.622 606.501 256.702 607.011 257.302C607.551 257.872 608.376 258.157 609.486 258.157C610.026 258.157 610.581 258.097 611.151 257.977C611.751 257.827 612.396 257.587 613.086 257.257L614.211 260.272ZM165.121 287.047H157.831V306.082H154.141V287.047H150.271V283.807H154.141V280.117C154.141 278.737 154.366 277.462 154.816 276.292C155.296 275.092 156.061 274.132 157.111 273.412C158.161 272.692 159.556 272.332 161.296 272.332C162.166 272.332 163.081 272.437 164.041 272.647C165.031 272.827 165.946 273.112 166.786 273.502L165.751 276.607C164.221 276.007 162.886 275.707 161.746 275.707C160.486 275.707 159.511 276.052 158.821 276.742C158.161 277.432 157.831 278.542 157.831 280.072V283.807H165.121V287.047ZM186.794 293.572V296.272C186.794 299.452 185.969 301.957 184.319 303.787C182.699 305.617 180.374 306.532 177.344 306.532C174.344 306.532 172.019 305.617 170.369 303.787C168.719 301.957 167.894 299.452 167.894 296.272V293.572C167.894 290.452 168.704 287.977 170.324 286.147C171.974 284.287 174.314 283.357 177.344 283.357C180.374 283.357 182.699 284.287 184.319 286.147C185.969 287.977 186.794 290.452 186.794 293.572ZM182.969 293.572C182.969 291.442 182.489 289.777 181.529 288.577C180.569 287.347 179.174 286.732 177.344 286.732C175.544 286.732 174.149 287.347 173.159 288.577C172.199 289.777 171.719 291.442 171.719 293.572V296.272C171.719 298.492 172.199 300.202 173.159 301.402C174.149 302.602 175.544 303.202 177.344 303.202C179.174 303.202 180.569 302.602 181.529 301.402C182.489 300.202 182.969 298.492 182.969 296.272V293.572ZM205.2 287.047C203.85 287.047 202.53 287.287 201.24 287.767C199.98 288.247 198.63 289.162 197.19 290.512V306.082H193.5V283.807H197.01V287.407C198.54 285.907 199.935 284.857 201.195 284.257C202.485 283.657 203.82 283.357 205.2 283.357V287.047ZM225.268 303.247C228.268 303.247 229.768 302.227 229.768 300.187C229.768 299.317 229.498 298.627 228.958 298.117C228.418 297.607 227.428 297.172 225.988 296.812L223.513 296.182C221.683 295.732 220.318 294.952 219.418 293.842C218.518 292.702 218.068 291.352 218.068 289.792C218.068 288.652 218.323 287.602 218.833 286.642C219.343 285.652 220.153 284.857 221.263 284.257C222.373 283.657 223.813 283.357 225.583 283.357C226.723 283.357 227.878 283.492 229.048 283.762C230.248 284.002 231.463 284.422 232.693 285.022L231.523 288.127C229.333 287.137 227.353 286.642 225.583 286.642C222.973 286.642 221.668 287.617 221.668 289.567C221.668 290.317 221.908 290.962 222.388 291.502C222.868 292.042 223.768 292.477 225.088 292.807L227.563 293.437C229.543 293.917 230.998 294.697 231.928 295.777C232.858 296.857 233.323 298.252 233.323 299.962C233.323 301.192 233.053 302.317 232.513 303.337C232.003 304.327 231.163 305.107 229.993 305.677C228.853 306.247 227.308 306.532 225.358 306.532C224.068 306.532 222.778 306.397 221.488 306.127C220.228 305.857 218.923 305.422 217.573 304.822L218.563 301.762C219.853 302.272 221.023 302.647 222.073 302.887C223.123 303.127 224.188 303.247 225.268 303.247ZM241.813 293.617V296.272C241.813 298.552 242.233 300.277 243.073 301.447C243.913 302.587 245.248 303.157 247.078 303.157C248.878 303.157 250.813 302.692 252.883 301.762L254.008 304.867C251.548 305.977 249.163 306.532 246.853 306.532C243.973 306.532 241.783 305.617 240.283 303.787C238.783 301.957 238.033 299.452 238.033 296.272V293.617C238.033 290.437 238.783 287.932 240.283 286.102C241.783 284.272 243.973 283.357 246.853 283.357C247.933 283.357 249.043 283.507 250.183 283.807C251.353 284.077 252.523 284.467 253.693 284.977L252.568 288.127C251.578 287.707 250.618 287.377 249.688 287.137C248.788 286.897 247.918 286.777 247.078 286.777C245.248 286.777 243.913 287.362 243.073 288.532C242.233 289.672 241.813 291.367 241.813 293.617ZM263.333 278.362H259.193V274.222H263.333V278.362ZM263.108 306.082H259.418V283.807H263.108V306.082ZM287.218 304.777C285.868 305.437 284.518 305.887 283.168 306.127C281.818 306.397 280.573 306.532 279.433 306.532C276.223 306.532 273.823 305.617 272.233 303.787C270.673 301.957 269.893 299.452 269.893 296.272V293.572C269.893 290.482 270.673 288.007 272.233 286.147C273.823 284.287 276.058 283.357 278.938 283.357C280.468 283.357 281.863 283.672 283.123 284.302C284.413 284.902 285.433 285.832 286.183 287.092C286.963 288.322 287.353 289.912 287.353 291.862C287.353 293.122 287.173 294.562 286.813 296.182H273.538V296.272C273.538 298.552 274.003 300.277 274.933 301.447C275.893 302.617 277.423 303.202 279.523 303.202C280.483 303.202 281.533 303.082 282.673 302.842C283.843 302.602 284.983 302.227 286.093 301.717L287.218 304.777ZM278.938 286.597C277.198 286.597 275.878 287.167 274.978 288.307C274.108 289.417 273.628 290.992 273.538 293.032H283.618C283.708 292.492 283.753 291.982 283.753 291.502C283.753 289.822 283.273 288.592 282.313 287.812C281.383 287.002 280.258 286.597 278.938 286.597ZM304.449 286.822C303.609 286.822 302.619 287.032 301.479 287.452C300.369 287.872 299.019 288.727 297.429 290.017V306.082H293.739V283.807H297.249V286.912C298.839 285.562 300.279 284.632 301.569 284.122C302.889 283.612 304.149 283.357 305.349 283.357C307.419 283.357 308.994 284.017 310.074 285.337C311.184 286.627 311.739 288.472 311.739 290.872V306.082H308.049V291.412C308.049 288.352 306.849 286.822 304.449 286.822ZM331.687 305.272C330.007 306.112 328.222 306.532 326.332 306.532C324.712 306.532 323.437 306.202 322.507 305.542C321.607 304.882 320.962 303.997 320.572 302.887C320.212 301.777 320.032 300.547 320.032 299.197V287.047H316.162V283.807H320.032V277.597H323.722V283.807H331.012V287.047H323.722V299.062C323.722 300.622 323.977 301.702 324.487 302.302C325.027 302.872 325.852 303.157 326.962 303.157C327.502 303.157 328.057 303.097 328.627 302.977C329.227 302.827 329.872 302.587 330.562 302.257L331.687 305.272ZM340.457 278.362H336.317V274.222H340.457V278.362ZM340.232 306.082H336.542V283.807H340.232V306.082ZM352.597 280.522V283.807H366.412V306.082H362.722V287.047H352.597V306.082H348.907V287.047H345.037V283.807H348.907V280.567C348.907 279.097 349.177 277.747 349.717 276.517C350.287 275.257 351.217 274.252 352.507 273.502C353.797 272.722 355.537 272.332 357.727 272.332C358.897 272.332 360.157 272.467 361.507 272.737C362.887 273.007 364.312 273.472 365.782 274.132L364.477 277.057C363.187 276.547 361.972 276.202 360.832 276.022C359.722 275.812 358.717 275.707 357.817 275.707C356.167 275.707 354.877 276.097 353.947 276.877C353.047 277.627 352.597 278.842 352.597 280.522ZM376.988 293.617V296.272C376.988 298.552 377.408 300.277 378.248 301.447C379.088 302.587 380.423 303.157 382.253 303.157C384.053 303.157 385.988 302.692 388.058 301.762L389.183 304.867C386.723 305.977 384.338 306.532 382.028 306.532C379.148 306.532 376.958 305.617 375.458 303.787C373.958 301.957 373.208 299.452 373.208 296.272V293.617C373.208 290.437 373.958 287.932 375.458 286.102C376.958 284.272 379.148 283.357 382.028 283.357C383.108 283.357 384.218 283.507 385.358 283.807C386.528 284.077 387.698 284.467 388.868 284.977L387.743 288.127C386.753 287.707 385.793 287.377 384.863 287.137C383.963 286.897 383.093 286.777 382.253 286.777C380.423 286.777 379.088 287.362 378.248 288.532C377.408 289.672 376.988 291.367 376.988 293.617ZM416.093 287.047C414.743 287.047 413.423 287.287 412.133 287.767C410.873 288.247 409.523 289.162 408.083 290.512V306.082H404.393V283.807H407.903V287.407C409.433 285.907 410.828 284.857 412.088 284.257C413.378 283.657 414.713 283.357 416.093 283.357V287.047ZM437.072 304.777C435.722 305.437 434.372 305.887 433.022 306.127C431.672 306.397 430.427 306.532 429.287 306.532C426.077 306.532 423.677 305.617 422.087 303.787C420.527 301.957 419.747 299.452 419.747 296.272V293.572C419.747 290.482 420.527 288.007 422.087 286.147C423.677 284.287 425.912 283.357 428.792 283.357C430.322 283.357 431.717 283.672 432.977 284.302C434.267 284.902 435.287 285.832 436.037 287.092C436.817 288.322 437.207 289.912 437.207 291.862C437.207 293.122 437.027 294.562 436.667 296.182H423.392V296.272C423.392 298.552 423.857 300.277 424.787 301.447C425.747 302.617 427.277 303.202 429.377 303.202C430.337 303.202 431.387 303.082 432.527 302.842C433.697 302.602 434.837 302.227 435.947 301.717L437.072 304.777ZM428.792 286.597C427.052 286.597 425.732 287.167 424.832 288.307C423.962 289.417 423.482 290.992 423.392 293.032H433.472C433.562 292.492 433.607 291.982 433.607 291.502C433.607 289.822 433.127 288.592 432.167 287.812C431.237 287.002 430.112 286.597 428.792 286.597ZM449.037 303.247C452.037 303.247 453.537 302.227 453.537 300.187C453.537 299.317 453.267 298.627 452.727 298.117C452.187 297.607 451.197 297.172 449.757 296.812L447.282 296.182C445.452 295.732 444.087 294.952 443.187 293.842C442.287 292.702 441.837 291.352 441.837 289.792C441.837 288.652 442.092 287.602 442.602 286.642C443.112 285.652 443.922 284.857 445.032 284.257C446.142 283.657 447.582 283.357 449.352 283.357C450.492 283.357 451.647 283.492 452.817 283.762C454.017 284.002 455.232 284.422 456.462 285.022L455.292 288.127C453.102 287.137 451.122 286.642 449.352 286.642C446.742 286.642 445.437 287.617 445.437 289.567C445.437 290.317 445.677 290.962 446.157 291.502C446.637 292.042 447.537 292.477 448.857 292.807L451.332 293.437C453.312 293.917 454.767 294.697 455.697 295.777C456.627 296.857 457.092 298.252 457.092 299.962C457.092 301.192 456.822 302.317 456.282 303.337C455.772 304.327 454.932 305.107 453.762 305.677C452.622 306.247 451.077 306.532 449.127 306.532C447.837 306.532 446.547 306.397 445.257 306.127C443.997 305.857 442.692 305.422 441.342 304.822L442.332 301.762C443.622 302.272 444.792 302.647 445.842 302.887C446.892 303.127 447.957 303.247 449.037 303.247ZM479.127 304.777C477.777 305.437 476.427 305.887 475.077 306.127C473.727 306.397 472.482 306.532 471.342 306.532C468.132 306.532 465.732 305.617 464.142 303.787C462.582 301.957 461.802 299.452 461.802 296.272V293.572C461.802 290.482 462.582 288.007 464.142 286.147C465.732 284.287 467.967 283.357 470.847 283.357C472.377 283.357 473.772 283.672 475.032 284.302C476.322 284.902 477.342 285.832 478.092 287.092C478.872 288.322 479.262 289.912 479.262 291.862C479.262 293.122 479.082 294.562 478.722 296.182H465.447V296.272C465.447 298.552 465.912 300.277 466.842 301.447C467.802 302.617 469.332 303.202 471.432 303.202C472.392 303.202 473.442 303.082 474.582 302.842C475.752 302.602 476.892 302.227 478.002 301.717L479.127 304.777ZM470.847 286.597C469.107 286.597 467.787 287.167 466.887 288.307C466.017 289.417 465.537 290.992 465.447 293.032H475.527C475.617 292.492 475.662 291.982 475.662 291.502C475.662 289.822 475.182 288.592 474.222 287.812C473.292 287.002 472.167 286.597 470.847 286.597ZM501.938 306.307C500.558 306.307 499.448 305.992 498.608 305.362C497.798 304.732 497.228 303.952 496.898 303.022C495.428 304.312 494.093 305.227 492.893 305.767C491.693 306.277 490.493 306.532 489.293 306.532C487.343 306.532 485.903 305.902 484.973 304.642C484.043 303.382 483.578 301.837 483.578 300.007C483.578 298.777 483.803 297.682 484.253 296.722C484.703 295.762 485.468 295.012 486.548 294.472C487.628 293.902 489.083 293.617 490.913 293.617C491.723 293.617 492.608 293.677 493.568 293.797C494.528 293.887 495.503 294.007 496.493 294.157V291.142C496.493 289.462 496.118 288.322 495.368 287.722C494.648 287.092 493.583 286.777 492.173 286.777C490.253 286.777 488.108 287.302 485.738 288.352L484.568 285.292C485.948 284.662 487.268 284.182 488.528 283.852C489.788 283.522 491.063 283.357 492.353 283.357C494.453 283.357 496.058 283.702 497.168 284.392C498.278 285.082 499.043 285.997 499.463 287.137C499.883 288.277 500.093 289.522 500.093 290.872V300.502C500.093 301.192 500.228 301.777 500.498 302.257C500.768 302.707 501.308 302.932 502.118 302.932H502.613V306.307H501.938ZM487.223 299.962C487.223 300.982 487.463 301.807 487.943 302.437C488.423 303.067 489.113 303.382 490.013 303.382C490.793 303.382 491.693 303.157 492.713 302.707C493.733 302.227 494.993 301.282 496.493 299.872V297.037C494.453 296.707 492.653 296.542 491.093 296.542C489.713 296.542 488.723 296.827 488.123 297.397C487.523 297.967 487.223 298.822 487.223 299.962ZM519.54 287.047C518.19 287.047 516.87 287.287 515.58 287.767C514.32 288.247 512.97 289.162 511.53 290.512V306.082H507.84V283.807H511.35V287.407C512.88 285.907 514.275 284.857 515.535 284.257C516.825 283.657 518.16 283.357 519.54 283.357V287.047ZM526.974 293.617V296.272C526.974 298.552 527.394 300.277 528.234 301.447C529.074 302.587 530.409 303.157 532.239 303.157C534.039 303.157 535.974 302.692 538.044 301.762L539.169 304.867C536.709 305.977 534.324 306.532 532.014 306.532C529.134 306.532 526.944 305.617 525.444 303.787C523.944 301.957 523.194 299.452 523.194 296.272V293.617C523.194 290.437 523.944 287.932 525.444 286.102C526.944 284.272 529.134 283.357 532.014 283.357C533.094 283.357 534.204 283.507 535.344 283.807C536.514 284.077 537.684 284.467 538.854 284.977L537.729 288.127C536.739 287.707 535.779 287.377 534.849 287.137C533.949 286.897 533.079 286.777 532.239 286.777C530.409 286.777 529.074 287.362 528.234 288.532C527.394 289.672 526.974 291.367 526.974 293.617ZM555.289 286.822C554.449 286.822 553.459 287.032 552.319 287.452C551.209 287.872 549.859 288.727 548.269 290.017V306.082H544.579V272.782H548.269V286.777C549.829 285.457 551.239 284.557 552.499 284.077C553.759 283.597 554.989 283.357 556.189 283.357C558.259 283.357 559.834 284.017 560.914 285.337C562.024 286.627 562.579 288.472 562.579 290.872V306.082H558.889V291.412C558.889 288.352 557.689 286.822 555.289 286.822Z" fill="#507096"/>
</svg>
