<svg width="512" height="734" viewBox="0 0 512 734" fill="none" xmlns="http://www.w3.org/2000/svg">
<path d="M327.637 481.205L325.942 480.28C320.341 478.019 313.25 476.94 306.158 475.861C302.15 475.244 298.297 474.679 295.008 473.857C280.929 470.928 247.374 461.987 234.014 441.33C220.654 420.674 204.674 452.121 182.27 439.275C163.566 428.535 177.029 410.808 166.238 414.867C152.878 419.286 126.62 445.955 115.932 450.477C105.09 455.05 90.3943 459.109 75.6983 459.726L75.0303 459.829C68.1447 461.113 67.0143 463.991 67.3226 466.2C67.7336 469.283 70.2515 472.212 85.7697 472.726C88.4417 472.829 92.3469 472.829 95.9438 472.418C106.992 471.236 117.988 469.027 128.779 466.868C143.166 463.939 158.016 460.959 172.764 460.651C198.61 460.188 222.247 467.793 247.117 475.861C265.205 481.719 283.96 487.782 303.846 490.557C307.546 491.122 311.708 491.533 315.253 491.636C316.641 491.636 317.925 491.636 319.056 491.636C321.574 491.584 328.151 491.379 329.898 487.268C330.772 485.161 329.898 482.849 327.534 481.256L327.637 481.205Z" fill="#507096"/>
<path d="M511.646 400.222C511.132 399.092 508.666 396.78 508.666 396.78L506.816 395.238C496.744 387.53 487.341 384.601 473.57 381.827C461.957 379.463 449.471 382.495 435.391 387.068C418.691 392.463 399.319 394.005 396.339 388.301C395.26 386.297 397.624 383.676 402.454 381.57C411.138 377.767 413.039 376.328 422.802 370.008C436.059 361.376 410.11 344.059 395.054 349.095C382.105 353.462 383.544 338.407 384.418 332.138C384.418 331.829 384.52 331.521 384.572 331.213C384.829 328.746 384.623 325.972 385.805 323.711C387.552 320.319 391.663 318.469 393.564 314.975C394.643 313.177 395.363 311.224 395.722 309.169C396.39 305.932 395.363 302.437 396.082 299.868C396.853 296.631 400.964 294.524 402.505 290.516C405.434 285.326 401.888 278.698 406.308 274.947C408.517 272.943 410.675 270.63 411.652 267.701C412.988 264.361 412.268 260.456 413.758 258.298C415.608 255.626 419.205 254.804 421.312 252.286C423.83 249.922 424.344 246.12 426.861 243.859C428.917 242.009 433.028 242.523 436.368 240.879C439.194 239.748 441.249 236.871 444.332 236.562C446.644 236.357 449.625 238.515 452.965 238.566C455.74 238.875 458.566 237.539 461.289 238.052C464.269 238.772 465.605 242.523 468.997 244.373C471.001 245.657 474.187 246.068 475.625 248.021C477.527 251.618 475.163 254.393 480.096 258.349C486.108 264.413 480.301 267.701 478.143 271.504C475.369 278.132 476.653 282.295 467.815 287.228C456.767 291.647 452.4 294.267 449.111 302.489C446.336 309.374 442.842 322.529 447.158 322.837C450.601 323.094 458.36 305.52 472.748 304.287C492.12 302.643 503.424 279.52 505.172 272.12C511.389 245.76 506.302 228.546 489.448 207.479C476.91 191.755 453.581 183.893 434.004 185.948C404.406 188.929 378.251 209.483 361.295 234.147C351.686 247.713 340.741 263.899 332.879 275.769C322.037 292.109 317.412 305.366 312.068 307.216C307.649 308.758 309.036 300.022 315.46 287.484C327.227 266.211 343.156 247.199 355.385 226.234C377.84 188.929 383.904 140.781 369.927 99.7251C360.781 72.5426 342.282 49.1626 316.23 35.6998C274.095 13.9128 219.319 10.6241 177.183 57.3841C150.206 87.3928 150.463 137.596 181.5 165.086C209.299 189.751 247.169 179.577 261.865 167.45C276.356 155.529 283.498 142.477 282.882 129.991C282.728 125.777 282.06 118.532 277.64 117.607C274.249 116.836 269.47 128.089 267.004 130.196C261.146 136.825 256.521 140.216 243.315 142.117C217.726 144.584 207.449 129.374 206.627 112.006C206.832 92.7368 224.098 94.1755 231.24 86.5192C234.991 81.3808 238.228 75.8826 249.841 80.1989C258.114 84.3097 262.02 82.6654 267.929 83.0251C271.371 83.7958 273.889 87.7525 276.767 89.6537C281.289 92.9937 287.095 92.5312 289.819 96.0768C292.131 99.3654 292.028 103.887 294.135 107.381C296.293 111.8 300.918 114.472 302.048 117.658C303.538 121.923 300.918 126.394 301.123 130.813C300.969 136.208 304.103 141.398 302.922 145.2C301.431 149.928 296.653 152.908 295.111 157.687C293.056 162.003 294.135 167.244 291.72 171.304C289.767 174.592 284.166 175.98 280.569 179.782C277.229 182.814 275.482 187.028 274.198 191.241C271.937 199.411 260.992 198.692 255.853 205.732C251.486 210.253 251.126 216.933 247.323 219.914C244.343 222.483 239.102 223.202 235.197 226.028C232.73 227.724 230.521 229.934 228.825 232.4C225.331 237.025 225.331 243.602 221.939 247.97C219.627 250.847 215.825 252.286 212.69 254.136C205.188 258.195 199.69 267.599 199.433 275.923C199.536 279.366 199.125 282.552 198.148 285.48C193.627 295.192 188.334 296.939 186.638 293.651C184.737 290.002 185.713 287.33 183.812 283.836C182.476 280.856 177.8 274.073 170.555 269.86C163.31 265.646 164.8 265.852 163.823 262.203C162.59 258.452 158.788 254.907 154.831 254.136C153.135 253.725 151.234 253.571 149.795 252.594C147.637 251.053 146.764 248.072 144.554 246.48C143.424 245.606 142.139 244.887 140.803 244.476C138.645 243.705 136.178 244.116 134.483 243.345C132.325 242.523 131.246 239.491 128.676 238.052C125.388 235.586 120.506 237.384 118.399 233.993C117.218 232.297 115.882 230.602 113.929 229.677C111.771 228.444 109.047 228.598 107.711 227.364C106.067 225.823 105.81 223.305 104.32 221.661C102.933 219.708 100.363 219.04 99.0788 217.088C97.9997 215.495 98.7191 212.72 97.9483 210.305C97.4345 208.249 95.636 206.605 95.7387 204.447C95.8415 202.854 97.5372 201.004 97.9483 198.692C98.4108 196.842 97.7428 194.787 98.3594 192.988C99.1302 190.984 101.802 190.419 103.395 188.312C104.474 187.079 105.039 184.921 106.53 184.099C109.15 183.122 111.154 183.328 114.34 180.348C119.016 176.802 121.277 178.857 123.641 180.656C127.906 183.174 134.997 183.225 137.514 188.672C138.799 192.115 139.159 193.348 139.416 196.842C139.518 198.384 144.811 204.909 145.942 192.423C147.021 180.553 139.262 169.146 129.858 163.134C118.091 155.632 94.8652 155.272 78.6791 170.893C68.7105 180.553 62.9553 191.96 62.4929 205.526C61.7735 226.08 71.0742 247.096 86.3354 260.97C94.7111 268.78 112.285 282.14 118.04 292.109C132.119 316.311 117.115 334.296 108.174 338.355C107.917 338.458 107.711 338.561 107.506 338.715C105.091 339.691 102.778 340.924 100.672 342.723C92.1932 348.94 89.5726 359.937 93.4265 372.475C93.6834 373.913 94.0431 375.455 94.4541 376.996C95.5332 381.261 96.5609 385.321 94.8139 388.044C93.8375 389.38 90.292 389.997 83.5606 387.839L82.1732 387.376C72.3587 383.985 62.1846 380.439 51.3939 383.42C46.4095 384.653 41.2197 386.451 36.2354 388.198C30.3262 390.254 24.16 392.412 18.1993 393.542L15.7329 394.21C5.55874 396.831 0.214752 398.372 0.00921298 402.124C-0.196326 405.104 3.09224 406.337 4.37686 406.851C16.0412 410.14 28.4249 404.898 39.3698 400.325C47.3344 396.985 54.6311 393.851 61.1569 394.108C68.8132 394.21 78.2166 398.167 81.2997 405.052C85.1535 420.108 60.1806 430.334 41.8877 437.733C36.0812 440.097 31.0969 442.152 27.7569 444.002C23.6975 446.057 19.1242 448.421 20.6658 451.761C23.1322 456.951 42.864 449.757 42.9668 449.706C65.1136 441.073 119.067 420.879 111.874 380.593C111.411 378.384 110.692 376.02 109.921 373.656C107.557 366 108.534 360.245 111.411 356.443C113.878 353.257 116.704 352.537 118.502 352.383C121.791 352.024 124.257 352.897 126.415 356.186C130.269 362.095 136.795 365.538 144.297 359.269C148.511 355.775 171.839 320.73 171.685 330.134C171.223 355.569 136.795 387.633 133.558 396.523C132.479 399.349 125.902 422.061 128.83 423.808C131.502 425.401 133.969 422.42 134.842 421.341C154.677 400.171 180.986 373.502 189.618 379.514C203.544 389.123 173.484 417.693 197.326 416.408C216.236 415.381 221.939 409.985 232.011 416.049C241.928 423.397 242.339 433.211 247.991 442.974C253.644 452.737 267.107 450.836 264.537 437.065C261.917 423.294 269.47 409.523 275.071 415.535C279.131 419.903 278.925 421.393 281.854 425.863C291.155 441.844 308.163 457.876 329.693 464.504C345.006 468.821 362.528 473.959 380.975 474.524C405.588 475.244 424.344 469.18 445 458.955C452.348 455.307 455.945 452.429 454.455 449.14C451.937 443.54 433.028 450.117 431.692 450.579C431.64 450.579 431.64 450.579 431.64 450.579C385.343 459.88 369.311 410.037 359.959 423.397C350.966 436.243 347.112 447.856 325.839 442.46C309.807 438.452 304.103 427.148 302.408 423.654C297.012 412.452 292.542 398.527 292.491 386.657C292.388 345.549 303.846 351.253 303.487 363.174C303.127 375.095 305.285 394.57 315.305 396.06C325.325 397.55 328.819 380.131 349.887 372.012C354.563 370.214 357.338 367.233 359.496 364.356C359.599 364.202 359.804 364.099 359.907 363.996C360.164 363.688 360.472 363.225 360.729 362.712C364.275 357.83 366.896 353.976 376.196 358.19C389.762 364.304 406.41 355.158 406.41 360.04C406.41 364.921 401.529 377.048 380.255 377.305C358.982 377.562 350.864 377.613 340.33 390.305C329.744 402.997 333.495 423.448 337.092 426.634C338.326 427.713 339.97 427.816 341.203 426.84L341.871 426.069C344.081 422.266 344.697 417.744 345.365 413.325C345.879 409.831 346.393 406.286 347.729 402.946C349.682 396.317 356.31 388.044 361.654 387.736C364.069 387.633 366.125 389.432 367.615 393.028C372.959 409.626 383.287 421.701 398.292 428.946C435.648 447.034 465.811 432.338 481.021 425.349C486.108 422.986 492.068 419.183 497.001 416.152C501.318 412.709 491.452 409.009 468.945 411.63C459.902 412.657 454.712 423.602 448.34 425.504C428.814 431.361 406.102 421.29 397.161 412.709C395.311 410.91 394.952 409.42 395.311 408.547C396.339 406.029 403.79 406.594 407.798 406.44C413.296 406.183 419.565 405.875 424.292 404.333C429.585 403.048 434.569 401.301 439.399 399.606C450.293 395.803 460.57 392.258 472.285 394.776C478.657 395.752 485.286 398.064 491.709 400.274C495.82 401.712 499.828 403.048 503.733 404.128C507.741 405.104 511.132 405.412 511.8 403.408C511.8 403.408 512.365 402.175 511.595 400.531L511.646 400.222ZM459.439 296.836C457.024 298.121 455.02 300.793 454.558 299.92C454.095 299.046 456.202 296.014 458.617 294.678C461.032 293.394 462.779 292.417 463.242 293.291C463.704 294.164 461.854 295.5 459.388 296.785L459.439 296.836ZM472.953 291.338C469.973 293.342 466.941 292.469 466.376 291.647C465.811 290.824 468.175 290.619 471.155 288.615C474.135 286.611 476.293 282.911 476.91 283.785C477.527 284.658 475.934 289.386 472.953 291.39V291.338ZM484.875 276.848C483.487 279.88 481.38 281.832 480.147 281.267C478.914 280.702 478.965 277.773 480.353 274.792C481.74 271.812 483.847 269.808 485.08 270.373C486.313 270.939 486.262 273.868 484.875 276.848ZM489.242 257.99C490.578 258.092 491.503 260.405 491.246 263.128C490.989 265.852 489.705 267.958 488.369 267.856C487.033 267.753 486.108 265.44 486.365 262.717C486.622 259.994 487.906 257.887 489.242 257.99ZM485.748 256.14C484.412 256.859 482.1 255.215 480.558 252.44C479.017 249.665 478.811 246.788 480.096 246.068C481.432 245.349 483.744 246.993 485.286 249.768C486.827 252.543 487.033 255.42 485.748 256.14ZM477.424 230.499C478.657 229.471 481.175 231.475 483.076 234.918C484.977 238.361 485.491 242.009 484.258 243.037C483.025 244.064 480.507 242.06 478.606 238.618C476.704 235.175 476.191 231.527 477.424 230.499ZM474.392 241.392C473.519 242.626 470.898 242.266 468.586 240.622C466.273 238.926 465.092 236.562 465.965 235.329C466.839 234.096 469.459 234.456 471.771 236.1C474.084 237.796 475.266 240.159 474.392 241.392ZM466.941 217.91C469.973 219.554 472.028 222.483 471.515 224.487C471.001 226.44 468.072 226.696 465.04 225.052C462.008 223.408 459.953 220.479 460.467 218.475C460.981 216.522 463.91 216.265 466.941 217.91ZM229.853 144.43C234.58 144.841 238.434 145.457 238.331 146.691C238.228 147.924 234.22 149.208 229.493 148.849C224.766 148.438 219.987 144.378 220.09 143.145C220.192 141.912 225.177 144.07 229.853 144.43ZM209.042 130.35C211.765 134.821 213.718 138.726 212.433 139.497C211.149 140.268 207.192 137.596 204.469 133.125C201.745 128.655 202.567 121.461 203.801 120.69C205.034 119.919 206.267 125.88 209.042 130.35ZM205.548 102.346C203.852 107.33 202.567 111.595 201.18 111.081C199.793 110.619 199.279 105.84 200.975 100.856C202.67 95.8712 208.734 91.9146 210.172 92.4285C211.56 92.8909 207.243 97.3614 205.548 102.346ZM226.153 86.1081C222.248 88.9343 218.137 89.9106 216.955 88.3177C215.773 86.6734 217.983 83.0765 221.888 80.2503C225.793 77.4241 229.904 76.4478 231.086 78.0408C232.268 79.6851 230.058 83.282 226.153 86.1081ZM240.489 73.6731C235.556 74.6494 231.497 73.8786 231.497 71.8746C231.497 69.8706 235.505 67.4555 240.438 66.4792C245.371 65.5029 249.43 66.2737 249.43 68.2777C249.43 70.2817 245.422 72.6968 240.489 73.6731ZM258.628 79.7365C254.003 79.3254 250.407 77.27 250.561 75.0605C250.766 72.8509 254.671 71.4121 259.296 71.8232C263.921 72.2343 267.518 74.2897 267.363 76.4992C267.158 78.7088 263.253 80.1475 258.628 79.7365ZM269.522 68.7401C270.138 66.4792 275.277 64.9891 280.98 65.4001C286.684 65.8112 290.846 67.9694 290.23 70.1789C289.613 72.4398 284.475 73.93 278.771 73.5189C273.067 73.1078 268.905 70.9497 269.522 68.7401ZM290.743 88.2663C289.664 90.2189 285.811 90.0648 282.162 88.0094C278.514 85.954 276.51 82.7168 277.589 80.7641C278.668 78.8115 282.522 78.9657 286.17 81.0211C289.819 83.0765 291.823 86.3137 290.743 88.2663ZM127.135 176.34C129.293 177.11 130.783 178.446 130.475 179.32C130.167 180.193 128.162 180.348 126.004 179.577C123.846 178.806 122.356 177.47 122.664 176.596C122.973 175.723 124.977 175.569 127.135 176.34ZM109.047 177.624C111.103 176.802 113.055 176.956 113.467 177.932C113.826 178.909 112.49 180.348 110.435 181.17C108.379 181.992 106.427 181.838 106.016 180.861C105.656 179.885 106.992 178.446 109.047 177.624ZM134.842 247.661C135.87 246.068 139.107 246.325 142.088 248.175C145.068 250.076 146.712 252.903 145.685 254.496C144.657 256.088 141.42 255.832 138.439 253.982C135.459 252.08 133.815 249.254 134.842 247.661ZM100.826 188.107C99.4899 189.545 97.7428 190.111 96.972 189.391C96.2012 188.672 96.7151 186.925 98.0511 185.486C99.3871 184.047 101.134 183.482 101.905 184.201C102.676 184.921 102.162 186.668 100.826 188.107ZM98.308 177.624C100.877 176.648 103.395 176.648 103.96 177.624C104.526 178.549 102.933 180.091 100.415 181.067C97.8455 182.043 95.3277 182.043 94.7625 181.067C94.1973 180.142 95.7901 178.6 98.308 177.624ZM92.1418 197.664C92.4501 195.712 93.5292 194.273 94.5569 194.427C95.5846 194.581 96.2012 196.277 95.8929 198.281C95.5846 200.233 94.5056 201.672 93.4779 201.518C92.4502 201.364 91.8335 199.668 92.1418 197.664ZM92.8099 207.581C93.9917 207.222 95.4305 208.712 96.0985 210.921C96.7665 213.131 96.3554 215.186 95.1735 215.546C93.9917 215.906 92.5529 214.416 91.8849 212.206C91.2169 209.996 91.628 207.941 92.8099 207.581ZM85.1535 187.079C86.5923 185.178 88.7505 184.047 90.0865 184.561C91.3711 185.126 91.2683 187.13 89.8295 189.032C88.3908 190.933 86.2326 192.063 84.8966 191.549C83.612 190.984 83.7148 188.98 85.1535 187.079ZM83.0982 195.712C84.8452 195.763 86.0271 197.87 85.7188 200.388C85.4618 202.905 83.8175 204.909 82.1218 204.858C80.3748 204.807 79.1929 202.7 79.5013 200.182C79.7582 197.664 81.4025 195.66 83.0982 195.712ZM85.4105 220.376C83.4065 220.736 81.0942 218.629 80.2206 215.752C79.3985 212.823 80.3233 210.202 82.3273 209.842C84.3314 209.483 86.6437 211.589 87.5173 214.467C88.3394 217.396 87.4145 220.016 85.4105 220.376ZM95.9443 235.483C93.8889 236.357 90.6517 234.661 88.6991 231.732C86.7465 228.803 86.7979 225.72 88.8019 224.898C90.8572 224.024 94.0945 225.72 96.0471 228.649C97.9997 231.578 97.9483 234.661 95.9443 235.483ZM97.8455 220.479C98.976 219.605 101.237 220.633 102.881 222.843C104.526 225.052 104.937 227.467 103.755 228.341C102.573 229.214 100.363 228.187 98.7191 225.977C97.0748 223.819 96.6637 221.352 97.8455 220.479ZM110.794 249.665C108.688 250.899 104.731 249.46 101.956 246.48C99.1815 243.499 98.6163 240.108 100.723 238.875C102.83 237.641 106.786 239.08 109.561 242.06C112.336 245.041 112.901 248.432 110.794 249.665ZM110.486 236.819C108.174 234.867 107.146 232.297 108.174 231.064C109.202 229.831 111.925 230.396 114.237 232.349C116.55 234.301 117.577 236.871 116.55 238.104C115.522 239.337 112.799 238.772 110.486 236.819ZM127.494 263.231C125.336 264.516 121.174 263.077 118.194 260.045C115.214 256.962 114.546 253.468 116.704 252.183C118.862 250.899 123.024 252.337 126.004 255.369C128.985 258.452 129.653 261.946 127.494 263.231ZM130.578 246.428C129.601 247.918 126.467 247.661 123.641 245.76C120.814 243.91 119.324 241.136 120.301 239.645C121.277 238.155 124.411 238.412 127.238 240.313C130.064 242.215 131.554 244.938 130.578 246.428ZM131.914 276.796C129.858 271.966 131.143 267.393 134.791 266.571C138.439 265.749 143.013 268.986 145.068 273.868C147.123 278.749 145.839 283.271 142.191 284.093C138.542 284.915 133.969 281.678 131.914 276.796ZM151.131 318.88C145.633 318.418 140.598 311.687 139.878 303.928C139.159 296.168 143.013 290.259 148.562 290.722C154.112 291.184 159.096 297.916 159.815 305.675C160.535 313.434 156.681 319.343 151.131 318.88ZM160.535 267.907C159.045 269.5 155.448 268.524 152.467 265.697C149.487 262.923 148.305 259.377 149.795 257.784C151.286 256.191 154.883 257.168 157.863 259.994C160.843 262.768 162.025 266.314 160.535 267.907ZM172.816 295.757C169.322 296.323 164.851 292.263 162.847 286.662C160.843 281.061 162.076 276.026 165.571 275.46C169.065 274.895 173.535 278.955 175.539 284.556C177.543 290.156 176.31 295.192 172.764 295.757H172.816ZM333.29 168.837C331.08 175.98 325.531 181.324 320.906 180.861C316.282 180.399 314.278 174.233 316.487 167.09C318.697 159.948 324.246 154.604 328.871 155.066C333.495 155.529 335.5 161.695 333.29 168.837ZM340.638 131.378C340.689 137.801 337.298 143.402 333.033 143.916C328.768 144.43 325.223 139.651 325.171 133.228C325.12 126.805 328.511 121.204 332.776 120.69C337.041 120.176 340.587 124.955 340.638 131.378ZM322.653 92.6854C326.096 91.5035 330.618 94.5866 332.673 99.5195C334.78 104.452 333.65 109.437 330.207 110.567C326.764 111.749 322.242 108.666 320.187 103.733C318.08 98.8001 319.211 93.8158 322.653 92.6854ZM301.791 74.3925C304.052 72.4912 309.191 73.4161 313.25 76.4478C317.309 79.4795 318.697 83.4875 316.436 85.3374C314.175 87.1872 309.036 86.3137 304.977 83.282C300.918 80.2503 299.53 76.2423 301.791 74.3925ZM314.894 131.327C314.894 136.157 312.788 140.062 310.218 140.062C307.649 140.062 305.542 136.157 305.542 131.327C305.542 126.496 307.649 122.591 310.218 122.591C312.788 122.591 314.894 126.496 314.894 131.327ZM298.348 105.532C296.55 101.78 296.704 97.9266 298.708 97.0017C300.712 96.0254 303.795 98.3377 305.594 102.089C307.392 105.84 307.238 109.694 305.234 110.619C303.23 111.544 300.147 109.283 298.348 105.532ZM299.068 159.485C301.072 154.09 305.028 150.596 307.855 151.675C310.681 152.754 311.4 157.944 309.396 163.339C307.392 168.735 303.435 172.229 300.609 171.15C297.783 170.071 297.064 164.881 299.068 159.485ZM282.008 185.589C285.502 180.245 290.641 177.419 293.518 179.32C296.396 181.221 295.831 187.028 292.285 192.372C288.739 197.716 283.652 200.542 280.775 198.64C277.949 196.791 278.463 190.933 281.957 185.589H282.008ZM260.632 209.585C265.257 204.087 271.32 201.621 274.249 204.087C277.178 206.554 275.791 212.977 271.217 218.475C266.593 223.973 260.529 226.44 257.6 223.973C254.671 221.507 256.059 215.084 260.632 209.585ZM235.351 234.61C240.232 228.957 246.655 226.542 249.636 229.112C252.616 231.732 251.075 238.412 246.193 244.013C241.311 249.665 234.888 252.08 231.908 249.511C228.928 246.891 230.469 240.211 235.351 234.61ZM210.635 268.01C214.951 260.559 221.631 256.345 225.588 258.658C229.544 260.97 229.287 268.832 224.971 276.283C220.655 283.733 213.975 287.947 210.018 285.635C206.062 283.322 206.318 275.46 210.635 268.01ZM211.149 322.786C207.141 332.806 198.919 338.972 192.753 336.505C186.587 334.039 184.84 323.916 188.848 313.896C192.856 303.876 201.077 297.71 207.243 300.176C213.41 302.643 215.157 312.766 211.149 322.786ZM263.253 352.897C261.814 371.652 250.098 387.325 237.047 387.839C223.995 388.352 214.591 373.605 216.03 354.798C217.469 336.043 229.185 320.371 242.236 319.857C255.288 319.343 264.691 334.09 263.253 352.897ZM272.091 287.125C269.111 297.813 260.324 305.88 252.513 305.161C244.703 304.441 240.746 295.192 243.727 284.504C246.707 273.816 255.494 265.749 263.304 266.468C271.115 267.188 275.071 276.437 272.091 287.125ZM290.846 244.013C286.684 251.978 279.131 257.424 273.992 256.14C268.854 254.855 268.031 247.302 272.194 239.337C276.356 231.372 283.909 225.926 289.048 227.21C294.186 228.495 295.008 236.048 290.846 244.013ZM299.479 218.475C294.495 217.293 293.57 210.099 297.372 202.392C301.175 194.684 308.317 189.34 313.301 190.522C318.286 191.704 319.211 198.897 315.408 206.605C311.606 214.313 304.463 219.657 299.479 218.475ZM419.102 250.385C416.327 253.16 412.833 254.187 411.395 252.748C409.904 251.258 410.984 247.816 413.758 245.041C416.533 242.266 420.027 241.238 421.466 242.677C422.956 244.167 421.877 247.61 419.102 250.385ZM458.257 232.811C458.257 234.353 455.894 235.535 453.016 235.483C450.139 235.432 447.826 234.147 447.878 232.657C447.878 231.116 450.241 229.934 453.119 229.985C455.997 229.985 458.309 231.321 458.257 232.811ZM447.004 212.309C450.704 212.206 453.89 214.159 454.147 216.625C454.404 219.092 451.629 221.198 447.929 221.301C444.229 221.404 441.043 219.451 440.787 216.985C440.53 214.518 443.305 212.412 447.004 212.309ZM438.988 232.914C439.708 234.507 437.858 236.922 434.826 238.309C431.794 239.697 428.763 239.491 428.043 237.898C427.324 236.305 429.174 233.89 432.205 232.503C435.237 231.116 438.269 231.321 438.988 232.914ZM424.857 216.42C428.865 214.621 432.873 215.495 433.798 218.269C434.723 221.096 432.154 224.795 428.146 226.594C424.138 228.392 420.13 227.519 419.205 224.744C418.28 221.918 420.849 218.218 424.857 216.42ZM403.533 231.681C407.335 228.289 411.754 227.776 413.399 230.499C415.043 233.222 413.244 238.258 409.391 241.649C405.537 245.041 401.169 245.555 399.525 242.831C397.932 240.056 399.679 235.072 403.533 231.681ZM400.501 263.95C402.813 260.251 406.308 258.247 408.312 259.48C410.264 260.713 410.007 264.721 407.644 268.421C405.331 272.12 401.837 274.124 399.833 272.891C397.88 271.658 398.137 267.65 400.501 263.95ZM398.292 278.595C400.655 279.725 400.861 284.247 398.703 288.666C396.596 293.085 392.948 295.809 390.584 294.678C388.22 293.548 388.015 289.026 390.173 284.607C392.28 280.188 395.928 277.464 398.292 278.595ZM384.983 253.571C388.734 248.997 393.513 247.507 395.62 250.333C397.778 253.108 396.493 259.069 392.742 263.642C388.991 268.215 384.212 269.705 382.105 266.879C379.999 264.053 381.232 258.144 384.983 253.571ZM368.694 279.571C372.496 274.69 377.429 273.045 379.69 275.923C381.951 278.8 380.718 285.018 376.915 289.9C373.113 294.781 368.18 296.425 365.919 293.548C363.658 290.722 364.891 284.453 368.694 279.571ZM345.108 359.423C337.709 365.384 328.511 366.257 324.555 361.324C320.598 356.391 323.321 347.553 330.721 341.592C338.12 335.632 347.318 334.758 351.275 339.691C355.283 344.624 352.508 353.462 345.108 359.423ZM359.856 321.964C354.82 327.667 348.243 329.157 345.211 325.252C342.128 321.398 343.772 313.639 348.808 307.936C353.844 302.232 360.421 300.742 363.453 304.647C366.536 308.501 364.891 316.26 359.856 321.964ZM376.453 336.505C373.01 341.336 368.18 343.751 365.611 341.901C363.042 340.051 363.761 334.707 367.204 329.877C370.647 325.047 375.477 322.632 378.046 324.481C380.615 326.331 379.896 331.675 376.453 336.505ZM382.003 317.956C379.536 316.825 379.228 312.149 381.335 307.473C383.441 302.797 387.192 299.971 389.659 301.05C392.125 302.18 392.434 306.856 390.327 311.532C388.22 316.208 384.469 319.035 382.003 317.956Z" fill="#507096"/>
<path d="M121.139 633.795C121.139 633.795 120.648 633.795 120.43 633.904C120.212 634.013 119.993 634.177 119.721 634.45C116.228 637.724 112.3 640.288 107.88 642.143C103.46 643.944 98.4941 644.872 92.8738 644.872C84.6888 644.872 77.7042 643.071 71.9201 639.415C66.1361 635.759 61.7162 630.794 58.715 624.464C55.7138 618.134 54.186 610.986 54.186 602.965C54.186 594.943 55.7684 587.249 58.9878 580.865C62.2073 574.481 66.7909 569.515 72.7386 565.968C78.6864 562.421 85.8347 560.621 94.1288 560.621C99.0944 560.621 103.733 561.221 107.934 562.367C111.699 563.404 114.864 564.659 117.538 566.023L118.684 578.246C118.793 578.682 118.957 579.064 119.284 579.337C119.611 579.61 119.993 579.719 120.43 579.719H123.922V562.094C121.248 560.566 118.302 559.257 115.028 558.111C111.754 556.965 108.316 556.037 104.66 555.382C101.004 554.728 97.2391 554.4 93.3103 554.4C86.2712 554.4 79.9415 555.601 74.2665 557.947C68.5916 560.293 63.7351 563.622 59.6426 567.878C55.6593 572.134 52.4944 577.264 50.2572 583.157C47.9654 589.05 46.874 595.707 46.874 602.965C46.874 609.84 47.9108 616.17 49.9298 622.063C51.9487 627.956 54.9499 633.031 58.8787 637.396C62.9712 641.871 67.7731 645.254 73.2843 647.6C78.7956 649.946 85.0162 651.147 92.0007 651.147C99.3672 651.147 105.806 649.892 111.208 647.327C116.61 644.763 121.248 641.489 125.068 637.396L122.285 634.34C121.903 634.013 121.576 633.795 121.194 633.795H121.139Z" fill="#507096" stroke="#507096" stroke-width="2.8" stroke-linecap="round" stroke-linejoin="round"/>
<path d="M172.815 582.393C167.576 582.393 163.156 583.976 159.609 587.086C156.063 590.196 153.225 594.507 151.206 600.018L150.661 585.722C150.661 584.903 150.497 584.357 150.115 583.976C149.733 583.648 149.187 583.43 148.369 583.43H134.509V586.486C134.509 587.031 134.618 587.413 134.891 587.686C135.164 587.959 135.491 588.123 135.982 588.232L144.822 589.268V644.217L135.982 645.254C135.546 645.254 135.164 645.418 134.891 645.745C134.618 646.072 134.509 646.454 134.509 647V650.056H161.738V647C161.738 646.454 161.628 646.072 161.356 645.745C161.083 645.418 160.755 645.254 160.264 645.254L151.479 644.217V606.948C153.553 601.164 156.172 596.69 159.337 593.579C162.556 590.469 166.594 588.887 171.505 588.887C173.306 588.887 175.052 589.105 176.853 589.596C178.653 590.087 179.854 590.414 180.618 590.578C180.945 590.578 181.327 590.469 181.6 590.305C181.927 590.142 182.091 589.869 182.2 589.487L183.128 584.685C181.6 583.976 180.017 583.375 178.38 582.939C176.743 582.502 174.888 582.284 172.869 582.284L172.815 582.393Z" fill="#507096" stroke="#507096" stroke-width="2.8" stroke-linecap="round" stroke-linejoin="round"/>
<path d="M245.061 645.309L236.276 644.272V606.839C236.276 601.874 235.512 597.563 233.929 593.907C232.347 590.251 230 587.414 226.836 585.449C223.671 583.485 219.687 582.448 214.885 582.448C210.084 582.448 205.609 583.321 201.735 585.122C197.861 586.922 194.205 589.542 190.712 592.979L191.913 595.107C192.186 595.489 192.513 595.708 192.895 595.926C193.277 596.144 193.768 596.144 194.314 596.035C195.896 595.162 197.751 594.071 199.88 592.761C201.953 591.452 204.245 590.36 206.7 589.378C209.156 588.396 211.611 587.905 214.121 587.905C219.36 587.905 223.289 589.542 225.853 592.87C228.418 596.144 229.728 600.837 229.728 606.894V613.715C222.143 613.878 215.704 614.533 210.356 615.57C205.009 616.607 200.643 618.08 197.26 619.826C193.877 621.572 191.367 623.7 189.785 626.101C188.202 628.502 187.384 631.122 187.384 633.959C187.384 637.724 188.202 640.834 189.785 643.344C191.367 645.855 193.55 647.819 196.278 649.129C199.007 650.438 201.953 651.147 205.173 651.147C210.575 651.147 215.213 650.111 218.978 648.092C222.743 646.073 226.454 643.235 230.11 639.688L230.928 648.092C231.092 648.91 231.419 649.401 231.801 649.674C232.183 649.947 232.783 650.056 233.602 650.056H246.534V647C246.534 646.455 246.425 646.073 246.152 645.745C245.879 645.418 245.552 645.254 245.061 645.254V645.309ZM229.673 635.159C226.454 638.433 223.125 641.107 219.687 643.181C216.195 645.254 211.939 646.236 206.864 646.236C203.317 646.236 200.262 645.2 197.697 643.072C195.187 640.998 193.877 637.833 193.877 633.632C193.877 630.794 194.805 628.393 196.66 626.429C198.515 624.464 201.135 622.937 204.409 621.736C207.683 620.59 211.502 619.717 215.813 619.117C220.124 618.517 224.707 618.189 229.618 617.971V635.05L229.673 635.159Z" fill="#507096" stroke="#507096" stroke-width="2.8" stroke-linecap="round" stroke-linejoin="round"/>
<path d="M319.817 645.308L309.667 644.108L309.013 643.998L284.021 616.606C283.039 615.296 281.948 614.26 280.693 613.55C281.238 613.277 281.675 612.95 282.111 612.568C282.493 612.186 282.93 611.75 283.366 611.313L306.23 589.486L315.943 588.34C316.379 588.231 316.761 588.068 317.089 587.795C317.416 587.522 317.58 587.14 317.58 586.594V583.539H292.588V586.594C292.588 587.14 292.697 587.522 292.97 587.795C293.243 588.068 293.57 588.231 294.061 588.34L299.082 588.941L276.709 610.495C276.109 611.095 275.509 611.531 274.908 611.695C274.308 611.859 273.708 611.968 272.999 611.968H269.943V552.763H252.973V555.819C252.973 556.364 253.082 556.746 253.355 557.019C253.627 557.292 253.955 557.456 254.446 557.565L263.286 558.602V644.217L254.446 645.254C254.009 645.254 253.627 645.417 253.355 645.745C253.082 646.072 252.973 646.454 252.973 647V650.055H280.201V647C280.201 646.454 280.092 646.072 279.819 645.745C279.547 645.417 279.219 645.254 278.728 645.254L269.943 644.217V616.551H272.999C274.363 616.551 275.29 616.661 275.945 616.933C276.545 617.206 277.255 617.806 277.964 618.68L305.63 648.473C306.175 649.019 306.666 649.401 307.103 649.673C307.539 649.946 308.085 650.055 308.685 650.055H321.345V647C321.345 646.454 321.236 646.072 320.963 645.745C320.69 645.417 320.363 645.254 319.871 645.254L319.817 645.308Z" fill="#507096" stroke="#507096" stroke-width="2.8" stroke-linecap="round" stroke-linejoin="round"/>
<path d="M370.674 585.995C366.745 583.594 362.161 582.393 356.923 582.393C350.702 582.393 345.355 583.812 340.826 586.65C336.351 589.487 332.859 593.416 330.458 598.381C328.057 603.347 326.856 609.022 326.856 615.352C326.856 622.554 328.057 628.83 330.512 634.177C332.968 639.525 336.46 643.617 341.044 646.509C345.627 649.401 351.084 650.875 357.414 650.875C360.415 650.875 363.58 650.493 366.799 649.674C370.073 648.856 373.02 647.764 375.694 646.346C378.367 644.927 380.441 643.29 381.969 641.38L380.223 639.088C379.786 638.652 379.186 638.488 378.477 638.542C377.658 638.815 376.239 639.525 374.111 640.671C372.038 641.816 369.582 642.908 366.745 643.945C363.907 644.981 360.961 645.472 357.741 645.472C350.266 645.472 344.372 642.962 340.116 637.888C335.86 632.813 333.623 625.828 333.459 616.934V614.26H381.259C381.969 614.26 382.46 614.097 382.733 613.715C383.006 613.387 383.115 612.623 383.115 611.587C383.115 605.53 382.023 600.346 379.786 596.035C377.549 591.724 374.493 588.341 370.564 585.94L370.674 585.995ZM333.841 610.059C334.659 603.129 337.006 597.617 340.989 593.579C344.973 589.542 350.32 587.523 357.086 587.523C363.198 587.523 368.109 589.596 371.71 593.689C375.312 597.781 377.112 603.238 377.112 610.113H333.841V610.059Z" fill="#507096" stroke="#507096" stroke-width="2.8" stroke-linecap="round" stroke-linejoin="round"/>
<path d="M464.801 645.745C464.528 645.418 464.201 645.254 463.71 645.254L454.87 644.218V607.494C454.87 602.419 454.051 598 452.414 594.234C450.777 590.469 448.322 587.523 445.048 585.504C441.774 583.43 437.681 582.448 432.716 582.448C427.75 582.448 423.385 583.648 419.347 585.995C415.364 588.341 411.817 591.452 408.816 595.271L408.161 585.395C407.997 584.14 407.288 583.539 406.142 583.539H392.118V586.595C392.118 587.141 392.227 587.523 392.5 587.796C392.773 588.068 393.1 588.232 393.591 588.341L402.431 589.378V644.327L393.591 645.363C393.155 645.363 392.773 645.527 392.5 645.855C392.227 646.182 392.118 646.564 392.118 647.11V650.165H419.347V647.11C419.347 646.564 419.238 646.182 418.965 645.855C418.692 645.527 418.365 645.363 417.874 645.363L409.088 644.327V600.4C412.035 596.472 415.364 593.416 419.02 591.233C422.73 589.051 426.713 587.959 430.97 587.959C436.863 587.959 441.174 589.651 444.011 593.089C446.794 596.526 448.213 601.328 448.213 607.549V650.165H465.183V647.11C465.183 646.564 465.074 646.182 464.801 645.855V645.745Z" fill="#507096" stroke="#507096" stroke-width="2.8" stroke-linecap="round" stroke-linejoin="round"/>
<path d="M77.9688 703.966L84.1094 687.056H86.2422V689.892H85.4922L80.7344 703.966H77.9688ZM80.9453 699.396L81.707 697.286H89.3594L90.1211 699.396H80.9453ZM90.3203 703.966L85.5742 689.892V687.056H86.957L93.0859 703.966H90.3203ZM95.1367 703.966V687.056H97.5625L107.77 701.681L105.168 699.501H106.34V687.056H108.941V703.966H106.527L96.3203 689.318L98.9219 691.497H97.75V703.966H95.1367ZM117.449 703.966V687.056H120.086V703.966H117.449ZM123.402 703.966V687.056H125.828L136.035 701.681L133.434 699.501H134.605V687.056H137.207V703.966H134.793L124.586 689.318L127.188 691.497H126.016V703.966H123.402ZM144.754 703.966V689.329H139.551V687.056H152.582V689.329H147.379V703.966H144.754ZM154.902 703.966V687.056H165.648V689.329H157.539V694.251H165.215V696.454H157.539V701.693H165.648V703.966H154.902ZM168.543 703.966V687.056H171.18V701.693H179.066V703.966H168.543ZM181.504 703.966V687.056H184.141V701.693H192.027V703.966H181.504ZM194.465 703.966V687.056H197.102V703.966H194.465ZM207.672 704.271C206.469 704.271 205.379 704.068 204.402 703.661C203.434 703.255 202.605 702.669 201.918 701.904C201.238 701.13 200.715 700.2 200.348 699.115C199.98 698.029 199.797 696.806 199.797 695.447V695.435C199.797 693.654 200.117 692.115 200.758 690.818C201.406 689.521 202.316 688.521 203.488 687.818C204.668 687.107 206.055 686.751 207.648 686.751C208.961 686.751 210.109 686.986 211.094 687.454C212.086 687.915 212.895 688.548 213.52 689.353C214.152 690.157 214.582 691.075 214.809 692.107L214.844 692.294H212.16L212.113 692.177C211.77 691.193 211.219 690.431 210.461 689.892C209.703 689.353 208.766 689.083 207.648 689.083C206.586 689.083 205.668 689.337 204.895 689.845C204.121 690.345 203.523 691.072 203.102 692.025C202.688 692.97 202.48 694.103 202.48 695.423V695.435C202.48 696.443 202.602 697.349 202.844 698.154C203.086 698.958 203.434 699.642 203.887 700.204C204.348 700.767 204.898 701.197 205.539 701.493C206.18 701.79 206.898 701.939 207.695 701.939C208.617 701.939 209.426 701.759 210.121 701.4C210.824 701.04 211.371 700.54 211.762 699.9C212.152 699.251 212.355 698.497 212.371 697.638V697.345H207.953V695.2H214.973V697.005C214.973 698.13 214.805 699.142 214.469 700.04C214.141 700.939 213.66 701.704 213.027 702.337C212.402 702.97 211.637 703.45 210.73 703.779C209.832 704.107 208.812 704.271 207.672 704.271ZM217.715 703.966V687.056H228.461V689.329H220.352V694.251H228.027V696.454H220.352V701.693H228.461V703.966H217.715ZM231.355 703.966V687.056H233.781L243.988 701.681L241.387 699.501H242.559V687.056H245.16V703.966H242.746L232.539 689.318L235.141 691.497H233.969V703.966H231.355ZM252.707 703.966V689.329H247.504V687.056H260.535V689.329H255.332V703.966H252.707ZM268.035 703.966V687.056H278.781V689.329H270.672V694.251H278.348V696.454H270.672V701.693H278.781V703.966H268.035ZM281.676 703.966V687.056H284.102L294.309 701.681L291.707 699.501H292.879V687.056H295.48V703.966H293.066L282.859 689.318L285.461 691.497H284.289V703.966H281.676ZM303.578 703.966L297.555 687.056H300.402L304.984 700.99H305.066L309.66 687.056H312.508L306.484 703.966H303.578ZM314.559 703.966V687.056H317.195V703.966H314.559ZM320.512 703.966V687.056H327.109C328.266 687.056 329.262 687.267 330.098 687.689C330.941 688.111 331.594 688.708 332.055 689.482C332.516 690.255 332.746 691.169 332.746 692.224V692.247C332.746 693.396 332.453 694.4 331.867 695.259C331.281 696.118 330.48 696.724 329.465 697.075L333.25 703.966H330.215L326.77 697.474C326.746 697.474 326.723 697.474 326.699 697.474C326.676 697.474 326.652 697.474 326.629 697.474H323.148V703.966H320.512ZM323.148 695.318H326.852C327.859 695.318 328.641 695.056 329.195 694.532C329.75 694.001 330.027 693.255 330.027 692.294V692.271C330.027 691.333 329.734 690.599 329.148 690.068C328.57 689.529 327.777 689.259 326.77 689.259H323.148V695.318ZM342.789 704.271C341.164 704.271 339.758 703.915 338.57 703.204C337.383 702.493 336.469 701.486 335.828 700.181C335.188 698.868 334.867 697.314 334.867 695.517V695.493C334.867 693.697 335.191 692.146 335.84 690.841C336.488 689.536 337.402 688.529 338.582 687.818C339.77 687.107 341.172 686.751 342.789 686.751C344.414 686.751 345.816 687.107 346.996 687.818C348.184 688.529 349.098 689.536 349.738 690.841C350.387 692.146 350.711 693.697 350.711 695.493V695.517C350.711 697.314 350.387 698.868 349.738 700.181C349.098 701.486 348.188 702.493 347.008 703.204C345.828 703.915 344.422 704.271 342.789 704.271ZM342.789 701.939C343.875 701.939 344.805 701.677 345.578 701.154C346.359 700.622 346.961 699.876 347.383 698.915C347.805 697.954 348.016 696.822 348.016 695.517V695.493C348.016 694.181 347.805 693.044 347.383 692.083C346.961 691.122 346.355 690.384 345.566 689.868C344.785 689.345 343.859 689.083 342.789 689.083C341.727 689.083 340.801 689.345 340.012 689.868C339.23 690.384 338.625 691.122 338.195 692.083C337.766 693.036 337.551 694.173 337.551 695.493V695.517C337.551 696.822 337.766 697.958 338.195 698.927C338.625 699.888 339.23 700.63 340.012 701.154C340.793 701.677 341.719 701.939 342.789 701.939ZM353.395 703.966V687.056H355.82L366.027 701.681L363.426 699.501H364.598V687.056H367.199V703.966H364.785L354.578 689.318L357.18 691.497H356.008V703.966H353.395ZM370.527 703.966V687.056H373.574L379.023 700.532H379.129L384.578 687.056H387.613V703.966H385.211V691.509H383.992L386.734 687.525L380.043 703.966H378.109L371.418 687.525L374.16 691.509H372.93V703.966H370.527ZM390.941 703.966V687.056H401.688V689.329H393.578V694.251H401.254V696.454H393.578V701.693H401.688V703.966H390.941ZM404.582 703.966V687.056H407.008L417.215 701.681L414.613 699.501H415.785V687.056H418.387V703.966H415.973L405.766 689.318L408.367 691.497H407.195V703.966H404.582ZM425.934 703.966V689.329H420.73V687.056H433.762V689.329H428.559V703.966H425.934ZM106.27 729.966V713.056H116.84V715.329H108.906V720.673H116.172V722.888H108.906V729.966H106.27ZM126.625 730.271C125 730.271 123.594 729.915 122.406 729.204C121.219 728.493 120.305 727.486 119.664 726.181C119.023 724.868 118.703 723.314 118.703 721.517V721.493C118.703 719.697 119.027 718.146 119.676 716.841C120.324 715.536 121.238 714.529 122.418 713.818C123.605 713.107 125.008 712.751 126.625 712.751C128.25 712.751 129.652 713.107 130.832 713.818C132.02 714.529 132.934 715.536 133.574 716.841C134.223 718.146 134.547 719.697 134.547 721.493V721.517C134.547 723.314 134.223 724.868 133.574 726.181C132.934 727.486 132.023 728.493 130.844 729.204C129.664 729.915 128.258 730.271 126.625 730.271ZM126.625 727.939C127.711 727.939 128.641 727.677 129.414 727.154C130.195 726.622 130.797 725.876 131.219 724.915C131.641 723.954 131.852 722.822 131.852 721.517V721.493C131.852 720.181 131.641 719.044 131.219 718.083C130.797 717.122 130.191 716.384 129.402 715.868C128.621 715.345 127.695 715.083 126.625 715.083C125.562 715.083 124.637 715.345 123.848 715.868C123.066 716.384 122.461 717.122 122.031 718.083C121.602 719.036 121.387 720.173 121.387 721.493V721.517C121.387 722.822 121.602 723.958 122.031 724.927C122.461 725.888 123.066 726.63 123.848 727.154C124.629 727.677 125.555 727.939 126.625 727.939ZM137.23 729.966V713.056H143.828C144.984 713.056 145.98 713.267 146.816 713.689C147.66 714.111 148.312 714.708 148.773 715.482C149.234 716.255 149.465 717.169 149.465 718.224V718.247C149.465 719.396 149.172 720.4 148.586 721.259C148 722.118 147.199 722.724 146.184 723.075L149.969 729.966H146.934L143.488 723.474C143.465 723.474 143.441 723.474 143.418 723.474C143.395 723.474 143.371 723.474 143.348 723.474H139.867V729.966H137.23ZM139.867 721.318H143.57C144.578 721.318 145.359 721.056 145.914 720.532C146.469 720.001 146.746 719.255 146.746 718.294V718.271C146.746 717.333 146.453 716.599 145.867 716.068C145.289 715.529 144.496 715.259 143.488 715.259H139.867V721.318ZM163.152 730.271C161.887 730.271 160.777 730.079 159.824 729.697C158.879 729.306 158.129 728.755 157.574 728.044C157.02 727.325 156.707 726.474 156.637 725.49L156.625 725.325H159.191L159.215 725.466C159.293 725.982 159.508 726.427 159.859 726.802C160.211 727.177 160.676 727.47 161.254 727.681C161.84 727.884 162.508 727.986 163.258 727.986C164.008 727.986 164.656 727.88 165.203 727.669C165.758 727.45 166.184 727.146 166.48 726.755C166.785 726.365 166.938 725.907 166.938 725.384V725.372C166.938 724.7 166.691 724.161 166.199 723.755C165.715 723.349 164.91 723.025 163.785 722.782L161.945 722.396C160.281 722.036 159.043 721.466 158.23 720.685C157.426 719.904 157.023 718.892 157.023 717.65V717.638C157.031 716.669 157.297 715.818 157.82 715.083C158.344 714.349 159.066 713.779 159.988 713.372C160.91 712.958 161.969 712.751 163.164 712.751C164.344 712.751 165.379 712.95 166.27 713.349C167.168 713.747 167.879 714.306 168.402 715.025C168.926 715.736 169.219 716.56 169.281 717.497L169.293 717.685H166.727L166.715 717.532C166.637 717.009 166.441 716.564 166.129 716.197C165.816 715.829 165.406 715.544 164.898 715.341C164.391 715.138 163.797 715.036 163.117 715.036C162.43 715.036 161.828 715.142 161.312 715.353C160.797 715.556 160.398 715.841 160.117 716.208C159.836 716.575 159.695 717.009 159.695 717.509V717.521C159.695 718.154 159.941 718.673 160.434 719.079C160.926 719.486 161.703 719.802 162.766 720.029L164.605 720.415C165.777 720.665 166.73 720.997 167.465 721.411C168.199 721.825 168.738 722.341 169.082 722.958C169.434 723.575 169.609 724.314 169.609 725.173V725.185C169.609 726.224 169.348 727.126 168.824 727.892C168.309 728.65 167.566 729.236 166.598 729.65C165.637 730.064 164.488 730.271 163.152 730.271ZM179.336 730.271C177.75 730.271 176.371 729.915 175.199 729.204C174.027 728.493 173.121 727.482 172.48 726.169C171.848 724.857 171.531 723.302 171.531 721.505V721.493C171.531 719.697 171.848 718.146 172.48 716.841C173.121 715.536 174.023 714.529 175.188 713.818C176.359 713.107 177.742 712.751 179.336 712.751C180.578 712.751 181.699 712.99 182.699 713.466C183.707 713.943 184.531 714.607 185.172 715.458C185.82 716.302 186.227 717.282 186.391 718.4L186.414 718.505H183.801L183.742 718.306C183.555 717.634 183.258 717.06 182.852 716.583C182.453 716.107 181.957 715.74 181.363 715.482C180.77 715.216 180.094 715.083 179.336 715.083C178.297 715.083 177.395 715.345 176.629 715.868C175.863 716.392 175.27 717.134 174.848 718.095C174.434 719.048 174.227 720.181 174.227 721.493V721.505C174.227 722.81 174.434 723.947 174.848 724.915C175.27 725.876 175.863 726.622 176.629 727.154C177.402 727.677 178.305 727.939 179.336 727.939C180.086 727.939 180.758 727.814 181.352 727.564C181.945 727.306 182.445 726.935 182.852 726.45C183.266 725.958 183.57 725.365 183.766 724.669L183.801 724.564H186.414L186.402 724.681C186.23 725.798 185.82 726.779 185.172 727.622C184.531 728.458 183.711 729.111 182.711 729.579C181.711 730.04 180.586 730.271 179.336 730.271ZM188.98 729.966V713.056H191.617V729.966H188.98ZM194.934 729.966V713.056H205.68V715.329H197.57V720.251H205.246V722.454H197.57V727.693H205.68V729.966H194.934ZM208.574 729.966V713.056H211L221.207 727.681L218.605 725.501H219.777V713.056H222.379V729.966H219.965L209.758 715.318L212.359 717.497H211.188V729.966H208.574ZM229.926 729.966V715.329H224.723V713.056H237.754V715.329H232.551V729.966H229.926ZM240.074 729.966V713.056H242.711V729.966H240.074ZM246.027 729.966V713.056H256.598V715.329H248.664V720.673H255.93V722.888H248.664V729.966H246.027ZM259.082 729.966V713.056H261.719V729.966H259.082ZM272.219 730.271C270.633 730.271 269.254 729.915 268.082 729.204C266.91 728.493 266.004 727.482 265.363 726.169C264.73 724.857 264.414 723.302 264.414 721.505V721.493C264.414 719.697 264.73 718.146 265.363 716.841C266.004 715.536 266.906 714.529 268.07 713.818C269.242 713.107 270.625 712.751 272.219 712.751C273.461 712.751 274.582 712.99 275.582 713.466C276.59 713.943 277.414 714.607 278.055 715.458C278.703 716.302 279.109 717.282 279.273 718.4L279.297 718.505H276.684L276.625 718.306C276.438 717.634 276.141 717.06 275.734 716.583C275.336 716.107 274.84 715.74 274.246 715.482C273.652 715.216 272.977 715.083 272.219 715.083C271.18 715.083 270.277 715.345 269.512 715.868C268.746 716.392 268.152 717.134 267.73 718.095C267.316 719.048 267.109 720.181 267.109 721.493V721.505C267.109 722.81 267.316 723.947 267.73 724.915C268.152 725.876 268.746 726.622 269.512 727.154C270.285 727.677 271.188 727.939 272.219 727.939C272.969 727.939 273.641 727.814 274.234 727.564C274.828 727.306 275.328 726.935 275.734 726.45C276.148 725.958 276.453 725.365 276.648 724.669L276.684 724.564H279.297L279.285 724.681C279.113 725.798 278.703 726.779 278.055 727.622C277.414 728.458 276.594 729.111 275.594 729.579C274.594 730.04 273.469 730.271 272.219 730.271ZM287.043 729.966V713.056H293.641C294.797 713.056 295.793 713.267 296.629 713.689C297.473 714.111 298.125 714.708 298.586 715.482C299.047 716.255 299.277 717.169 299.277 718.224V718.247C299.277 719.396 298.984 720.4 298.398 721.259C297.812 722.118 297.012 722.724 295.996 723.075L299.781 729.966H296.746L293.301 723.474C293.277 723.474 293.254 723.474 293.23 723.474C293.207 723.474 293.184 723.474 293.16 723.474H289.68V729.966H287.043ZM289.68 721.318H293.383C294.391 721.318 295.172 721.056 295.727 720.532C296.281 720.001 296.559 719.255 296.559 718.294V718.271C296.559 717.333 296.266 716.599 295.68 716.068C295.102 715.529 294.309 715.259 293.301 715.259H289.68V721.318ZM302.02 729.966V713.056H312.766V715.329H304.656V720.251H312.332V722.454H304.656V727.693H312.766V729.966H302.02ZM321.426 730.271C320.16 730.271 319.051 730.079 318.098 729.697C317.152 729.306 316.402 728.755 315.848 728.044C315.293 727.325 314.98 726.474 314.91 725.49L314.898 725.325H317.465L317.488 725.466C317.566 725.982 317.781 726.427 318.133 726.802C318.484 727.177 318.949 727.47 319.527 727.681C320.113 727.884 320.781 727.986 321.531 727.986C322.281 727.986 322.93 727.88 323.477 727.669C324.031 727.45 324.457 727.146 324.754 726.755C325.059 726.365 325.211 725.907 325.211 725.384V725.372C325.211 724.7 324.965 724.161 324.473 723.755C323.988 723.349 323.184 723.025 322.059 722.782L320.219 722.396C318.555 722.036 317.316 721.466 316.504 720.685C315.699 719.904 315.297 718.892 315.297 717.65V717.638C315.305 716.669 315.57 715.818 316.094 715.083C316.617 714.349 317.34 713.779 318.262 713.372C319.184 712.958 320.242 712.751 321.438 712.751C322.617 712.751 323.652 712.95 324.543 713.349C325.441 713.747 326.152 714.306 326.676 715.025C327.199 715.736 327.492 716.56 327.555 717.497L327.566 717.685H325L324.988 717.532C324.91 717.009 324.715 716.564 324.402 716.197C324.09 715.829 323.68 715.544 323.172 715.341C322.664 715.138 322.07 715.036 321.391 715.036C320.703 715.036 320.102 715.142 319.586 715.353C319.07 715.556 318.672 715.841 318.391 716.208C318.109 716.575 317.969 717.009 317.969 717.509V717.521C317.969 718.154 318.215 718.673 318.707 719.079C319.199 719.486 319.977 719.802 321.039 720.029L322.879 720.415C324.051 720.665 325.004 720.997 325.738 721.411C326.473 721.825 327.012 722.341 327.355 722.958C327.707 723.575 327.883 724.314 327.883 725.173V725.185C327.883 726.224 327.621 727.126 327.098 727.892C326.582 728.65 325.84 729.236 324.871 729.65C323.91 730.064 322.762 730.271 321.426 730.271ZM330.426 729.966V713.056H341.172V715.329H333.062V720.251H340.738V722.454H333.062V727.693H341.172V729.966H330.426ZM342.812 729.966L348.953 713.056H351.086V715.892H350.336L345.578 729.966H342.812ZM345.789 725.396L346.551 723.286H354.203L354.965 725.396H345.789ZM355.164 729.966L350.418 715.892V713.056H351.801L357.93 729.966H355.164ZM359.98 729.966V713.056H366.578C367.734 713.056 368.73 713.267 369.566 713.689C370.41 714.111 371.062 714.708 371.523 715.482C371.984 716.255 372.215 717.169 372.215 718.224V718.247C372.215 719.396 371.922 720.4 371.336 721.259C370.75 722.118 369.949 722.724 368.934 723.075L372.719 729.966H369.684L366.238 723.474C366.215 723.474 366.191 723.474 366.168 723.474C366.145 723.474 366.121 723.474 366.098 723.474H362.617V729.966H359.98ZM362.617 721.318H366.32C367.328 721.318 368.109 721.056 368.664 720.532C369.219 720.001 369.496 719.255 369.496 718.294V718.271C369.496 717.333 369.203 716.599 368.617 716.068C368.039 715.529 367.246 715.259 366.238 715.259H362.617V721.318ZM382.141 730.271C380.555 730.271 379.176 729.915 378.004 729.204C376.832 728.493 375.926 727.482 375.285 726.169C374.652 724.857 374.336 723.302 374.336 721.505V721.493C374.336 719.697 374.652 718.146 375.285 716.841C375.926 715.536 376.828 714.529 377.992 713.818C379.164 713.107 380.547 712.751 382.141 712.751C383.383 712.751 384.504 712.99 385.504 713.466C386.512 713.943 387.336 714.607 387.977 715.458C388.625 716.302 389.031 717.282 389.195 718.4L389.219 718.505H386.605L386.547 718.306C386.359 717.634 386.062 717.06 385.656 716.583C385.258 716.107 384.762 715.74 384.168 715.482C383.574 715.216 382.898 715.083 382.141 715.083C381.102 715.083 380.199 715.345 379.434 715.868C378.668 716.392 378.074 717.134 377.652 718.095C377.238 719.048 377.031 720.181 377.031 721.493V721.505C377.031 722.81 377.238 723.947 377.652 724.915C378.074 725.876 378.668 726.622 379.434 727.154C380.207 727.677 381.109 727.939 382.141 727.939C382.891 727.939 383.562 727.814 384.156 727.564C384.75 727.306 385.25 726.935 385.656 726.45C386.07 725.958 386.375 725.365 386.57 724.669L386.605 724.564H389.219L389.207 724.681C389.035 725.798 388.625 726.779 387.977 727.622C387.336 728.458 386.516 729.111 385.516 729.579C384.516 730.04 383.391 730.271 382.141 730.271ZM391.785 729.966V713.056H394.422V720.204H403.094V713.056H405.73V729.966H403.094V722.478H394.422V729.966H391.785Z" fill="#507096"/>
</svg>
