<svg width="889" height="300" viewBox="0 0 889 300" fill="none" xmlns="http://www.w3.org/2000/svg">
<path d="M191.337 281.585L190.347 281.045C187.076 279.725 182.935 279.095 178.793 278.465C176.453 278.104 174.202 277.774 172.282 277.294C164.059 275.584 144.464 270.362 136.662 258.299C128.86 246.236 119.527 264.601 106.444 257.099C95.5208 250.827 103.383 240.474 97.0812 242.845C89.2791 245.426 73.9449 261 67.7032 263.64C61.3715 266.311 52.7891 268.682 44.2068 269.042L43.8167 269.102C39.7956 269.852 39.1354 271.533 39.3155 272.823C39.5555 274.623 41.026 276.334 50.0884 276.634C51.6489 276.694 53.9295 276.694 56.03 276.454C62.4818 275.764 68.9035 274.473 75.2052 273.213C83.6075 271.503 92.2799 269.762 100.892 269.582C115.986 269.312 129.79 273.753 144.314 278.465C154.877 281.885 165.83 285.426 177.443 287.047C179.604 287.377 182.034 287.617 184.105 287.677C184.915 287.677 185.665 287.677 186.325 287.677C187.796 287.647 191.637 287.527 192.657 285.126C193.167 283.896 192.657 282.546 191.277 281.615L191.337 281.585Z" fill="#507096"/>
<path d="M298.797 234.292C298.497 233.632 297.056 232.282 297.056 232.282L295.976 231.382C290.094 226.88 284.603 225.17 276.561 223.549C269.779 222.169 262.487 223.94 254.265 226.61C244.512 229.761 233.199 230.661 231.458 227.331C230.828 226.16 232.209 224.63 235.029 223.399C240.101 221.179 241.211 220.339 246.912 216.648C254.655 211.606 239.5 201.493 230.708 204.434C223.146 206.985 223.986 198.193 224.496 194.532C224.496 194.352 224.556 194.171 224.586 193.991C224.736 192.551 224.616 190.931 225.307 189.61C226.327 187.63 228.728 186.549 229.838 184.509C230.468 183.459 230.888 182.318 231.098 181.118C231.488 179.227 230.888 177.187 231.308 175.686C231.758 173.796 234.159 172.566 235.059 170.225C236.77 167.194 234.699 163.323 237.28 161.133C238.57 159.962 239.831 158.612 240.401 156.901C241.181 154.951 240.761 152.67 241.631 151.41C242.711 149.849 244.812 149.369 246.042 147.899C247.513 146.519 247.813 144.298 249.283 142.978C250.483 141.897 252.884 142.197 254.835 141.237C256.485 140.577 257.685 138.896 259.486 138.716C260.836 138.596 262.577 139.857 264.527 139.887C266.148 140.067 267.798 139.287 269.389 139.587C271.129 140.007 271.909 142.197 273.89 143.278C275.06 144.028 276.921 144.268 277.761 145.408C278.871 147.509 277.491 149.129 280.372 151.44C283.883 154.981 280.492 156.901 279.231 159.122C277.611 162.993 278.361 165.424 273.2 168.304C266.748 170.885 264.197 172.416 262.277 177.217C260.656 181.238 258.616 188.92 261.136 189.1C263.147 189.25 267.678 178.987 276.08 178.267C287.393 177.307 293.995 163.803 295.016 159.482C298.647 144.088 295.676 134.035 285.833 121.732C278.511 112.549 264.887 107.958 253.454 109.158C236.17 110.899 220.895 122.902 210.993 137.306C205.381 145.228 198.989 154.681 194.398 161.613C188.066 171.155 185.366 178.897 182.245 179.978C179.664 180.878 180.474 175.776 184.225 168.454C191.097 156.031 200.4 144.928 207.542 132.685C220.655 110.899 224.196 82.7812 216.034 58.8047C210.693 42.9303 199.89 29.2766 184.676 21.4145C160.069 8.69102 128.08 6.77049 103.474 34.0779C87.7192 51.6027 87.8693 80.9207 105.994 96.975C122.229 111.379 144.345 105.437 152.927 98.3554C161.389 91.3935 165.56 83.7715 165.2 76.4795C165.11 74.0188 164.72 69.7876 162.139 69.2475C160.159 68.7974 157.368 75.3692 155.928 76.5995C152.507 80.4706 149.806 82.4511 142.094 83.5614C127.15 85.0018 121.148 76.1194 120.668 65.9766C120.788 54.7235 130.871 55.5638 135.042 51.0926C137.233 48.0917 139.123 44.8809 145.905 47.4016C150.736 49.8022 153.017 48.8419 156.468 49.052C158.478 49.5021 159.949 51.8128 161.629 52.9231C164.27 54.8736 167.661 54.6035 169.251 56.6741C170.602 58.5946 170.542 61.2353 171.772 63.2759C173.032 65.8566 175.733 67.417 176.393 69.2775C177.264 71.7682 175.733 74.3789 175.853 76.9596C175.763 80.1105 177.594 83.1413 176.903 85.3619C176.033 88.1226 173.242 89.8631 172.342 92.6539C171.142 95.1746 171.772 98.2354 170.362 100.606C169.221 102.527 165.95 103.337 163.85 105.557C161.899 107.328 160.879 109.789 160.129 112.249C158.809 117.021 152.417 116.6 149.416 120.712C146.865 123.352 146.655 127.253 144.435 128.994C142.694 130.494 139.633 130.914 137.353 132.565C135.912 133.555 134.622 134.845 133.632 136.286C131.591 138.986 131.591 142.828 129.611 145.378C128.26 147.059 126.04 147.899 124.209 148.979C119.828 151.35 116.617 156.841 116.467 161.703C116.527 163.713 116.287 165.574 115.717 167.284C113.076 172.956 109.985 173.976 108.995 172.055C107.885 169.925 108.455 168.364 107.345 166.324C106.564 164.583 103.834 160.622 99.6025 158.162C95.3713 155.701 96.2415 155.821 95.6714 153.69C94.9512 151.5 92.7306 149.429 90.4199 148.979C89.4297 148.739 88.3194 148.649 87.4791 148.079C86.2188 147.179 85.7087 145.438 84.4183 144.508C83.7581 143.998 83.0079 143.578 82.2277 143.338C80.9674 142.888 79.527 143.128 78.5367 142.677C77.2764 142.197 76.6462 140.427 75.1458 139.587C73.2253 138.146 70.3745 139.197 69.1442 137.216C68.454 136.226 67.6738 135.235 66.5335 134.695C65.2731 133.975 63.6827 134.065 62.9025 133.345C61.9422 132.445 61.7922 130.974 60.922 130.014C60.1117 128.874 58.6113 128.484 57.8611 127.343C57.2309 126.413 57.6511 124.793 57.2009 123.382C56.9008 122.182 55.8505 121.222 55.9106 119.961C55.9706 119.031 56.9609 117.951 57.2009 116.6C57.471 115.52 57.0809 114.32 57.441 113.269C57.8911 112.099 59.4515 111.769 60.3818 110.539C61.012 109.819 61.342 108.558 62.2123 108.078C63.7427 107.508 64.913 107.628 66.7735 105.887C69.5043 103.817 70.8246 105.017 72.205 106.068C74.6957 107.538 78.8368 107.568 80.3072 110.749C81.0574 112.759 81.2674 113.48 81.4175 115.52C81.4775 116.42 84.5684 120.231 85.2285 112.939C85.8587 106.007 81.3275 99.3457 75.836 95.8347C68.9641 91.4535 55.4004 91.2435 45.9479 100.366C40.1263 106.007 36.7653 112.669 36.4953 120.591C36.0752 132.595 41.5067 144.868 50.4191 152.97C55.3104 157.532 65.5732 165.334 68.9341 171.155C77.1564 185.289 68.394 195.792 63.1726 198.163C63.0225 198.223 62.9025 198.283 62.7824 198.373C61.3721 198.943 60.0217 199.663 58.7914 200.713C53.84 204.344 52.3096 210.766 54.5602 218.088C54.7102 218.928 54.9203 219.828 55.1604 220.729C55.7905 223.219 56.3907 225.59 55.3704 227.18C54.8003 227.961 52.7297 228.321 48.7986 227.06L47.9884 226.79C42.2568 224.81 36.3153 222.739 30.0135 224.48C27.1027 225.2 24.0719 226.25 21.1611 227.271C17.7102 228.471 14.1092 229.731 10.6282 230.391L9.18787 230.781C3.24625 232.312 0.125413 233.212 0.0053803 235.403C-0.114652 237.143 1.80584 237.863 2.55605 238.163C9.3679 240.084 16.5999 237.023 22.9916 234.352C27.6429 232.402 31.904 230.571 35.7151 230.721C40.1863 230.781 45.6778 233.092 47.4783 237.113C49.7289 245.906 35.1449 251.877 24.462 256.198C21.0711 257.579 18.1603 258.779 16.2098 259.859C13.8391 261.06 11.1684 262.44 12.0686 264.391C13.509 267.421 25.0322 263.22 25.0922 263.19C38.0257 258.149 69.5343 246.356 65.3331 222.829C65.063 221.539 64.643 220.159 64.1928 218.778C62.8125 214.307 63.3826 210.946 65.063 208.725C66.5034 206.865 68.1539 206.445 69.2042 206.355C71.1247 206.145 72.5651 206.655 73.8254 208.575C76.076 212.026 79.8871 214.037 84.2683 210.376C86.729 208.335 100.353 187.87 100.263 193.361C99.9925 208.215 79.8871 226.94 77.9966 232.132C77.3664 233.782 73.5254 247.046 75.2358 248.066C76.7962 248.996 78.2366 247.256 78.7468 246.626C90.3299 234.262 105.694 218.688 110.735 222.199C118.868 227.811 101.313 244.495 115.237 243.745C126.28 243.145 129.611 239.994 135.492 243.535C141.284 247.826 141.524 253.558 144.825 259.259C148.126 264.961 155.988 263.85 154.487 255.808C152.957 247.766 157.368 239.724 160.639 243.235C163.01 245.786 162.89 246.656 164.6 249.266C170.032 258.599 179.964 267.962 192.538 271.833C201.48 274.353 211.713 277.354 222.486 277.684C236.86 278.104 247.813 274.563 259.876 268.592C264.167 266.461 266.268 264.781 265.398 262.86C263.927 259.589 252.884 263.43 252.104 263.7C252.074 263.7 252.074 263.7 252.074 263.7C225.037 269.132 215.674 240.024 210.213 247.826C204.961 255.328 202.71 262.11 190.287 258.959C180.925 256.618 177.594 250.017 176.603 247.976C173.453 241.434 170.842 233.302 170.812 226.37C170.752 202.364 177.444 205.695 177.234 212.657C177.023 219.618 178.284 230.992 184.135 231.862C189.987 232.732 192.028 222.559 204.331 217.818C207.062 216.768 208.682 215.027 209.942 213.347C210.003 213.257 210.122 213.197 210.183 213.137C210.333 212.957 210.513 212.687 210.663 212.386C212.733 209.536 214.264 207.285 219.695 209.746C227.617 213.317 237.34 207.975 237.34 210.826C237.34 213.677 234.489 220.759 222.066 220.909C209.642 221.059 204.901 221.089 198.749 228.501C192.568 235.913 194.758 247.856 196.859 249.717C197.579 250.347 198.539 250.407 199.26 249.837L199.65 249.387C200.94 247.166 201.3 244.525 201.69 241.945C201.99 239.904 202.29 237.833 203.071 235.883C204.211 232.012 208.082 227.18 211.203 227C212.613 226.94 213.814 227.991 214.684 230.091C217.805 239.784 223.836 246.836 232.599 251.067C254.415 261.63 272.029 253.048 280.912 248.966C283.883 247.586 287.363 245.365 290.244 243.595C292.765 241.584 287.003 239.424 273.86 240.954C268.578 241.554 265.548 247.946 261.827 249.056C250.423 252.477 237.16 246.596 231.938 241.584C230.858 240.534 230.648 239.664 230.858 239.154C231.458 237.683 235.81 238.013 238.15 237.923C241.361 237.773 245.022 237.593 247.783 236.693C250.874 235.943 253.784 234.923 256.605 233.932C262.967 231.712 268.969 229.641 275.81 231.112C279.531 231.682 283.402 233.032 287.153 234.322C289.554 235.163 291.895 235.943 294.175 236.573C296.516 237.143 298.497 237.323 298.887 236.153C298.887 236.153 299.217 235.433 298.767 234.472L298.797 234.292ZM268.308 173.916C266.898 174.666 265.728 176.227 265.458 175.716C265.188 175.206 266.418 173.436 267.828 172.656C269.239 171.905 270.259 171.335 270.529 171.845C270.799 172.356 269.719 173.136 268.278 173.886L268.308 173.916ZM276.2 170.705C274.46 171.875 272.69 171.365 272.359 170.885C272.029 170.405 273.41 170.285 275.15 169.115C276.891 167.944 278.151 165.784 278.511 166.294C278.871 166.804 277.941 169.565 276.2 170.735V170.705ZM283.162 162.243C282.352 164.013 281.122 165.154 280.402 164.824C279.681 164.493 279.711 162.783 280.522 161.042C281.332 159.302 282.562 158.132 283.282 158.462C284.003 158.792 283.973 160.502 283.162 162.243ZM285.713 151.23C286.493 151.29 287.033 152.64 286.883 154.231C286.733 155.821 285.983 157.051 285.203 156.991C284.423 156.931 283.883 155.581 284.033 153.991C284.183 152.4 284.933 151.17 285.713 151.23ZM283.672 150.15C282.892 150.57 281.542 149.609 280.642 147.989C279.741 146.368 279.621 144.688 280.372 144.268C281.152 143.848 282.502 144.808 283.402 146.428C284.303 148.049 284.423 149.729 283.672 150.15ZM278.811 135.175C279.531 134.575 281.002 135.746 282.112 137.756C283.222 139.767 283.522 141.897 282.802 142.497C282.082 143.098 280.612 141.927 279.501 139.917C278.391 137.906 278.091 135.776 278.811 135.175ZM277.041 141.537C276.531 142.257 275 142.047 273.65 141.087C272.299 140.097 271.609 138.716 272.119 137.996C272.63 137.276 274.16 137.486 275.51 138.446C276.861 139.437 277.551 140.817 277.041 141.537ZM272.69 127.823C274.46 128.784 275.66 130.494 275.36 131.664C275.06 132.805 273.35 132.955 271.579 131.995C269.809 131.034 268.608 129.324 268.909 128.154C269.209 127.013 270.919 126.863 272.69 127.823ZM134.232 84.9118C136.993 85.1518 139.243 85.5119 139.183 86.2321C139.123 86.9523 136.783 87.7025 134.022 87.4925C131.261 87.2524 128.47 84.8818 128.53 84.1616C128.59 83.4414 131.501 84.7017 134.232 84.9118ZM122.079 76.6895C123.669 79.3002 124.809 81.5808 124.059 82.031C123.309 82.4811 120.998 80.9207 119.408 78.31C117.817 75.6992 118.298 71.4981 119.018 71.048C119.738 70.5979 120.458 74.0788 122.079 76.6895ZM120.038 60.3351C119.048 63.2459 118.298 65.7365 117.487 65.4365C116.677 65.1664 116.377 62.3756 117.367 59.4648C118.358 56.554 121.899 54.2434 122.739 54.5435C123.549 54.8136 121.028 57.4243 120.038 60.3351ZM132.071 50.8525C129.791 52.5029 127.39 53.0731 126.7 52.1428C126.01 51.1826 127.3 49.082 129.581 47.4316C131.861 45.7811 134.262 45.211 134.952 46.1412C135.642 47.1015 134.352 49.202 132.071 50.8525ZM140.444 43.5905C137.563 44.1607 135.192 43.7106 135.192 42.5402C135.192 41.3699 137.533 39.9595 140.414 39.3894C143.294 38.8192 145.665 39.2693 145.665 40.4397C145.665 41.61 143.324 43.0204 140.444 43.5905ZM151.036 47.1315C148.336 46.8914 146.235 45.6911 146.325 44.4007C146.445 43.1104 148.726 42.2702 151.427 42.5102C154.127 42.7503 156.228 43.9506 156.138 45.241C156.018 46.5313 153.737 47.3715 151.036 47.1315ZM157.398 40.7097C157.758 39.3894 160.759 38.5191 164.09 38.7592C167.421 38.9993 169.852 40.2596 169.491 41.55C169.131 42.8703 166.131 43.7406 162.8 43.5005C159.469 43.2604 157.038 42.0001 157.398 40.7097ZM169.792 52.1128C169.161 53.2531 166.911 53.1631 164.78 51.9628C162.65 50.7625 161.479 48.872 162.109 47.7316C162.74 46.5913 164.99 46.6814 167.121 47.8817C169.251 49.082 170.422 50.9725 169.792 52.1128ZM74.2455 103.547C75.5059 103.997 76.3762 104.777 76.1961 105.287C76.0161 105.797 74.8457 105.887 73.5854 105.437C72.325 104.987 71.4548 104.207 71.6348 103.697C71.8149 103.187 72.9852 103.097 74.2455 103.547ZM63.6827 104.297C64.883 103.817 66.0233 103.907 66.2634 104.477C66.4735 105.047 65.6932 105.887 64.4929 106.368C63.2926 106.848 62.1523 106.758 61.9122 106.188C61.7021 105.617 62.4824 104.777 63.6827 104.297ZM78.7468 145.198C79.3469 144.268 81.2375 144.418 82.9779 145.498C84.7184 146.609 85.6786 148.259 85.0785 149.189C84.4783 150.119 82.5878 149.969 80.8474 148.889C79.1069 147.779 78.1466 146.128 78.7468 145.198ZM58.8814 110.419C58.1012 111.259 57.0809 111.589 56.6308 111.169C56.1806 110.749 56.4807 109.729 57.261 108.888C58.0412 108.048 59.0614 107.718 59.5116 108.138C59.9617 108.558 59.6616 109.578 58.8814 110.419ZM57.411 104.297C58.9114 103.727 60.3818 103.727 60.7119 104.297C61.042 104.837 60.1117 105.737 58.6413 106.308C57.1409 106.878 55.6705 106.878 55.3404 106.308C55.0103 105.767 55.9406 104.867 57.411 104.297ZM53.81 116C53.99 114.86 54.6202 114.02 55.2204 114.11C55.8205 114.2 56.1806 115.19 56.0006 116.36C55.8205 117.501 55.1904 118.341 54.5902 118.251C53.9901 118.161 53.6299 117.171 53.81 116ZM54.2001 121.792C54.8903 121.582 55.7305 122.452 56.1206 123.742C56.5107 125.033 56.2706 126.233 55.5805 126.443C54.8903 126.653 54.05 125.783 53.6599 124.493C53.2698 123.202 53.5099 122.002 54.2001 121.792ZM49.7289 109.819C50.5691 108.708 51.8295 108.048 52.6097 108.348C53.3599 108.678 53.2999 109.849 52.4596 110.959C51.6194 112.069 50.359 112.729 49.5788 112.429C48.8286 112.099 48.8886 110.929 49.7289 109.819ZM48.5286 114.86C49.5488 114.89 50.239 116.12 50.059 117.591C49.9089 119.061 48.9487 120.231 47.9584 120.201C46.9381 120.171 46.248 118.941 46.428 117.471C46.578 116 47.5383 114.83 48.5286 114.86ZM49.8789 129.264C48.7086 129.474 47.3583 128.244 46.8481 126.563C46.368 124.853 46.9081 123.322 48.0784 123.112C49.2487 122.902 50.5991 124.132 51.1093 125.813C51.5894 127.523 51.0492 129.054 49.8789 129.264ZM56.0306 138.086C54.8303 138.596 52.9398 137.606 51.7994 135.896C50.6591 134.185 50.6892 132.385 51.8595 131.905C53.0598 131.394 54.9503 132.385 56.0906 134.095C57.2309 135.806 57.2009 137.606 56.0306 138.086ZM57.1409 129.324C57.8011 128.814 59.1214 129.414 60.0817 130.704C61.0419 131.995 61.2821 133.405 60.5919 133.915C59.9017 134.425 58.6113 133.825 57.651 132.535C56.6908 131.274 56.4507 129.834 57.1409 129.324ZM64.703 146.368C63.4726 147.089 61.162 146.248 59.5416 144.508C57.9211 142.768 57.591 140.787 58.8214 140.067C60.0517 139.347 62.3623 140.187 63.9828 141.927C65.6032 143.668 65.9333 145.648 64.703 146.368ZM64.5229 138.866C63.1726 137.726 62.5724 136.226 63.1726 135.506C63.7727 134.785 65.3631 135.115 66.7135 136.256C68.0639 137.396 68.664 138.896 68.0639 139.617C67.4637 140.337 65.8733 140.007 64.5229 138.866ZM74.4556 154.291C73.1953 155.041 70.7646 154.201 69.0241 152.43C67.2837 150.63 66.8935 148.589 68.1539 147.839C69.4142 147.089 71.8449 147.929 73.5854 149.699C75.3258 151.5 75.716 153.54 74.4556 154.291ZM76.2561 144.478C75.6859 145.348 73.8555 145.198 72.205 144.088C70.5546 143.008 69.6843 141.387 70.2544 140.517C70.8246 139.647 72.6551 139.797 74.3056 140.907C75.956 142.017 76.8262 143.608 76.2561 144.478ZM77.0363 162.213C75.836 159.392 76.5862 156.721 78.7168 156.241C80.8474 155.761 83.5181 157.652 84.7184 160.502C85.9187 163.353 85.1685 165.994 83.038 166.474C80.9074 166.954 78.2366 165.064 77.0363 162.213ZM88.2593 186.789C85.0485 186.519 82.1077 182.588 81.6876 178.057C81.2675 173.526 83.5181 170.075 86.7589 170.345C89.9998 170.615 92.9106 174.546 93.3307 179.077C93.7508 183.609 91.5002 187.06 88.2593 186.789ZM93.7508 157.021C92.8806 157.952 90.7801 157.381 89.0396 155.731C87.2991 154.111 86.6089 152.04 87.4791 151.11C88.3494 150.18 90.45 150.75 92.1905 152.4C93.9309 154.021 94.6211 156.091 93.7508 157.021ZM100.923 173.286C98.8822 173.616 96.2716 171.245 95.1012 167.974C93.9309 164.703 94.6511 161.763 96.6917 161.433C98.7322 161.102 101.343 163.473 102.513 166.744C103.684 170.015 102.963 172.956 100.893 173.286H100.923ZM194.638 99.1656C193.348 103.337 190.107 106.458 187.406 106.188C184.706 105.917 183.535 102.316 184.826 98.1454C186.116 93.9742 189.357 90.8534 192.058 91.1235C194.758 91.3935 195.929 94.9945 194.638 99.1656ZM198.929 77.2897C198.959 81.0407 196.979 84.3116 194.488 84.6117C191.998 84.9118 189.927 82.121 189.897 78.37C189.867 74.619 191.848 71.3481 194.338 71.048C196.829 70.7479 198.899 73.5387 198.929 77.2897ZM188.427 54.6935C190.437 54.0033 193.078 55.8038 194.278 58.6846C195.509 61.5654 194.848 64.4762 192.838 65.1364C190.827 65.8266 188.187 64.0261 186.986 61.1453C185.756 58.2645 186.416 55.3537 188.427 54.6935ZM176.243 44.0106C177.564 42.9003 180.564 43.4405 182.935 45.211C185.306 46.9814 186.116 49.3221 184.796 50.4024C183.475 51.4827 180.474 50.9725 178.104 49.202C175.733 47.4316 174.923 45.0909 176.243 44.0106ZM183.895 77.2597C183.895 80.0804 182.665 82.3611 181.165 82.3611C179.664 82.3611 178.434 80.0804 178.434 77.2597C178.434 74.4389 179.664 72.1583 181.165 72.1583C182.665 72.1583 183.895 74.4389 183.895 77.2597ZM174.233 62.1956C173.182 60.005 173.272 57.7544 174.443 57.2142C175.613 56.6441 177.414 57.9944 178.464 60.185C179.514 62.3756 179.424 64.6262 178.254 65.1664C177.084 65.7065 175.283 64.3862 174.233 62.1956ZM174.653 93.7042C175.823 90.5533 178.134 88.5127 179.784 89.1429C181.435 89.7731 181.855 92.8039 180.685 95.9548C179.514 99.1056 177.204 101.146 175.553 100.516C173.903 99.8858 173.483 96.855 174.653 93.7042ZM164.69 108.948C166.731 105.827 169.732 104.177 171.412 105.287C173.092 106.398 172.762 109.789 170.692 112.909C168.621 116.03 165.65 117.681 163.97 116.57C162.32 115.49 162.62 112.069 164.66 108.948H164.69ZM152.207 122.962C154.908 119.751 158.448 118.311 160.159 119.751C161.869 121.192 161.059 124.943 158.388 128.154C155.688 131.364 152.147 132.805 150.436 131.364C148.726 129.924 149.536 126.173 152.207 122.962ZM137.443 137.576C140.294 134.275 144.045 132.865 145.785 134.365C147.526 135.896 146.625 139.797 143.774 143.068C140.924 146.368 137.173 147.779 135.432 146.278C133.692 144.748 134.592 140.847 137.443 137.576ZM123.009 157.081C125.529 152.73 129.431 150.27 131.741 151.62C134.052 152.97 133.902 157.562 131.381 161.913C128.86 166.264 124.959 168.725 122.649 167.374C120.338 166.024 120.488 161.433 123.009 157.081ZM123.309 189.07C120.968 194.922 116.167 198.523 112.566 197.082C108.965 195.642 107.945 189.73 110.285 183.879C112.626 178.027 117.427 174.426 121.028 175.867C124.629 177.307 125.65 183.219 123.309 189.07ZM153.737 206.655C152.897 217.608 146.055 226.76 138.433 227.06C130.811 227.361 125.319 218.748 126.16 207.765C127 196.812 133.842 187.66 141.464 187.36C149.086 187.06 154.577 195.672 153.737 206.655ZM158.899 168.244C157.158 174.486 152.027 179.197 147.465 178.777C142.904 178.357 140.594 172.956 142.334 166.714C144.075 160.472 149.206 155.761 153.767 156.181C158.328 156.601 160.639 162.003 158.899 168.244ZM169.852 143.068C167.421 147.719 163.01 150.9 160.009 150.15C157.008 149.399 156.528 144.988 158.959 140.337C161.389 135.686 165.8 132.505 168.801 133.255C171.802 134.005 172.282 138.416 169.852 143.068ZM174.893 128.154C171.982 127.463 171.442 123.262 173.663 118.761C175.883 114.26 180.054 111.139 182.965 111.829C185.876 112.519 186.416 116.72 184.195 121.222C181.975 125.723 177.804 128.844 174.893 128.154ZM244.752 146.789C243.131 148.409 241.091 149.009 240.251 148.169C239.38 147.299 240.011 145.288 241.631 143.668C243.252 142.047 245.292 141.447 246.132 142.287C247.003 143.158 246.372 145.168 244.752 146.789ZM267.618 136.526C267.618 137.426 266.238 138.116 264.557 138.086C262.877 138.056 261.526 137.306 261.556 136.436C261.556 135.536 262.937 134.845 264.617 134.875C266.298 134.875 267.648 135.656 267.618 136.526ZM261.046 124.553C263.207 124.493 265.067 125.633 265.217 127.073C265.368 128.514 263.747 129.744 261.587 129.804C259.426 129.864 257.565 128.724 257.415 127.283C257.265 125.843 258.886 124.613 261.046 124.553ZM256.365 136.586C256.785 137.516 255.705 138.926 253.934 139.737C252.164 140.547 250.393 140.427 249.973 139.497C249.553 138.566 250.634 137.156 252.404 136.346C254.174 135.536 255.945 135.656 256.365 136.586ZM248.113 126.953C250.454 125.903 252.794 126.413 253.334 128.033C253.874 129.684 252.374 131.845 250.033 132.895C247.693 133.945 245.352 133.435 244.812 131.815C244.272 130.164 245.772 128.003 248.113 126.953ZM235.659 135.866C237.88 133.885 240.461 133.585 241.421 135.175C242.381 136.766 241.331 139.707 239.08 141.687C236.83 143.668 234.279 143.968 233.319 142.377C232.389 140.757 233.409 137.846 235.659 135.866ZM233.889 154.711C235.239 152.55 237.28 151.38 238.45 152.1C239.591 152.82 239.441 155.161 238.06 157.321C236.71 159.482 234.669 160.652 233.499 159.932C232.359 159.212 232.509 156.871 233.889 154.711ZM232.599 163.263C233.979 163.923 234.099 166.564 232.839 169.145C231.608 171.725 229.478 173.316 228.097 172.656C226.717 171.995 226.597 169.355 227.857 166.774C229.088 164.193 231.218 162.603 232.599 163.263ZM224.827 148.649C227.017 145.978 229.808 145.108 231.038 146.759C232.299 148.379 231.548 151.86 229.358 154.531C227.167 157.201 224.376 158.072 223.146 156.421C221.916 154.771 222.636 151.32 224.827 148.649ZM215.314 163.833C217.535 160.982 220.415 160.022 221.736 161.703C223.056 163.383 222.336 167.014 220.115 169.865C217.895 172.716 215.014 173.676 213.694 171.995C212.373 170.345 213.093 166.684 215.314 163.833ZM201.54 210.466C197.219 213.947 191.848 214.457 189.537 211.576C187.226 208.695 188.817 203.534 193.138 200.053C197.459 196.572 202.831 196.062 205.141 198.943C207.482 201.824 205.861 206.985 201.54 210.466ZM210.152 188.59C207.212 191.921 203.371 192.791 201.6 190.51C199.8 188.26 200.76 183.729 203.701 180.398C206.642 177.067 210.483 176.197 212.253 178.477C214.054 180.728 213.093 185.259 210.152 188.59ZM219.845 197.082C217.835 199.903 215.014 201.313 213.513 200.233C212.013 199.153 212.433 196.032 214.444 193.211C216.454 190.39 219.275 188.98 220.775 190.06C222.276 191.141 221.856 194.262 219.845 197.082ZM223.086 186.249C221.646 185.589 221.466 182.858 222.696 180.128C223.926 177.397 226.117 175.746 227.557 176.377C228.998 177.037 229.178 179.768 227.947 182.498C226.717 185.229 224.526 186.88 223.086 186.249Z" fill="#507096"/>
<path d="M474.336 207.188C474.336 207.188 473.747 207.188 473.485 207.319C473.223 207.45 472.961 207.646 472.634 207.974C468.443 211.904 463.728 214.982 458.424 217.209C453.121 219.371 447.162 220.484 440.417 220.484C430.595 220.484 422.214 218.323 415.273 213.934C408.332 209.546 403.028 203.585 399.427 195.987C395.826 188.388 393.992 179.808 393.992 170.179C393.992 160.55 395.891 151.314 399.754 143.65C403.618 135.987 409.118 130.026 416.255 125.768C423.393 121.511 431.971 119.349 441.924 119.349C447.882 119.349 453.448 120.07 458.49 121.445C463.008 122.69 466.806 124.196 470.014 125.834L471.39 140.506C471.52 141.03 471.717 141.489 472.11 141.816C472.503 142.144 472.961 142.275 473.485 142.275H477.676V121.118C474.467 119.284 470.931 117.712 467.002 116.336C463.074 114.96 458.948 113.847 454.561 113.061C450.174 112.275 445.656 111.882 440.941 111.882C432.494 111.882 424.899 113.323 418.089 116.139C411.279 118.956 405.451 122.952 400.54 128.061C395.76 133.17 391.962 139.327 389.278 146.401C386.527 153.476 385.218 161.467 385.218 170.179C385.218 178.432 386.462 186.03 388.885 193.105C391.307 200.179 394.909 206.27 399.623 211.511C404.534 216.882 410.297 220.943 416.91 223.76C423.524 226.576 430.988 228.017 439.37 228.017C448.21 228.017 455.936 226.511 462.419 223.432C468.901 220.353 474.467 216.423 479.051 211.511L475.711 207.843C475.253 207.45 474.86 207.188 474.402 207.188H474.336Z" fill="#507096" stroke="#507096" stroke-width="2.8" stroke-linecap="round" stroke-linejoin="round"/>
<path d="M536.346 145.485C530.06 145.485 524.756 147.385 520.5 151.118C516.244 154.852 512.839 160.026 510.416 166.642L509.761 149.481C509.761 148.498 509.565 147.843 509.106 147.385C508.648 146.992 507.993 146.73 507.011 146.73H490.379V150.398C490.379 151.053 490.51 151.511 490.837 151.839C491.165 152.166 491.558 152.363 492.147 152.494L502.755 153.738V219.699L492.147 220.944C491.623 220.944 491.165 221.14 490.837 221.533C490.51 221.926 490.379 222.385 490.379 223.04V226.708H523.053V223.04C523.053 222.385 522.922 221.926 522.595 221.533C522.268 221.14 521.875 220.944 521.286 220.944L510.743 219.699V174.961C513.231 168.018 516.374 162.647 520.172 158.913C524.036 155.179 528.881 153.28 534.774 153.28C536.935 153.28 539.031 153.542 541.191 154.131C543.352 154.721 544.793 155.114 545.71 155.31C546.102 155.31 546.561 155.179 546.888 154.983C547.281 154.786 547.478 154.459 547.608 154L548.722 148.236C546.888 147.385 544.989 146.664 543.025 146.14C541.06 145.616 538.834 145.354 536.411 145.354L536.346 145.485Z" fill="#507096" stroke="#507096" stroke-width="2.8" stroke-linecap="round" stroke-linejoin="round"/>
<path d="M623.042 221.009L612.499 219.765V174.83C612.499 168.87 611.583 163.695 609.684 159.306C607.785 154.918 604.969 151.511 601.171 149.153C597.373 146.795 592.593 145.551 586.831 145.551C581.069 145.551 575.699 146.599 571.05 148.76C566.401 150.922 562.014 154.066 557.823 158.193L559.264 160.747C559.591 161.206 559.984 161.468 560.443 161.73C560.901 161.992 561.49 161.992 562.145 161.861C564.044 160.813 566.27 159.503 568.824 157.931C571.312 156.359 574.062 155.049 577.009 153.87C579.956 152.691 582.902 152.101 585.914 152.101C592.2 152.101 596.915 154.066 599.993 158.062C603.07 161.992 604.642 167.625 604.642 174.896V183.084C595.54 183.28 587.813 184.066 581.396 185.311C574.979 186.555 569.741 188.324 565.681 190.42C561.621 192.516 558.609 195.07 556.71 197.953C554.811 200.835 553.829 203.979 553.829 207.385C553.829 211.904 554.811 215.638 556.71 218.651C558.609 221.664 561.228 224.022 564.502 225.594C567.776 227.167 571.312 228.018 575.176 228.018C581.658 228.018 587.224 226.773 591.742 224.35C596.26 221.926 600.713 218.52 605.1 214.263L606.082 224.35C606.279 225.332 606.672 225.922 607.13 226.249C607.588 226.577 608.309 226.708 609.291 226.708H624.809V223.04C624.809 222.385 624.679 221.926 624.351 221.533C624.024 221.14 623.631 220.944 623.042 220.944V221.009ZM604.576 208.826C600.713 212.756 596.719 215.966 592.593 218.455C588.403 220.944 583.295 222.123 577.205 222.123C572.949 222.123 569.282 220.878 566.205 218.324C563.193 215.835 561.621 212.035 561.621 206.992C561.621 203.586 562.734 200.704 564.961 198.346C567.187 195.987 570.33 194.153 574.259 192.712C578.188 191.337 582.771 190.289 587.944 189.568C593.117 188.848 598.617 188.455 604.511 188.193V208.695L604.576 208.826Z" fill="#507096" stroke="#507096" stroke-width="2.8" stroke-linecap="round" stroke-linejoin="round"/>
<path d="M712.749 221.008L700.57 219.567L699.784 219.436L669.794 186.554C668.616 184.982 667.306 183.737 665.8 182.886C666.455 182.558 666.979 182.165 667.502 181.707C667.961 181.248 668.485 180.724 669.009 180.2L696.445 153.999L708.1 152.624C708.624 152.493 709.082 152.296 709.475 151.969C709.868 151.641 710.065 151.183 710.065 150.528V146.86H680.075V150.528C680.075 151.183 680.206 151.641 680.533 151.969C680.86 152.296 681.253 152.493 681.843 152.624L687.867 153.344L661.02 179.218C660.3 179.938 659.579 180.462 658.859 180.659C658.139 180.855 657.419 180.986 656.567 180.986H652.9V109.917H632.536V113.585C632.536 114.24 632.667 114.698 632.994 115.026C633.322 115.353 633.715 115.55 634.304 115.681L644.912 116.925V219.698L634.304 220.943C633.78 220.943 633.322 221.139 632.994 221.532C632.667 221.925 632.536 222.384 632.536 223.039V226.707H665.211V223.039C665.211 222.384 665.08 221.925 664.752 221.532C664.425 221.139 664.032 220.943 663.443 220.943L652.9 219.698V186.489H656.567C658.204 186.489 659.317 186.62 660.103 186.947C660.824 187.275 661.675 187.995 662.526 189.043L695.724 224.807C696.379 225.462 696.968 225.921 697.492 226.248C698.016 226.576 698.671 226.707 699.391 226.707H714.583V223.039C714.583 222.384 714.452 221.925 714.124 221.532C713.797 221.139 713.404 220.943 712.815 220.943L712.749 221.008Z" fill="#507096" stroke="#507096" stroke-width="2.8" stroke-linecap="round" stroke-linejoin="round"/>
<path d="M773.777 149.808C769.062 146.926 763.562 145.485 757.276 145.485C749.811 145.485 743.394 147.188 737.959 150.595C732.59 154.001 728.399 158.717 725.518 164.677C722.637 170.638 721.196 177.45 721.196 185.049C721.196 193.695 722.637 201.228 725.583 207.647C728.53 214.066 732.721 218.979 738.221 222.45C743.721 225.922 750.269 227.691 757.865 227.691C761.467 227.691 765.264 227.232 769.128 226.25C773.056 225.267 776.592 223.957 779.801 222.254C783.009 220.551 785.498 218.586 787.331 216.293L785.236 213.542C784.712 213.018 783.992 212.822 783.14 212.887C782.158 213.215 780.456 214.066 777.902 215.442C775.414 216.817 772.467 218.127 769.062 219.372C765.657 220.616 762.121 221.206 758.258 221.206C749.287 221.206 742.215 218.193 737.108 212.101C732 206.009 729.316 197.625 729.119 186.948V183.739H786.48C787.331 183.739 787.92 183.542 788.248 183.084C788.575 182.691 788.706 181.774 788.706 180.529C788.706 173.258 787.397 167.036 784.712 161.861C782.027 156.686 778.36 152.625 773.646 149.743L773.777 149.808ZM729.578 178.695C730.56 170.376 733.376 163.76 738.156 158.913C742.936 154.066 749.353 151.643 757.472 151.643C764.806 151.643 770.699 154.132 775.021 159.044C779.343 163.957 781.503 170.507 781.503 178.76H729.578V178.695Z" fill="#507096" stroke="#507096" stroke-width="2.8" stroke-linecap="round" stroke-linejoin="round"/>
<path d="M886.73 221.533C886.402 221.14 886.009 220.944 885.42 220.944L874.812 219.699V175.616C874.812 169.525 873.83 164.219 871.866 159.699C869.901 155.18 866.955 151.642 863.026 149.219C859.097 146.73 854.186 145.551 848.227 145.551C842.269 145.551 837.03 146.992 832.185 149.808C827.405 152.625 823.149 156.359 819.547 160.944L818.761 149.088C818.565 147.581 817.714 146.861 816.339 146.861H799.51V150.529C799.51 151.184 799.641 151.642 799.969 151.97C800.296 152.298 800.689 152.494 801.278 152.625L811.886 153.87V219.83L801.278 221.075C800.754 221.075 800.296 221.271 799.969 221.664C799.641 222.057 799.51 222.516 799.51 223.171V226.839H832.185V223.171C832.185 222.516 832.054 222.057 831.726 221.664C831.399 221.271 831.006 221.075 830.417 221.075L819.875 219.83V167.101C823.41 162.385 827.405 158.717 831.792 156.097C836.245 153.477 841.025 152.167 846.132 152.167C853.204 152.167 858.377 154.197 861.782 158.324C865.121 162.45 866.824 168.215 866.824 175.682V226.839H887.188V223.171C887.188 222.516 887.057 222.057 886.73 221.664V221.533Z" fill="#507096" stroke="#507096" stroke-width="2.8" stroke-linecap="round" stroke-linejoin="round"/>
<path d="M416.55 283L424.24 261.862H426.906V265.363H425.983L420.007 283H416.55ZM420.285 277.287L421.237 274.65H430.788L431.74 277.287H420.285ZM432.019 283L426.057 265.363V261.862H427.8L435.476 283H432.019ZM437.805 283V261.862H440.837L453.845 280.539L450.373 277.463H451.794V261.862H455.061V283H452.028L439.021 264.294L442.492 267.355H441.071V283H437.805ZM465.021 283V261.862H468.303V283H465.021ZM472.199 283V261.862H475.231L488.239 280.539L484.768 277.463H486.188V261.862H489.455V283H486.423L473.415 264.294L476.887 267.355H475.466V283H472.199ZM498.581 283V264.704H492.121V261.862H508.337V264.704H501.877V283H498.581ZM511.018 283V261.862H524.436V264.704H514.299V270.856H523.894V273.61H514.299V280.158H524.436V283H511.018ZM527.834 283V261.862H531.115V280.158H540.974V283H527.834ZM543.771 283V261.862H547.053V280.158H556.911V283H543.771ZM559.709 283V261.862H562.99V283H559.709ZM575.983 283.352C574.47 283.352 573.103 283.098 571.882 282.59C570.671 282.082 569.636 281.35 568.776 280.393C567.927 279.436 567.272 278.278 566.813 276.921C566.354 275.563 566.125 274.035 566.125 272.336V272.321C566.125 270.095 566.525 268.176 567.326 266.564C568.127 264.953 569.265 263.708 570.739 262.829C572.214 261.95 573.952 261.511 575.954 261.511C577.595 261.511 579.03 261.804 580.261 262.39C581.491 262.966 582.497 263.757 583.278 264.763C584.06 265.769 584.597 266.911 584.89 268.19L584.948 268.439H581.564L581.506 268.278C581.066 267.058 580.373 266.11 579.426 265.437C578.488 264.763 577.331 264.426 575.954 264.426C574.616 264.426 573.459 264.738 572.482 265.363C571.516 265.988 570.773 266.892 570.256 268.073C569.738 269.245 569.479 270.656 569.479 272.307V272.321C569.479 273.581 569.631 274.714 569.934 275.72C570.236 276.716 570.671 277.565 571.237 278.269C571.813 278.972 572.502 279.509 573.303 279.88C574.104 280.251 575.007 280.437 576.013 280.437C577.155 280.437 578.161 280.212 579.03 279.763C579.909 279.313 580.593 278.688 581.081 277.888C581.579 277.077 581.833 276.14 581.843 275.075V274.724H576.306V272.043H585.095V274.211C585.095 275.637 584.89 276.916 584.479 278.049C584.069 279.182 583.469 280.144 582.678 280.935C581.896 281.726 580.939 282.326 579.807 282.736C578.684 283.146 577.409 283.352 575.983 283.352ZM588.303 283V261.862H601.721V264.704H591.584V270.856H601.179V273.61H591.584V280.158H601.721V283H588.303ZM605.119 283V261.862H608.151L621.159 280.539L617.688 277.463H619.108V261.862H622.375V283H619.343L606.335 264.294L609.807 267.355H608.386V283H605.119ZM631.501 283V264.704H625.041V261.862H641.257V264.704H634.797V283H631.501ZM650.002 283V261.862H663.42V264.704H653.283V270.856H662.878V273.61H653.283V280.158H663.42V283H650.002ZM666.818 283V261.862H669.851L682.858 280.539L679.387 277.463H680.808V261.862H684.074V283H681.042L668.034 264.294L671.506 267.355H670.085V283H666.818ZM693.933 283L686.403 261.862H689.948L695.705 279.338H695.778L701.535 261.862H705.095L697.565 283H693.933ZM707.424 283V261.862H710.705V283H707.424ZM714.602 283V261.862H722.819C724.255 261.862 725.5 262.126 726.555 262.653C727.609 263.181 728.42 263.928 728.986 264.895C729.562 265.861 729.851 267.009 729.851 268.337V268.366C729.851 269.802 729.484 271.057 728.752 272.131C728.029 273.205 727.033 273.957 725.764 274.387L730.495 283H726.701L722.395 274.899C722.355 274.899 722.321 274.899 722.292 274.899C722.272 274.899 722.243 274.899 722.204 274.899H717.883V283H714.602ZM717.883 272.189H722.497C723.757 272.189 724.733 271.862 725.427 271.208C726.12 270.544 726.467 269.606 726.467 268.396V268.366C726.467 267.204 726.101 266.291 725.368 265.627C724.646 264.953 723.654 264.616 722.395 264.616H717.883V272.189ZM742.185 283.352C740.144 283.352 738.381 282.912 736.896 282.033C735.412 281.145 734.27 279.885 733.469 278.254C732.668 276.613 732.268 274.675 732.268 272.438V272.409C732.268 270.173 732.668 268.239 733.469 266.608C734.279 264.978 735.427 263.723 736.911 262.844C738.396 261.955 740.153 261.511 742.185 261.511C744.206 261.511 745.959 261.955 747.443 262.844C748.928 263.732 750.07 264.992 750.871 266.623C751.672 268.244 752.072 270.173 752.072 272.409V272.438C752.072 274.675 751.672 276.608 750.871 278.239C750.07 279.87 748.928 281.13 747.443 282.019C745.969 282.907 744.216 283.352 742.185 283.352ZM742.185 280.437C743.532 280.437 744.694 280.109 745.671 279.455C746.647 278.801 747.399 277.873 747.927 276.672C748.454 275.471 748.718 274.06 748.718 272.438V272.409C748.718 270.778 748.449 269.367 747.912 268.176C747.385 266.975 746.628 266.052 745.642 265.407C744.665 264.753 743.513 264.426 742.185 264.426C740.847 264.426 739.685 264.748 738.698 265.393C737.722 266.037 736.965 266.96 736.428 268.161C735.891 269.353 735.622 270.769 735.622 272.409V272.438C735.622 274.069 735.891 275.485 736.428 276.687C736.965 277.888 737.722 278.815 738.698 279.47C739.675 280.114 740.837 280.437 742.185 280.437ZM755.207 283V261.862H758.239L771.247 280.539L767.775 277.463H769.196V261.862H772.463V283H769.431L756.423 264.294L759.895 267.355H758.474V283H755.207ZM776.359 283V261.862H780.153L786.994 278.723H787.082L793.923 261.862H797.731V283H794.729V267.414H793.22L796.647 262.448L788.254 283H785.822L777.443 262.448L780.871 267.414H779.362V283H776.359ZM801.643 283V261.862H815.061V264.704H804.924V270.856H814.519V273.61H804.924V280.158H815.061V283H801.643ZM818.459 283V261.862H821.491L834.499 280.539L831.027 277.463H832.448V261.862H835.715V283H832.683L819.675 264.294L823.146 267.355H821.726V283H818.459ZM844.841 283V264.704H838.381V261.862H854.597V264.704H848.137V283H844.841Z" fill="#507096"/>
</svg>
