<svg width="40" height="40" viewBox="0 0 40 40" fill="none" xmlns="http://www.w3.org/2000/svg">
<rect width="40" height="40" rx="20" fill="#A69DB1"/>
<path d="M15.428 15.8001C15.428 17.0731 15.9096 18.2941 16.7669 19.1942C17.6242 20.0944 18.787 20.6002 19.9994 20.6002C21.2118 20.6002 22.3746 20.0944 23.2319 19.1942C24.0892 18.2941 24.5708 17.0731 24.5708 15.8001C24.5708 14.527 24.0892 13.3061 23.2319 12.4059C22.3746 11.5057 21.2118 11 19.9994 11C18.787 11 17.6242 11.5057 16.7669 12.4059C15.9096 13.3061 15.428 14.527 15.428 15.8001Z" stroke="white" stroke-width="1.5" stroke-linecap="round" stroke-linejoin="round"/>
<path d="M12 29.0002C12 26.7724 12.8429 24.6358 14.3431 23.0604C15.8434 21.4851 17.8783 20.6001 20 20.6001C22.1217 20.6001 24.1566 21.4851 25.6569 23.0604C27.1571 24.6358 28 26.7724 28 29.0002" stroke="white" stroke-width="1.5" stroke-linecap="round" stroke-linejoin="round"/>
</svg>
