<svg width="16" height="16" viewBox="0 0 16 16" fill="none" xmlns="http://www.w3.org/2000/svg">
<path d="M0 0H13C14.6569 0 16 1.34315 16 3V13C16 14.6569 14.6569 16 13 16H0V0Z" fill="#999999"/>
<path d="M5 13V12C5 11.4696 5.21071 10.9609 5.58579 10.5858C5.96086 10.2107 6.46957 10 7 10H9C9.53043 10 10.0391 10.2107 10.4142 10.5858C10.7893 10.9609 11 11.4696 11 12V13M6 6C6 6.53043 6.21071 7.03914 6.58579 7.41421C6.96086 7.78929 7.46957 8 8 8C8.53043 8 9.03914 7.78929 9.41421 7.41421C9.78929 7.03914 10 6.53043 10 6C10 5.46957 9.78929 4.96086 9.41421 4.58579C9.03914 4.21071 8.53043 4 8 4C7.46957 4 6.96086 4.21071 6.58579 4.58579C6.21071 4.96086 6 5.46957 6 6Z" stroke="white" stroke-linecap="round" stroke-linejoin="round"/>
</svg>
