<svg width="24" height="24" viewBox="0 0 24 24" fill="none" xmlns="http://www.w3.org/2000/svg">
<path d="M7 8.66667H17M10.75 11.3333V15.3333M13.25 11.3333V15.3333M7.625 8.66667L8.25 16.6667C8.25 17.0203 8.3817 17.3594 8.61612 17.6095C8.85054 17.8595 9.16848 18 9.5 18H14.5C14.8315 18 15.1495 17.8595 15.3839 17.6095C15.6183 17.3594 15.75 17.0203 15.75 16.6667L16.375 8.66667M10.125 8.66667V6.66667C10.125 6.48986 10.1908 6.32029 10.3081 6.19526C10.4253 6.07024 10.5842 6 10.75 6H13.25C13.4158 6 13.5747 6.07024 13.6919 6.19526C13.8092 6.32029 13.875 6.48986 13.875 6.66667V8.66667" stroke="#666666" stroke-width="1.5" stroke-linecap="round" stroke-linejoin="round"/>
</svg>
