<svg width="19" height="19" viewBox="0 0 19 19" fill="none" xmlns="http://www.w3.org/2000/svg">
<path d="M16.8884 15.9049C16.052 15.9049 15.3426 16.1654 14.4955 16.1654C13.8179 16.1871 13.0131 16.1111 12.6743 15.9157C12.1026 15.6552 12.4308 15.2318 12.9179 15.1232C13.2884 15.0798 13.6696 15.1015 14.0402 15.2101C14.5484 15.3295 15.1837 15.6009 15.6602 15.5032C16.4967 15.3295 16.0414 14.6999 15.4273 14.2114C14.7284 13.7011 14.0296 13.4732 13.0661 13.8097C12.2614 14.1462 11.139 14.3633 11.1179 13.4732C11.2661 11.8557 12.9073 10.3033 13.5743 8.79438C14.7602 6.34099 14.1461 2.82375 11.552 1.61877C9.38138 0.305232 4.83903 0.967429 4.54256 4.85376C4.37315 6.97062 6.61785 9.04406 8.54491 7.94763C9.05315 7.65453 9.4555 6.99233 9.33903 6.49297C9.28609 6.28671 8.80962 6.6341 8.51315 6.78608C7.90962 7.09003 6.90373 6.60153 6.70256 6.03703C6.07785 4.30012 8.03667 3.45338 9.07432 3.51851C10.3026 3.5945 11.3402 4.6258 11.1284 5.89591C10.8531 7.45913 9.38138 8.43614 8.40726 9.51085C7.52844 10.477 6.82962 11.5517 6.37432 12.3876C5.90844 13.2235 5.53785 14.3742 5.07197 14.3959C4.60609 14.4176 4.02373 13.4406 3.5155 13.6252C2.78491 13.8965 3.25079 15.894 2.42491 15.4055C2.12844 15.2318 1.81079 15.0473 1.4402 15.0907L1.31315 15.1341C1.09079 15.2535 0.86844 15.6009 0.561381 15.8289C0.264911 16.0568 -0.0739126 16.2957 0.0425579 16.4259C0.127264 16.5236 0.233146 16.643 0.540205 16.643C1.49315 16.643 2.30844 16.7516 3.21903 17.0773C6.10962 17.8589 8.97903 18.4994 12.039 17.5441C13.6484 16.9036 16.1367 17.3921 17.3861 17.2292C18.519 16.9579 18.0002 15.9374 16.9096 15.9266L16.8884 15.9049ZM7.97315 3.32311C7.6555 3.42081 7.36962 3.3991 7.32726 3.26883C7.28491 3.13857 7.51785 2.94316 7.8355 2.84546C8.15315 2.74776 8.43903 2.76947 8.48138 2.89974C8.52373 3.03001 8.29079 3.22541 7.97315 3.32311ZM9.85785 3.25798C9.52962 3.18199 9.29667 2.98659 9.33903 2.83461C9.38138 2.68263 9.66726 2.61749 9.9955 2.69348C10.3237 2.76947 10.5567 2.96487 10.5143 3.11685C10.472 3.26883 10.1861 3.33397 9.85785 3.25798ZM12.4308 6.25415C12.3461 6.68837 12.0814 6.99233 11.8273 6.94891C11.5731 6.89463 11.4355 6.50383 11.5202 6.08046C11.6049 5.65708 11.8696 5.34227 12.1237 5.38569C12.3779 5.43997 12.5155 5.83078 12.4308 6.25415ZM11.1179 4.33269C10.9379 4.01788 10.9379 3.68135 11.1179 3.57279C11.2979 3.46424 11.5943 3.62707 11.7743 3.94189C11.9543 4.2567 11.9543 4.59323 11.7743 4.70178C11.5943 4.81034 11.2979 4.64751 11.1179 4.33269ZM9.56138 14.6347C9.33903 15.7094 8.51315 16.4476 7.7402 16.2739C6.95668 16.1003 6.50138 15.0907 6.73432 14.0051C6.95668 12.9304 7.77197 12.1922 8.5555 12.3659C9.33903 12.5396 9.79432 13.5492 9.56138 14.6347ZM9.96373 10.9872C9.68844 11.4757 9.16962 11.6928 8.80962 11.4757C8.44962 11.2586 8.3755 10.6941 8.6402 10.2056C8.9155 9.71711 9.43432 9.5 9.79432 9.71711C10.1543 9.93422 10.2284 10.4987 9.96373 10.9872ZM10.4402 9.23946C10.1649 9.05491 10.1649 8.55555 10.4402 8.12133C10.7155 7.6871 11.1602 7.4917 11.4355 7.67624C11.7108 7.86079 11.7108 8.36015 11.4355 8.79438C11.1602 9.2286 10.7155 9.42401 10.4402 9.23946Z" fill="#507096"/>
</svg>
