<svg width="128" height="128" viewBox="0 0 128 128" fill="none" xmlns="http://www.w3.org/2000/svg">
<path d="M81.9093 120.21L81.4854 119.979C80.0852 119.414 78.3124 119.144 76.5396 118.874C75.5376 118.72 74.5741 118.579 73.752 118.373C70.2321 117.641 61.8436 115.406 58.5036 110.242C55.1636 105.077 51.1684 112.939 45.5675 109.728C40.8915 107.043 44.2572 102.611 41.5595 103.626C38.2195 104.731 31.6551 111.398 28.9831 112.528C26.2726 113.671 22.5986 114.686 18.9246 114.84L18.7576 114.866C17.0362 115.187 16.7536 115.907 16.8306 116.459C16.9334 117.23 17.5629 117.962 21.4424 118.091C22.1104 118.116 23.0867 118.116 23.986 118.013C26.7479 117.718 29.497 117.166 32.1947 116.626C35.7916 115.894 39.5041 115.149 43.191 115.072C49.6526 114.956 55.5618 116.857 61.7794 118.874C66.3012 120.339 70.9901 121.854 75.9615 122.548C76.8864 122.689 77.927 122.792 78.8134 122.818C79.1602 122.818 79.4814 122.818 79.764 122.818C80.3934 122.805 82.0378 122.754 82.4745 121.726C82.6929 121.199 82.4745 120.621 81.8836 120.223L81.9093 120.21Z" fill="#507096"/>
<path d="M127.912 99.9646C127.783 99.682 127.166 99.1039 127.166 99.1039L126.704 98.7185C124.186 96.7916 121.835 96.0594 118.392 95.3657C115.489 94.7748 112.368 95.5327 108.848 96.676C104.673 98.0248 99.8298 98.4102 99.0847 96.9843C98.815 96.4833 99.4059 95.8282 100.613 95.3015C102.784 94.3508 103.26 93.9912 105.7 92.4111C109.015 90.2529 102.527 85.9238 98.7636 87.1827C95.5263 88.2746 95.886 84.5107 96.1044 82.9435C96.1044 82.8664 96.1301 82.7893 96.1429 82.7122C96.2072 82.0956 96.1558 81.4019 96.4513 80.8367C96.888 79.9888 97.9157 79.5264 98.391 78.6528C98.6608 78.2032 98.8407 77.7151 98.9306 77.2012C99.0976 76.3919 98.8407 75.5184 99.0205 74.8761C99.2132 74.0668 100.241 73.5401 100.626 72.5381C101.359 71.2406 100.472 69.5834 101.577 68.6457C102.129 68.1447 102.669 67.5666 102.913 66.8344C103.247 65.9994 103.067 65.0231 103.44 64.4835C103.902 63.8155 104.801 63.61 105.328 62.9805C105.957 62.3896 106.086 61.439 106.715 60.8737C107.229 60.4113 108.257 60.5398 109.092 60.1287C109.798 59.8461 110.312 59.1267 111.083 59.0496C111.661 58.9982 112.406 59.5377 113.241 59.5506C113.935 59.6277 114.641 59.2937 115.322 59.4221C116.067 59.602 116.401 60.5398 117.249 61.0022C117.75 61.3234 118.547 61.4261 118.906 61.9143C119.382 62.8135 118.791 63.5072 120.024 64.4964C121.527 66.0122 120.075 66.8344 119.536 67.785C118.842 69.4421 119.163 70.4827 116.954 71.7159C114.192 72.8207 113.1 73.4758 112.278 75.5312C111.584 77.2526 110.711 80.5412 111.79 80.6183C112.65 80.6825 114.59 76.2891 118.187 75.9808C123.03 75.5698 125.856 69.789 126.293 67.9391C127.847 61.3491 126.575 57.0456 122.362 51.7787C119.227 47.8477 113.395 45.8823 108.501 46.3961C101.102 47.1412 94.5629 52.2797 90.3236 58.4458C87.9214 61.8372 85.1852 65.8838 83.2197 68.8512C80.5092 72.9363 79.353 76.2506 78.017 76.7131C76.9123 77.0985 77.2591 74.9146 78.8649 71.7801C81.8066 66.4618 85.7889 61.7087 88.8463 56.4675C94.4601 47.1412 95.976 35.1044 92.4818 24.8403C90.1952 18.0447 85.5706 12.1997 79.0576 8.83396C68.5237 3.38719 54.8297 2.56503 44.2959 14.255C37.5516 21.7572 37.6158 34.3079 45.3749 41.1806C52.3247 47.3467 61.7923 44.8032 65.4663 41.7715C69.0889 38.7912 70.8746 35.5283 70.7204 32.4067C70.6819 31.3533 70.5149 29.542 69.4101 29.3107C68.5623 29.118 67.3676 31.9314 66.7509 32.458C65.2865 34.1152 64.1303 34.963 60.8289 35.4384C54.4315 36.055 51.8622 32.2525 51.6567 27.9105C51.7081 23.0932 56.0244 23.4529 57.81 21.5388C58.7478 20.2542 59.5571 18.8797 62.4603 19.9587C64.5286 20.9864 65.5049 20.5753 66.9822 20.6653C67.8429 20.858 68.4723 21.8471 69.1917 22.3224C70.3222 23.1574 71.7738 23.0418 72.4546 23.9282C73.0327 24.7504 73.007 25.8808 73.5337 26.7543C74.0732 27.8591 75.2294 28.5271 75.512 29.3236C75.8845 30.3898 75.2294 31.5074 75.2808 32.6122C75.2423 33.961 76.0259 35.2585 75.7304 36.2091C75.3579 37.391 74.1632 38.136 73.7778 39.3307C73.2639 40.4098 73.5337 41.7201 72.9299 42.735C72.4418 43.5571 71.0416 43.904 70.1423 44.8546C69.3073 45.6125 68.8706 46.6659 68.5494 47.7193C67.9842 49.7618 65.2479 49.582 63.9633 51.3419C62.8714 52.4724 62.7815 54.1424 61.8309 54.8874C61.0858 55.5297 59.7755 55.7096 58.7992 56.4161C58.1825 56.8401 57.6302 57.3924 57.2063 58.0091C56.3327 59.1652 56.3327 60.8095 55.4849 61.9014C54.9068 62.6208 53.9562 62.9805 53.1726 63.443C51.297 64.4578 49.9225 66.8087 49.8582 68.8898C49.8839 69.7504 49.7812 70.5469 49.5371 71.2791C48.4066 73.7071 47.0835 74.1438 46.6595 73.3217C46.1842 72.4096 46.4283 71.7416 45.953 70.8681C45.619 70.123 44.45 68.4273 42.6387 67.3739C40.8274 66.3205 41.1999 66.3719 40.9558 65.4598C40.6475 64.5221 39.6969 63.6357 38.7078 63.443C38.2838 63.3402 37.8085 63.3017 37.4489 63.0576C36.9093 62.6722 36.6909 61.9271 36.1385 61.5289C35.8559 61.3105 35.5348 61.1307 35.2008 61.0279C34.6612 60.8352 34.0446 60.938 33.6207 60.7453C33.0812 60.5398 32.8114 59.7818 32.1691 59.4221C31.3469 58.8055 30.1265 59.2551 29.5998 58.4073C29.3044 57.9834 28.9704 57.5594 28.4822 57.3282C27.9427 57.0199 27.2618 57.0584 26.9278 56.7501C26.5168 56.3647 26.4526 55.7353 26.08 55.3242C25.7332 54.8361 25.0909 54.6691 24.7697 54.1809C24.4999 53.7827 24.6798 53.089 24.4871 52.4852C24.3586 51.9714 23.909 51.5603 23.9347 51.0207C23.9604 50.6225 24.3843 50.1601 24.4871 49.582C24.6027 49.1195 24.4357 48.6057 24.5899 48.1561C24.7825 47.6551 25.4505 47.5137 25.8488 46.9871C26.1185 46.6787 26.2598 46.1392 26.6324 45.9337C27.2875 45.6896 27.7885 45.741 28.585 44.9959C29.754 44.1095 30.3192 44.6234 30.9102 45.073C31.9764 45.7024 33.7492 45.7153 34.3786 47.077C34.6998 47.9377 34.7897 48.246 34.8539 49.1195C34.8796 49.5049 36.2028 51.1364 36.4854 48.0147C36.7552 45.0473 34.8154 42.1954 32.4645 40.6924C29.5228 38.8169 23.7163 38.727 19.6698 42.6322C17.1776 45.0473 15.7388 47.8991 15.6232 51.2905C15.4434 56.429 17.7685 61.6831 21.5839 65.1515C23.6778 67.1041 28.0712 70.4441 29.5099 72.9363C33.0298 78.9868 29.2787 83.483 27.0435 84.4978C26.9792 84.5235 26.9279 84.5492 26.8765 84.5878C26.2727 84.8318 25.6946 85.1401 25.1679 85.5898C23.0483 87.1441 22.3932 89.8932 23.3566 93.0277C23.4208 93.3874 23.5108 93.7728 23.6135 94.1582C23.8833 95.2244 24.1402 96.2392 23.7035 96.9201C23.4594 97.2541 22.573 97.4082 20.8902 96.8687L20.5433 96.7531C18.0897 95.9052 15.5462 95.0188 12.8485 95.7639C11.6024 96.0722 10.3049 96.5218 9.05885 96.9586C7.58154 97.4725 6.03999 98.012 4.54984 98.2946L3.93323 98.4616C1.38969 99.1168 0.0536879 99.5022 0.00230325 100.44C-0.0490814 101.185 0.773061 101.493 1.09422 101.622C4.01029 102.444 7.10621 101.134 9.84245 99.9903C11.8336 99.1553 13.6578 98.3717 15.2892 98.4359C17.2033 98.4616 19.5541 99.4508 20.3249 101.172C21.2884 104.936 15.0451 107.492 10.4719 109.342C9.0203 109.933 7.77422 110.447 6.93922 110.91C5.92438 111.423 4.78106 112.014 5.16645 112.849C5.78306 114.147 10.716 112.348 10.7417 112.335C16.2784 110.177 29.7668 105.129 27.9684 95.0574C27.8528 94.505 27.6729 93.9141 27.4802 93.3232C26.8893 91.4091 27.1334 89.9703 27.8528 89.0197C28.4694 88.2232 29.1759 88.0434 29.6255 88.0048C30.4477 87.9149 31.0643 88.1333 31.6038 88.9555C32.5673 90.4328 34.1988 91.2935 36.0743 89.7262C37.1277 88.8527 42.9598 80.0916 42.9213 82.4425C42.8057 88.8013 34.1988 96.8173 33.3895 99.0397C33.1197 99.7462 31.4754 105.424 32.2076 105.861C32.8756 106.259 33.4922 105.514 33.7106 105.244C38.6692 99.9518 45.2465 93.2846 47.4046 94.7876C50.8859 97.1898 43.3709 104.332 49.3315 104.011C54.0589 103.754 55.4849 102.405 58.0027 103.921C60.482 105.758 60.5848 108.212 61.9979 110.653C63.4109 113.093 66.7766 112.618 66.1343 109.175C65.4792 105.733 67.3676 102.29 68.7678 103.793C69.7826 104.885 69.7312 105.257 70.4635 106.375C72.7886 110.37 77.0407 114.378 82.4233 116.035C86.2514 117.114 90.632 118.399 95.2437 118.54C101.397 118.72 106.086 117.204 111.25 114.648C113.087 113.736 113.986 113.016 113.614 112.194C112.984 110.794 108.257 112.438 107.923 112.554C107.91 112.554 107.91 112.554 107.91 112.554C96.3356 114.879 92.3277 102.418 89.9897 105.758C87.7416 108.97 86.7781 111.873 81.4598 110.524C77.4518 109.522 76.0259 106.696 75.6019 105.822C74.2531 103.022 73.1355 99.5407 73.1226 96.5732C73.097 86.2963 75.9616 87.7222 75.8717 90.7025C75.7818 93.6828 76.3213 98.5515 78.8263 98.9241C81.3313 99.2966 82.2049 94.9418 87.4718 92.9121C88.6408 92.4625 89.3345 91.7174 89.874 90.998C89.8997 90.9595 89.9511 90.9338 89.9768 90.9081C90.041 90.831 90.1181 90.7154 90.1823 90.5869C91.0687 89.3665 91.7239 88.4031 94.049 89.4565C97.4404 90.9851 101.603 88.6985 101.603 89.9189C101.603 91.1393 100.382 94.171 95.0639 94.2352C89.7456 94.2995 87.7159 94.3123 85.0824 97.4853C82.4361 100.658 83.3739 105.771 84.2731 106.568C84.5814 106.837 84.9925 106.863 85.3008 106.619L85.4678 106.426C86.0202 105.476 86.1744 104.345 86.3414 103.24C86.4698 102.367 86.5983 101.48 86.9323 100.645C87.4204 98.9883 89.0776 96.9201 90.4136 96.843C91.0173 96.8173 91.5312 97.2669 91.9037 98.1661C93.2397 102.315 95.8218 105.334 99.5729 107.146C108.912 111.667 116.453 107.993 120.255 106.246C121.527 105.655 123.017 104.705 124.25 103.947C125.329 103.086 122.863 102.161 117.236 102.816C114.975 103.073 113.678 105.81 112.085 106.285C107.203 107.749 101.525 105.232 99.2903 103.086C98.8278 102.637 98.7379 102.264 98.8278 102.046C99.0847 101.416 100.947 101.558 101.949 101.519C103.324 101.455 104.891 101.378 106.073 100.992C107.396 100.671 108.642 100.234 109.85 99.8105C112.573 98.8598 115.142 97.9735 118.071 98.6029C119.664 98.847 121.321 99.4251 122.927 99.9775C123.955 100.337 124.957 100.671 125.933 100.941C126.935 101.185 127.783 101.262 127.95 100.761C127.95 100.761 128.091 100.453 127.899 100.042L127.912 99.9646ZM114.86 74.1181C114.256 74.4393 113.755 75.1073 113.639 74.8889C113.524 74.6705 114.05 73.9126 114.654 73.5786C115.258 73.2574 115.695 73.0134 115.81 73.2318C115.926 73.4501 115.464 73.7841 114.847 74.1053L114.86 74.1181ZM118.238 72.7436C117.493 73.2446 116.735 73.0262 116.594 72.8207C116.453 72.6151 117.044 72.5638 117.789 72.0628C118.534 71.5618 119.073 70.6368 119.227 70.8552C119.382 71.0736 118.983 72.2554 118.238 72.7564V72.7436ZM121.219 69.121C120.872 69.8789 120.345 70.3671 120.037 70.2258C119.728 70.0844 119.741 69.3522 120.088 68.6071C120.435 67.8621 120.962 67.3611 121.27 67.5024C121.578 67.6437 121.566 68.3759 121.219 69.121ZM122.311 64.4064C122.645 64.4321 122.876 65.0102 122.812 65.6911C122.747 66.3719 122.426 66.8986 122.092 66.8729C121.758 66.8472 121.527 66.2691 121.591 65.5883C121.655 64.9074 121.977 64.3808 122.311 64.4064ZM121.437 63.944C121.103 64.1238 120.525 63.7128 120.14 63.0191C119.754 62.3254 119.703 61.606 120.024 61.4261C120.358 61.2463 120.936 61.6574 121.321 62.3511C121.707 63.0448 121.758 63.7641 121.437 63.944ZM119.356 57.5337C119.664 57.2768 120.294 57.7778 120.769 58.6385C121.244 59.4992 121.373 60.4113 121.065 60.6682C120.756 60.9251 120.127 60.4241 119.651 59.5634C119.176 58.7027 119.048 57.7907 119.356 57.5337ZM118.598 60.2571C118.38 60.5654 117.724 60.4755 117.146 60.0644C116.568 59.6405 116.273 59.0496 116.491 58.7413C116.71 58.433 117.365 58.5229 117.943 58.934C118.521 59.3579 118.816 59.9488 118.598 60.2571ZM116.735 54.3864C117.493 54.7975 118.007 55.5297 117.879 56.0307C117.75 56.5189 117.018 56.5831 116.26 56.1721C115.502 55.761 114.988 55.0287 115.117 54.5277C115.245 54.0396 115.977 53.9754 116.735 54.3864ZM57.4632 36.0164C58.645 36.1192 59.6085 36.2734 59.5828 36.5817C59.5571 36.89 58.5551 37.2111 57.3732 37.1212C56.1914 37.0184 54.9967 36.0036 55.0224 35.6953C55.0481 35.387 56.2942 35.9265 57.4632 36.0164ZM52.2605 32.4966C52.9413 33.6142 53.4295 34.5905 53.1083 34.7832C52.7872 34.9759 51.798 34.3079 51.1172 33.1903C50.4363 32.0727 50.6419 30.2742 50.9502 30.0815C51.2585 29.8888 51.5668 31.379 52.2605 32.4966ZM51.3869 25.4954C50.963 26.7415 50.6419 27.8077 50.295 27.6793C49.9482 27.5637 49.8197 26.369 50.2436 25.1229C50.6676 23.8768 52.1834 22.8877 52.5431 23.0161C52.8899 23.1317 51.8109 24.2493 51.3869 25.4954ZM56.5382 21.436C55.5619 22.1426 54.5343 22.3867 54.2388 21.9884C53.9433 21.5773 54.4957 20.6781 55.472 19.9716C56.4483 19.265 57.476 19.021 57.7715 19.4192C58.0669 19.8303 57.5146 20.7295 56.5382 21.436ZM60.1223 18.3273C58.8891 18.5713 57.8743 18.3787 57.8743 17.8777C57.8743 17.3767 58.8762 16.7729 60.1095 16.5288C61.3427 16.2847 62.3576 16.4774 62.3576 16.9784C62.3576 17.4794 61.3556 18.0832 60.1223 18.3273ZM64.657 19.8431C63.5009 19.7403 62.6016 19.2265 62.6402 18.6741C62.6916 18.1217 63.6679 17.762 64.824 17.8648C65.9802 17.9676 66.8794 18.4814 66.8409 19.0338C66.7895 19.5862 65.8132 19.9459 64.657 19.8431ZM67.3804 17.094C67.5346 16.5288 68.8192 16.1563 70.2451 16.259C71.671 16.3618 72.7116 16.9013 72.5574 17.4537C72.4033 18.019 71.1186 18.3915 69.6927 18.2887C68.2668 18.186 67.2263 17.6464 67.3804 17.094ZM72.6859 21.9756C72.4161 22.4637 71.4526 22.4252 70.5406 21.9113C69.6285 21.3975 69.1275 20.5882 69.3972 20.1C69.667 19.6119 70.6305 19.6504 71.5426 20.1643C72.4546 20.6781 72.9556 21.4874 72.6859 21.9756ZM31.7837 43.9939C32.3232 44.1866 32.6958 44.5206 32.6187 44.739C32.5416 44.9574 32.0406 44.9959 31.5011 44.8032C30.9615 44.6105 30.589 44.2765 30.6661 44.0581C30.7432 43.8397 31.2442 43.8012 31.7837 43.9939ZM27.2619 44.315C27.7757 44.1095 28.2639 44.1481 28.3666 44.3921C28.4565 44.6362 28.1225 44.9959 27.6087 45.2014C27.0948 45.407 26.6067 45.3684 26.5039 45.1244C26.414 44.8803 26.748 44.5206 27.2619 44.315ZM33.7106 61.8244C33.9675 61.4261 34.7769 61.4904 35.5219 61.9528C36.267 62.4281 36.6781 63.1347 36.4212 63.5329C36.1642 63.9311 35.3549 63.8669 34.6099 63.4044C33.8648 62.9291 33.4537 62.2226 33.7106 61.8244ZM25.2065 46.9357C24.8725 47.2954 24.4357 47.4367 24.243 47.2568C24.0503 47.077 24.1788 46.6402 24.5128 46.2805C24.8468 45.9208 25.2835 45.7795 25.4762 45.9594C25.6689 46.1392 25.5405 46.576 25.2065 46.9357ZM24.577 44.315C25.2193 44.071 25.8488 44.071 25.9901 44.315C26.1314 44.5463 25.7332 44.9317 25.1037 45.1757C24.4614 45.4198 23.8319 45.4198 23.6906 45.1757C23.5493 44.9445 23.9475 44.5591 24.577 44.315ZM23.0355 49.3251C23.1125 48.8369 23.3823 48.4772 23.6392 48.5157C23.8962 48.5543 24.0503 48.9782 23.9732 49.4792C23.8961 49.9674 23.6264 50.3271 23.3695 50.2885C23.1125 50.25 22.9584 49.8261 23.0355 49.3251ZM23.2025 51.8044C23.4979 51.7144 23.8576 52.087 24.0246 52.6394C24.1916 53.1917 24.0888 53.7056 23.7934 53.7955C23.4979 53.8854 23.1382 53.5129 22.9712 52.9605C22.8042 52.4081 22.907 51.8943 23.2025 51.8044ZM21.2884 46.6787C21.6481 46.2034 22.1876 45.9208 22.5216 46.0493C22.8428 46.1906 22.8171 46.6916 22.4574 47.1669C22.0977 47.6422 21.5581 47.9248 21.2241 47.7964C20.903 47.655 20.9287 47.1541 21.2884 46.6787ZM20.7745 48.8369C21.2113 48.8497 21.5068 49.3764 21.4297 50.0059C21.3655 50.6354 20.9544 51.1364 20.5305 51.1235C20.0937 51.1107 19.7982 50.584 19.8753 49.9545C19.9395 49.3251 20.3506 48.8241 20.7745 48.8369ZM21.3526 55.0031C20.8516 55.093 20.2735 54.5663 20.0552 53.8469C19.8496 53.1147 20.0808 52.4595 20.5818 52.3696C21.0828 52.2797 21.6609 52.8064 21.8793 53.5257C22.0849 54.258 21.8536 54.9131 21.3526 55.0031ZM23.9861 58.7798C23.4722 58.9982 22.6629 58.5743 22.1748 57.8421C21.6866 57.1098 21.6995 56.3391 22.2005 56.1335C22.7143 55.9151 23.5236 56.3391 24.0118 57.0713C24.4999 57.8035 24.4871 58.5743 23.9861 58.7798ZM24.4614 55.0287C24.744 54.8104 25.3092 55.0673 25.7203 55.6197C26.1314 56.1721 26.2342 56.7758 25.9387 56.9942C25.6432 57.2126 25.0908 56.9557 24.6798 56.4033C24.2687 55.8637 24.1659 55.2471 24.4614 55.0287ZM27.6986 62.3254C27.1719 62.6337 26.1828 62.274 25.4891 61.5289C24.7954 60.7838 24.6541 59.936 25.1808 59.6277C25.7075 59.3194 26.6966 59.6791 27.3903 60.4241C28.084 61.1692 28.2253 62.0171 27.6986 62.3254ZM27.6215 59.1138C27.0435 58.6257 26.7866 57.9834 27.0435 57.6751C27.3004 57.3668 27.9812 57.5081 28.5593 57.9962C29.1374 58.4844 29.3943 59.1267 29.1374 59.435C28.8805 59.7433 28.1996 59.602 27.6215 59.1138ZM31.8736 65.7168C31.3341 66.0379 30.2935 65.6782 29.5485 64.9203C28.8034 64.1495 28.6364 63.276 29.1759 62.9548C29.7155 62.6337 30.756 62.9934 31.5011 63.7513C32.2462 64.5221 32.4132 65.3956 31.8736 65.7168ZM32.6444 61.5161C32.4003 61.8886 31.6167 61.8244 30.9102 61.3491C30.2036 60.8866 29.8311 60.1929 30.0751 59.8204C30.3192 59.4478 31.1028 59.5121 31.8094 59.9874C32.5159 60.4627 32.8885 61.1435 32.6444 61.5161ZM32.9784 69.1081C32.4645 67.9006 32.7857 66.7573 33.6978 66.5518C34.6099 66.3462 35.7532 67.1555 36.267 68.3759C36.7809 69.5963 36.4597 70.7268 35.5476 70.9323C34.6355 71.1378 33.4922 70.3285 32.9784 69.1081ZM37.7828 79.6291C36.4083 79.5135 35.1494 77.8307 34.9696 75.8909C34.7897 73.9511 35.7532 72.4738 37.1405 72.5895C38.5279 72.7051 39.774 74.3879 39.9538 76.3277C40.1337 78.2675 39.1702 79.7448 37.7828 79.6291ZM40.1337 66.8858C39.7612 67.284 38.8619 67.0399 38.1169 66.3334C37.3718 65.6397 37.0763 64.7533 37.4489 64.3551C37.8214 63.9568 38.7206 64.2009 39.4657 64.9074C40.2108 65.6011 40.5062 66.4875 40.1337 66.8858ZM43.2039 73.8484C42.3304 73.9897 41.2128 72.9748 40.7118 71.5746C40.2108 70.1744 40.5191 68.9154 41.3926 68.7741C42.2662 68.6328 43.3838 69.6477 43.8848 71.0479C44.3858 72.4481 44.0775 73.7071 43.1911 73.8484H43.2039ZM83.3225 42.1184C82.7701 43.904 81.3827 45.24 80.2266 45.1244C79.0704 45.0087 78.5694 43.4672 79.1218 41.6816C79.6742 39.896 81.0616 38.56 82.2177 38.6756C83.3739 38.7912 83.8749 40.3327 83.3225 42.1184ZM85.1595 32.7535C85.1723 34.3593 84.3245 35.7595 83.2582 35.888C82.192 36.0164 81.3056 34.8217 81.2928 33.216C81.2799 31.6102 82.1278 30.21 83.194 30.0815C84.2603 29.953 85.1466 31.1477 85.1595 32.7535ZM80.6633 23.0803C81.524 22.7849 82.6545 23.5557 83.1683 24.7889C83.695 26.0221 83.4124 27.2682 82.5517 27.5508C81.691 27.8463 80.5605 27.0755 80.0467 25.8423C79.52 24.609 79.8026 23.363 80.6633 23.0803ZM75.4478 18.5071C76.013 18.0318 77.2977 18.263 78.3125 19.021C79.3273 19.7789 79.6742 20.7809 79.109 21.2433C78.5437 21.7058 77.2591 21.4874 76.2443 20.7295C75.2294 19.9716 74.8826 18.9696 75.4478 18.5071ZM78.7236 32.7407C78.7236 33.9482 78.1969 34.9245 77.5546 34.9245C76.9123 34.9245 76.3856 33.9482 76.3856 32.7407C76.3856 31.5331 76.9123 30.5568 77.5546 30.5568C78.1969 30.5568 78.7236 31.5331 78.7236 32.7407ZM74.5871 26.2919C74.1375 25.3541 74.176 24.3907 74.677 24.1594C75.178 23.9153 75.9488 24.4934 76.3984 25.4312C76.848 26.369 76.8095 27.3324 76.3085 27.5637C75.8075 27.7949 75.0367 27.2297 74.5871 26.2919ZM74.767 39.7804C75.268 38.4315 76.2571 37.558 76.9636 37.8277C77.6702 38.0975 77.85 39.395 77.349 40.7438C76.848 42.0927 75.8589 42.9662 75.1523 42.6964C74.4458 42.4267 74.2659 41.1292 74.767 39.7804ZM70.502 46.3062C71.3756 44.9702 72.6602 44.2637 73.3796 44.739C74.0989 45.2143 73.9576 46.6659 73.0712 48.0019C72.1849 49.3379 70.9131 50.0444 70.1937 49.5691C69.4872 49.1067 69.6156 47.6422 70.4892 46.3062H70.502ZM65.158 52.3054C66.3142 50.9308 67.83 50.3142 68.5623 50.9308C69.2945 51.5474 68.9476 53.1532 67.8043 54.5277C66.6482 55.9023 65.1323 56.5189 64.4001 55.9023C63.6679 55.2857 64.0147 53.6799 65.158 52.3054ZM58.8377 58.5614C60.0581 57.1484 61.6639 56.5446 62.409 57.1869C63.154 57.8421 62.7686 59.5121 61.5482 60.9123C60.3279 62.3254 58.7221 62.9291 57.977 62.2868C57.2319 61.6317 57.6173 59.9617 58.8377 58.5614ZM52.6587 66.9114C53.7378 65.0488 55.4078 63.9954 56.3969 64.5734C57.3861 65.1515 57.3219 67.117 56.2428 68.9797C55.1637 70.8424 53.4937 71.8958 52.5046 71.3177C51.5154 70.7396 51.5796 68.7741 52.6587 66.9114ZM52.7872 80.6055C51.7852 83.1105 49.7298 84.652 48.1882 84.0354C46.6467 83.4188 46.2099 80.8881 47.2119 78.3831C48.2139 75.8781 50.2693 74.3365 51.8109 74.9531C53.3524 75.5698 53.7892 78.1005 52.7872 80.6055ZM65.8132 88.1333C65.4535 92.8222 62.5246 96.7402 59.2616 96.8687C55.9987 96.9972 53.6479 93.3103 54.0076 88.6086C54.3672 83.9198 57.2962 80.0017 60.5591 79.8732C63.822 79.7448 66.1729 83.4316 65.8132 88.1333ZM68.0227 71.6902C67.2776 74.3622 65.0809 76.3791 63.1283 76.1992C61.1757 76.0194 60.1866 73.7071 60.9316 71.0351C61.6767 68.3631 63.8734 66.3462 65.826 66.5261C67.7786 66.7059 68.7678 69.0182 68.0227 71.6902ZM72.7116 60.9123C71.671 62.9034 69.7826 64.2651 68.498 63.944C67.2134 63.6228 67.0079 61.7344 68.0484 59.7433C69.089 57.7521 70.9773 56.3904 72.262 56.7116C73.5466 57.0327 73.7521 58.9211 72.7116 60.9123ZM74.8697 54.5277C73.6236 54.2323 73.3924 52.4338 74.343 50.5069C75.2936 48.58 77.0792 47.244 78.3253 47.5394C79.5714 47.8349 79.8026 49.6334 78.852 51.5603C77.9014 53.4872 76.1158 54.8232 74.8697 54.5277ZM104.776 62.5052C104.082 63.1989 103.208 63.4558 102.849 63.0961C102.476 62.7236 102.746 61.8629 103.44 61.1692C104.133 60.4755 105.007 60.2186 105.367 60.5783C105.739 60.9508 105.469 61.8115 104.776 62.5052ZM114.564 58.1118C114.564 58.4972 113.973 58.7927 113.254 58.7798C112.535 58.767 111.957 58.4458 111.969 58.0733C111.969 57.6879 112.56 57.3924 113.28 57.4053C113.999 57.4053 114.577 57.7393 114.564 58.1118ZM111.751 52.9862C112.676 52.9605 113.472 53.4487 113.537 54.0653C113.601 54.6819 112.907 55.2086 111.982 55.2343C111.057 55.26 110.261 54.7718 110.197 54.1552C110.132 53.5386 110.826 53.0119 111.751 52.9862ZM109.747 58.1375C109.927 58.5358 109.464 59.1395 108.707 59.4864C107.949 59.8332 107.191 59.7818 107.011 59.3836C106.831 58.9854 107.293 58.3816 108.051 58.0347C108.809 57.6879 109.567 57.7393 109.747 58.1375ZM106.214 54.0139C107.216 53.5643 108.218 53.7827 108.45 54.4764C108.681 55.1829 108.038 56.1078 107.036 56.5574C106.034 57.0071 105.033 56.7887 104.801 56.095C104.57 55.3884 105.212 54.4635 106.214 54.0139ZM100.883 57.8292C101.834 56.9814 102.939 56.8529 103.35 57.5337C103.761 58.2146 103.311 59.4735 102.348 60.3214C101.384 61.1692 100.292 61.2977 99.8812 60.6168C99.4829 59.9231 99.9197 58.6771 100.883 57.8292ZM100.125 65.8966C100.703 64.9717 101.577 64.4707 102.078 64.779C102.566 65.0873 102.502 66.0893 101.911 67.0142C101.333 67.9391 100.459 68.4401 99.9583 68.1318C99.4701 67.8235 99.5343 66.8215 100.125 65.8966ZM99.5729 69.5578C100.164 69.8404 100.215 70.9708 99.6756 72.0756C99.1489 73.1804 98.2369 73.8612 97.646 73.5786C97.055 73.296 97.0037 72.1655 97.5432 71.0608C98.0699 69.956 98.982 69.2751 99.5729 69.5578ZM96.2457 63.3017C97.1835 62.1584 98.3782 61.7858 98.9049 62.4924C99.4444 63.1861 99.1233 64.6762 98.1855 65.8195C97.2477 66.9628 96.053 67.3354 95.5263 66.6288C94.9997 65.9223 95.308 64.445 96.2457 63.3017ZM92.1735 69.8018C93.1241 68.5814 94.3573 68.1704 94.9226 68.8898C95.4878 69.6091 95.1795 71.1635 94.2289 72.3839C93.2783 73.6043 92.045 74.0154 91.4798 73.296C90.9146 72.5894 91.2229 71.0222 92.1735 69.8018ZM86.2771 89.7648C84.4273 91.2549 82.1278 91.4733 81.1386 90.2401C80.1495 89.0068 80.8303 86.7973 82.6802 85.3071C84.53 83.817 86.8295 83.5986 87.8187 84.8318C88.8207 86.0651 88.1269 88.2746 86.2771 89.7648ZM89.9639 80.3999C88.705 81.8258 87.0607 82.1984 86.3028 81.2221C85.532 80.2586 85.9431 78.3188 87.202 76.8929C88.4609 75.467 90.1053 75.0945 90.8632 76.0708C91.634 77.0342 91.2229 78.974 89.9639 80.3999ZM94.1133 84.0354C93.2526 85.2429 92.0451 85.8467 91.4027 85.3842C90.7604 84.9218 90.9403 83.5858 91.801 82.3782C92.6617 81.1707 93.8692 80.5669 94.5115 81.0294C95.1538 81.4918 94.974 82.8278 94.1133 84.0354ZM95.5006 79.3979C94.884 79.1153 94.807 77.9463 95.3337 76.7773C95.8604 75.6083 96.7981 74.9018 97.4147 75.1715C98.0314 75.4541 98.1084 76.6231 97.5817 77.7921C97.0551 78.9611 96.1172 79.6677 95.5006 79.3979Z" fill="#507096"/>
</svg>
