<svg width="30" height="30" viewBox="0 0 30 30" fill="none" xmlns="http://www.w3.org/2000/svg">
<path d="M12.4335 13.9887L17.5668 11.3443M12.4335 16.011L17.5668 18.6554M8 15C8 15.6188 8.24583 16.2123 8.68342 16.6499C9.121 17.0875 9.71449 17.3333 10.3333 17.3333C10.9522 17.3333 11.5457 17.0875 11.9832 16.6499C12.4208 16.2123 12.6667 15.6188 12.6667 15C12.6667 14.3812 12.4208 13.7877 11.9832 13.3501C11.5457 12.9125 10.9522 12.6667 10.3333 12.6667C9.71449 12.6667 9.121 12.9125 8.68342 13.3501C8.24583 13.7877 8 14.3812 8 15ZM17.3333 10.3333C17.3333 10.9522 17.5792 11.5457 18.0168 11.9832C18.4543 12.4208 19.0478 12.6667 19.6667 12.6667C20.2855 12.6667 20.879 12.4208 21.3166 11.9832C21.7542 11.5457 22 10.9522 22 10.3333C22 9.71449 21.7542 9.121 21.3166 8.68342C20.879 8.24583 20.2855 8 19.6667 8C19.0478 8 18.4543 8.24583 18.0168 8.68342C17.5792 9.121 17.3333 9.71449 17.3333 10.3333ZM17.3333 19.6667C17.3333 20.2855 17.5792 20.879 18.0168 21.3166C18.4543 21.7542 19.0478 22 19.6667 22C20.2855 22 20.879 21.7542 21.3166 21.3166C21.7542 20.879 22 20.2855 22 19.6667C22 19.0478 21.7542 18.4543 21.3166 18.0168C20.879 17.5792 20.2855 17.3333 19.6667 17.3333C19.0478 17.3333 18.4543 17.5792 18.0168 18.0168C17.5792 18.4543 17.3333 19.0478 17.3333 19.6667Z" stroke="#507096" stroke-width="1.5" stroke-linecap="round" stroke-linejoin="round"/>
</svg>
