<svg width="30" height="30" viewBox="0 0 30 30" fill="none" xmlns="http://www.w3.org/2000/svg">
<path d="M15 18.5C15.8284 18.5 16.5 19.1716 16.5 20C16.5 20.8284 15.8284 21.5 15 21.5C14.1716 21.5 13.5 20.8284 13.5 20C13.5 19.1716 14.1716 18.5 15 18.5ZM15 13.5C15.8284 13.5 16.5 14.1716 16.5 15C16.5 15.8284 15.8284 16.5 15 16.5C14.1716 16.5 13.5 15.8284 13.5 15C13.5 14.1716 14.1716 13.5 15 13.5ZM15 8.5C15.8284 8.5 16.5 9.17157 16.5 10C16.5 10.8284 15.8284 11.5 15 11.5C14.1716 11.5 13.5 10.8284 13.5 10C13.5 9.17157 14.1716 8.5 15 8.5Z" fill="#999999"/>
</svg>
