<svg width="72" height="72" viewBox="0 0 72 72" fill="none" xmlns="http://www.w3.org/2000/svg">
<path d="M46.103 67.8595L45.8701 67.7324C45.0762 67.4148 44.0811 67.2666 43.086 67.1078C42.5144 67.0232 41.9851 66.9385 41.5193 66.822C39.5397 66.4092 34.8184 65.1494 32.9341 62.2489C31.0603 59.3483 28.8055 63.7627 25.6509 61.9631C23.015 60.4493 24.9099 57.9616 23.3961 58.5332C21.5224 59.1578 17.8173 62.9052 16.3246 63.5404C14.8003 64.1861 12.7254 64.7578 10.6611 64.8425H10.5659C9.59196 65.033 9.44376 65.4459 9.47552 65.7528C9.52845 66.1869 9.88837 66.5997 12.0691 66.6632C12.4396 66.6738 13.0006 66.6738 13.5088 66.6209C15.0649 66.4621 16.6105 66.1445 18.1349 65.8375C20.1568 65.4247 22.2422 65.0118 24.3171 64.9695C27.9586 64.906 31.272 65.9751 34.776 67.1078C37.3272 67.9336 39.9526 68.7804 42.7578 69.1721C43.2766 69.2568 43.8588 69.3097 44.3669 69.3203C44.5574 69.3203 44.7374 69.3203 44.9068 69.3203C45.2561 69.3203 46.1877 69.278 46.4312 68.7063C46.5582 68.4099 46.4312 68.0923 46.103 67.8595Z" fill="#507096"/>
<path d="M71.9854 56.4691C71.9113 56.3103 71.5619 55.9821 71.5619 55.9821L71.3079 55.7704C69.8894 54.6906 68.5661 54.2778 66.6289 53.8861C64.988 53.5474 63.2308 53.9814 61.2618 54.6165C58.9117 55.3787 56.1911 55.5905 55.7677 54.7859C55.6194 54.5001 55.9476 54.1402 56.6251 53.8438C57.8425 53.3145 58.1177 53.1133 59.4939 52.2135C61.3571 50.9961 57.7049 48.5614 55.5983 49.2706C53.7775 49.8846 53.9786 47.7674 54.1057 46.8888H54.0951C54.0951 46.8888 54.1162 46.7935 54.1268 46.7512C54.1586 46.4018 54.1374 46.0101 54.2962 45.6926C54.5503 45.2162 55.1219 44.9515 55.3866 44.4646C55.5348 44.2105 55.6406 43.9353 55.6936 43.6495C55.7888 43.1943 55.6406 42.7073 55.7465 42.3368C55.8523 41.8816 56.4346 41.5852 56.6569 41.0136C57.0697 40.2831 56.5722 39.3516 57.1968 38.8223C57.5143 38.5364 57.8107 38.2189 57.9484 37.806C58.1389 37.3296 58.0331 36.7898 58.2448 36.4828C58.5094 36.1017 59.007 35.9852 59.3034 35.6359C59.6633 35.3077 59.7268 34.7678 60.0867 34.4503C60.3726 34.1962 60.9548 34.2597 61.4206 34.0268C61.8122 33.868 62.1087 33.4658 62.5427 33.4234C62.8709 33.3917 63.2837 33.6986 63.7601 33.7092C64.1517 33.7516 64.5434 33.561 64.9245 33.6351C65.348 33.7304 65.5385 34.2597 66.0149 34.5244C66.3007 34.7043 66.7453 34.7678 66.9464 35.0325C67.2111 35.5406 66.8829 35.9217 67.5816 36.4828C68.4285 37.3296 67.6134 37.806 67.3064 38.3353C66.9147 39.2669 67.0947 39.8491 65.8561 40.5478C64.2999 41.1723 63.686 41.5323 63.2202 42.6967C62.8285 43.66 62.331 45.5232 62.9449 45.5655C63.4319 45.5973 64.5223 43.1308 66.5442 42.9508C69.2754 42.7179 70.8527 39.468 71.1067 38.42C71.9854 34.7149 71.2655 32.2907 68.8943 29.3266C67.1264 27.1142 63.8448 26.0132 61.0924 26.299C56.9215 26.7119 53.2482 29.6125 50.8663 33.0847C49.5113 35.0007 47.9764 37.2661 46.8648 38.9387C45.3405 41.2359 44.6947 43.099 43.9325 43.3636C43.308 43.5754 43.5091 42.3474 44.4195 40.569C46.0709 37.5837 48.3151 34.9055 50.0301 31.9625C53.1953 26.7119 54.0421 19.9369 52.0731 14.1675C50.7922 10.346 48.1775 7.05374 44.5148 5.15885C38.5866 2.08892 30.88 1.63372 24.9519 8.20761C21.1515 12.4314 21.1938 19.4923 25.5553 23.3667C29.4615 26.8389 34.7968 25.3992 36.8611 23.7055C38.9042 22.0223 39.9099 20.1909 39.8146 18.4443C39.7934 17.8514 39.6981 16.8352 39.0736 16.6976C38.5972 16.5917 37.9197 18.169 37.5809 18.4654C36.7552 19.397 36.1095 19.8734 34.2464 20.1486C30.6471 20.4979 29.1968 18.3596 29.0804 15.9142C29.1016 13.2042 31.5363 13.4053 32.542 12.3256C33.0713 11.6057 33.5265 10.8329 35.1673 11.4363C36.3318 12.0186 36.8823 11.7857 37.708 11.8386C38.1949 11.9551 38.5443 12.5055 38.9571 12.7702C39.5923 13.2465 40.4074 13.1724 40.7885 13.67C41.1167 14.1358 41.0955 14.7709 41.3919 15.2685C41.6989 15.893 42.3446 16.2635 42.5034 16.7082C42.7046 17.3116 42.3446 17.9361 42.3764 18.5607C42.3552 19.3229 42.7998 20.0533 42.6305 20.5826C42.4187 21.2495 41.7518 21.6624 41.5295 22.3399C41.2437 22.9433 41.3919 23.6843 41.0532 24.256C40.7779 24.7217 39.9945 24.9123 39.4864 25.4522C39.0206 25.8756 38.7772 26.479 38.5866 27.0612C38.269 28.2151 36.7341 28.1093 36.0036 29.0938C35.3896 29.7289 35.3473 30.6711 34.8074 31.0945C34.384 31.4544 33.6535 31.5603 33.1031 31.952C32.7537 32.1954 32.4467 32.5024 32.2033 32.8518C31.7163 33.5081 31.7163 34.4291 31.2399 35.0431C30.9118 35.4453 30.3825 35.6465 29.9379 35.9111C28.8793 36.4828 28.1065 37.806 28.0747 38.9705C28.0853 39.4468 28.0324 39.902 27.8948 40.3149C27.2596 41.6805 26.5186 41.924 26.2751 41.4582C26.0105 40.9395 26.1481 40.569 25.8729 40.0714C25.6929 39.648 25.026 38.6952 24.0097 38.1024C22.9935 37.5096 23.2052 37.5414 23.057 37.0226C22.8876 36.4933 22.3477 35.9958 21.7973 35.8899C21.5644 35.837 21.2891 35.8158 21.088 35.6782C20.7916 35.4665 20.6645 35.0431 20.347 34.8208C20.1882 34.6937 20.0082 34.5985 19.8177 34.5349C19.5107 34.4291 19.1719 34.482 18.9285 34.3762C18.632 34.2597 18.4732 33.8363 18.1133 33.6351C17.6475 33.2858 16.97 33.5399 16.6631 33.0635C16.5043 32.82 16.3031 32.5871 16.0385 32.4601C15.7315 32.2907 15.3504 32.3013 15.1598 32.1319C14.9269 31.9202 14.8952 31.5603 14.6835 31.3274C14.4929 31.0522 14.133 30.9569 13.9425 30.6816C13.7943 30.4593 13.9001 30.0677 13.7837 29.7289C13.7096 29.4431 13.4661 29.2102 13.4767 28.9032C13.4873 28.6809 13.7307 28.4162 13.7837 28.0987C13.8472 27.834 13.7519 27.5482 13.8366 27.2941C13.9424 27.0189 14.3235 26.9342 14.5459 26.6378C14.6941 26.4578 14.7787 26.1614 14.9799 26.045C15.3504 25.9074 15.6362 25.9391 16.0808 25.5157C16.7372 25.0181 17.0547 25.304 17.3935 25.558C17.9969 25.9074 18.992 25.918 19.3519 26.6907C19.5318 27.1777 19.5848 27.3471 19.6165 27.8446C19.6271 28.0563 20.3681 28.9879 20.5375 27.22C20.6857 25.558 19.5954 23.949 18.2721 23.0915C16.6207 22.0329 13.3496 21.9906 11.0736 24.1819C9.66571 25.5369 8.86118 27.1459 8.79767 29.0514C8.69181 31.9414 10.0045 34.8949 12.1534 36.8533C13.3391 37.9542 15.8056 39.8385 16.6101 41.2359C18.5897 44.6446 16.4831 47.1746 15.2234 47.7357C15.1916 47.7462 15.1916 47.7568 15.1598 47.7674C14.8105 47.905 14.4718 48.085 14.1648 48.3496C12.9685 49.2283 12.6086 50.7738 13.1485 52.5311C13.1803 52.7322 13.2332 52.9545 13.2967 53.1663C13.4449 53.7697 13.5931 54.3307 13.3496 54.7224C13.212 54.9129 12.7145 54.9976 11.7617 54.6906L11.5606 54.6271C10.1844 54.1508 8.74473 53.6532 7.23094 54.0661C6.52168 54.2355 5.80183 54.4895 5.10316 54.733C4.26686 55.0294 3.40941 55.3258 2.56253 55.4846L2.21319 55.5799C0.784081 55.9504 0.0324721 56.1621 0.000714202 56.6914C-0.0204578 57.1148 0.434741 57.2842 0.614703 57.3583C2.25553 57.8241 4.00222 57.0831 5.53718 56.4373C6.6593 55.9715 7.68614 55.5269 8.59653 55.5587C9.6763 55.5799 10.9995 56.1303 11.4336 57.1042C11.9735 59.2214 8.45892 60.6611 5.88652 61.7092C5.0714 62.0373 4.37272 62.3231 3.89635 62.5878C3.32471 62.8842 2.67897 63.2124 2.90128 63.6781C3.25062 64.4086 6.02414 63.3923 6.04531 63.3923C9.15759 62.1749 16.7477 59.3379 15.7421 53.6744C15.6786 53.3568 15.5727 53.0286 15.4668 52.7005C15.1387 51.6207 15.2763 50.8056 15.6786 50.2763C16.0279 49.8317 16.4196 49.7258 16.6736 49.7046C17.1394 49.6517 17.4782 49.7788 17.7852 50.2445C18.325 51.0808 19.246 51.5572 20.294 50.6786C20.8869 50.1916 24.1685 45.2585 24.1473 46.5818C24.0838 50.1598 19.246 54.6695 18.7802 55.9292C18.6215 56.3315 17.7005 59.5284 18.1133 59.7719C18.4944 59.9942 18.8332 59.5814 18.9602 59.4332C21.7443 56.4479 25.4494 52.7005 26.6668 53.5474C28.6252 54.9024 24.3908 58.9144 27.7466 58.7345C30.4036 58.5863 31.2082 57.8347 32.6267 58.6816C34.0241 59.719 34.077 61.0952 34.8709 62.4713C35.6649 63.8369 37.5598 63.5723 37.1999 61.635C36.8293 59.6978 37.8985 57.7606 38.6819 58.6075C39.2535 59.2214 39.2218 59.4332 39.6346 60.0577C40.9473 62.3125 43.3291 64.5568 46.3673 65.4883C48.5163 66.0917 50.9828 66.8222 53.5764 66.8963C57.038 67.0021 59.6739 66.1447 62.585 64.705C63.6225 64.1968 64.12 63.784 63.9189 63.3288C63.5695 62.5454 60.9019 63.4664 60.7219 63.5299C54.2115 64.832 51.9567 57.8241 50.6335 59.7084C49.3737 61.5186 48.8233 63.1488 45.8274 62.3972C43.5726 61.8362 42.7681 60.2483 42.5352 59.7507C41.773 58.1734 41.1484 56.215 41.1378 54.5424C41.1273 48.7625 42.7363 49.5564 42.6834 51.2396C42.6305 52.9228 42.9375 55.654 44.3454 55.8657C45.7533 56.0774 46.2509 53.6215 49.2043 52.4782C49.8607 52.2241 50.2524 51.8113 50.5594 51.3984C50.5805 51.3772 50.6017 51.3666 50.6123 51.3455C50.6546 51.3031 50.6864 51.2396 50.7287 51.1655C51.2263 50.4774 51.5968 49.9375 52.9094 50.5304C54.8255 51.3984 57.1544 50.1069 57.1544 50.795C57.1544 51.4831 56.4663 53.1874 53.4811 53.2192C50.4852 53.2615 49.3526 53.2615 47.8599 55.0506C46.3673 56.8396 46.8966 59.719 47.4047 60.1636C47.5847 60.3118 47.807 60.333 47.987 60.1954L48.0822 60.0895C48.3892 59.5602 48.4845 58.9145 48.5692 58.3005C48.6433 57.8135 48.7068 57.3054 48.9079 56.8396C49.1832 55.908 50.1147 54.7436 50.8663 54.7012C51.2051 54.6801 51.4909 54.9447 51.7026 55.4422C52.4542 57.7712 53.9045 59.4755 56.0111 60.5023C61.2724 63.043 65.5068 60.9787 67.6557 59.9942C68.3755 59.6661 69.2119 59.1262 69.8999 58.7027C70.5139 58.2158 69.1166 57.6971 65.9514 58.0676C64.681 58.2158 63.9506 59.7507 63.0508 60.026C60.2985 60.8517 57.1121 59.4332 55.8523 58.2264C55.5983 57.9723 55.5348 57.7606 55.5877 57.6441C55.7359 57.2948 56.7733 57.3689 57.345 57.3477C58.1177 57.316 58.9964 57.2736 59.6633 57.0513C60.4043 56.8714 61.1136 56.6279 61.7911 56.3844C63.326 55.8551 64.7657 55.347 66.4171 55.6963C67.317 55.8339 68.2485 56.1621 69.1483 56.4691C69.72 56.6702 70.2916 56.8608 70.8421 57.009C71.4031 57.1466 71.8795 57.1889 71.9748 56.9031C71.9748 56.9031 72.0489 56.7337 71.943 56.5008L71.9854 56.4691ZM66.8512 41.3841C66.4277 41.6699 65.9514 41.4582 65.8561 41.31C65.7502 41.1618 66.1102 41.1723 66.5336 40.8865C66.957 40.6007 67.2217 40.0291 67.3275 40.1773C67.4334 40.3255 67.2852 41.0982 66.8618 41.3841H66.8512ZM68.7249 38.8223C68.492 39.3304 68.1109 39.6586 67.8568 39.5421C67.6028 39.4257 67.6028 38.9281 67.8357 38.4094C68.0686 37.9013 68.4497 37.5731 68.7037 37.6896C68.9472 37.806 68.9578 38.3036 68.7249 38.8223ZM67.7721 34.9055C68.0368 34.7572 68.4602 34.9901 68.7143 35.4453C68.9684 35.8899 68.9472 36.3769 68.6825 36.5251C68.4179 36.6733 67.9945 36.4404 67.7404 35.9852C67.4863 35.5406 67.5075 35.0537 67.7721 34.9055ZM65.5809 32.9259C65.7396 32.7036 66.2372 32.7883 66.6818 33.1164C67.1264 33.4446 67.3699 33.8786 67.2111 34.1009C67.0523 34.3232 66.5548 34.2385 66.1102 33.9104C65.6656 33.5822 65.4221 33.1482 65.5809 32.9259ZM63.4848 31.8567C64.0777 31.8673 64.554 32.1213 64.5434 32.4177C64.5329 32.7142 64.0565 32.9576 63.4637 32.947C62.8708 32.9365 62.3945 32.6824 62.4051 32.386C62.4157 32.0896 62.892 31.8461 63.4848 31.8567ZM59.875 32.3436C60.4572 32.1108 61.0395 32.1849 61.1771 32.5236C61.3147 32.8624 60.9442 33.3176 60.362 33.5504C59.7797 33.7833 59.1975 33.6986 59.0599 33.3705C58.9223 33.0317 59.2928 32.5765 59.875 32.3436ZM32.3409 20.4874C32.9972 20.5403 33.5477 20.6356 33.5265 20.8049C33.5159 20.9743 32.9443 21.1649 32.288 21.1119C31.6316 21.059 30.9541 20.4768 30.9647 20.3074C30.9753 20.138 31.674 20.4344 32.3409 20.4874ZM29.4192 18.4972C29.8002 19.1323 30.0755 19.6828 29.8955 19.7887C29.7156 19.8945 29.1545 19.524 28.7734 18.8889C28.3923 18.2537 28.5088 17.248 28.6781 17.1316C28.8581 17.0257 29.0275 17.862 29.4086 18.4866L29.4192 18.4972ZM28.9216 14.5698C28.6781 15.2685 28.4982 15.8719 28.3076 15.7978C28.1065 15.7342 28.043 15.0567 28.2759 14.3581C28.5193 13.6594 29.3662 13.0983 29.5674 13.1724C29.7685 13.2465 29.1545 13.8711 28.9216 14.5698ZM31.8222 12.2832C31.2717 12.6855 30.6895 12.8231 30.5307 12.5902C30.3613 12.3573 30.6789 11.8492 31.2294 11.4575C31.7798 11.0658 32.3621 10.9176 32.5209 11.1505C32.6902 11.3834 32.3726 11.8915 31.8222 12.2832ZM33.8441 10.5259C33.1454 10.6636 32.5844 10.5471 32.5844 10.2719C32.5844 9.99664 33.1454 9.64731 33.8441 9.50969C34.5428 9.37207 35.1038 9.48852 35.1038 9.76375C35.1038 10.039 34.5428 10.3883 33.8441 10.5259ZM36.3847 11.3834C35.7284 11.3305 35.2309 11.0341 35.252 10.7271C35.2732 10.4201 35.8237 10.2189 36.48 10.2719C37.1363 10.3248 37.6339 10.6212 37.6127 10.9282C37.5915 11.2352 37.0411 11.4363 36.3847 11.3834ZM37.9197 9.83785C38.0044 9.52028 38.7242 9.30856 39.5288 9.36149C40.3333 9.41441 40.9155 9.72141 40.8308 10.039C40.7461 10.3566 40.0263 10.5683 39.2218 10.5154C38.4172 10.4624 37.835 10.1554 37.9197 9.83785ZM40.9049 12.5796C40.7462 12.8549 40.2063 12.8337 39.6981 12.5479C39.19 12.2515 38.9042 11.7963 39.0524 11.5316C39.2112 11.2564 39.7511 11.2775 40.2592 11.5634C40.7673 11.8598 41.0532 12.315 40.9049 12.5796ZM14.8317 24.8488C15.2022 24.7429 15.5621 24.7641 15.6362 24.9017C15.7103 25.0393 15.4668 25.2405 15.0963 25.3569C14.7258 25.4733 14.3659 25.4416 14.2918 25.304C14.2177 25.1664 14.4612 24.9652 14.8317 24.8488ZM12.8521 26.045C13.085 25.7909 13.4237 25.6639 13.6249 25.7698C13.826 25.8756 13.7942 26.172 13.5719 26.4261C13.339 26.6801 13.0003 26.8072 12.7992 26.7013C12.598 26.5955 12.6298 26.2991 12.8521 26.045ZM11.8994 27.8552C11.9629 27.4953 12.2487 27.2306 12.5239 27.2624C12.7992 27.2941 12.9685 27.6117 12.8944 27.9716C12.8309 28.3316 12.5451 28.5962 12.2699 28.5645C11.9946 28.5327 11.8253 28.2151 11.8994 27.8552ZM11.8253 30.0782C11.7406 29.6548 11.9311 29.2737 12.2487 29.242C12.5663 29.1996 12.8944 29.5172 12.9791 29.9512C13.0638 30.3747 12.8733 30.7557 12.5557 30.7875C12.2381 30.8298 11.9099 30.5123 11.8253 30.0782ZM13.8895 32.82C13.5614 32.9365 13.085 32.6718 12.8309 32.2272C12.5769 31.7932 12.6404 31.3486 12.9685 31.2321C13.2967 31.1157 13.7731 31.3803 14.0271 31.8249C14.2812 32.259 14.2177 32.7036 13.8895 32.82ZM15.8797 34.6514C15.5198 34.8314 14.927 34.609 14.5459 34.1644C14.1753 33.7092 14.1648 33.2011 14.5247 33.0211C14.8846 32.8412 15.4774 33.0635 15.8585 33.5081C16.229 33.9633 16.2396 34.4714 15.8797 34.6514ZM18.2086 36.3769C17.7958 36.5992 17.1288 36.3981 16.7266 35.9429C16.3137 35.4877 16.3243 34.9372 16.7266 34.7255C17.1394 34.5032 17.8063 34.7043 18.2086 35.1595C18.6109 35.6147 18.6109 36.1652 18.2086 36.3769ZM18.6426 38.1024C18.3674 37.4037 18.6426 36.7368 19.2672 36.631C19.8812 36.5145 20.601 37.0015 20.8763 37.7001C21.1515 38.3988 20.8763 39.0657 20.2517 39.1716C19.6377 39.288 18.9179 38.8011 18.6426 38.1024ZM21.7973 43.7871C20.908 43.5648 20.2411 42.485 20.3046 41.3735C20.3681 40.262 21.1409 39.5315 22.0196 39.7538C22.9088 39.9761 23.5757 41.0559 23.5122 42.1674C23.4487 43.279 22.6759 44.0094 21.7973 43.7871ZM46.8966 23.9172C46.5896 24.9229 45.8062 25.6745 45.1499 25.611C44.4936 25.5474 44.2183 24.6794 44.5359 23.6737C44.8429 22.6681 45.6263 21.9165 46.272 21.98C46.9284 22.0435 47.2036 22.9115 46.886 23.9172H46.8966ZM47.9234 18.6454C47.9234 19.5452 47.4577 20.3391 46.8543 20.4132C46.2509 20.4874 45.7533 19.8098 45.7533 18.91C45.7533 18.0102 46.2191 17.2163 46.8225 17.1422C47.4259 17.0681 47.9234 17.7456 47.9234 18.6454ZM45.404 13.2042C45.8909 13.0348 46.5261 13.4688 46.8119 14.1675C47.1083 14.8662 46.9495 15.5649 46.4626 15.7237C45.9756 15.8825 45.3405 15.459 45.0546 14.7603C44.7582 14.0617 44.917 13.363 45.404 13.2042ZM42.4611 10.6318C42.7787 10.3672 43.4985 10.4942 44.0701 10.9176C44.6418 11.3411 44.8429 11.9021 44.5148 12.1668C44.1972 12.4314 43.4773 12.3044 42.9057 11.8809C42.3341 11.4575 42.1329 10.8965 42.4611 10.6318ZM44.303 18.6454C44.303 19.3229 44.0066 19.8734 43.6467 19.8734C43.2868 19.8734 42.9904 19.3229 42.9904 18.6454C42.9904 17.9679 43.2868 17.4174 43.6467 17.4174C44.0066 17.4174 44.303 17.9679 44.303 18.6454ZM41.9741 15.0144C41.7201 14.4851 41.7412 13.9452 42.0271 13.8076C42.3129 13.67 42.7469 13.9981 42.9904 14.5274C43.2444 15.0567 43.2233 15.5966 42.9375 15.7342C42.6516 15.8719 42.2176 15.5437 41.9741 15.0144ZM42.08 22.6045C42.3658 21.8529 42.9163 21.3554 43.3185 21.5036C43.7208 21.6518 43.8161 22.3822 43.5408 23.1444C43.2656 23.9066 42.7046 24.3936 42.3023 24.2454C41.9 24.0972 41.8048 23.3667 42.08 22.6045ZM39.677 26.2779C40.1745 25.5263 40.8944 25.1346 41.2966 25.3887C41.6989 25.6533 41.6248 26.4684 41.1272 27.22C40.6297 27.9716 39.9099 28.3633 39.5076 28.1093C39.1053 27.8446 39.1794 27.0295 39.677 26.2779ZM36.6706 29.6548C37.3163 28.882 38.1738 28.5327 38.5866 28.882C38.9995 29.2314 38.8089 30.1312 38.1526 30.904C37.4963 31.6767 36.6494 32.0261 36.2365 31.6767C35.8237 31.3274 36.0142 30.4276 36.6706 29.6548ZM33.1137 33.1694C33.8018 32.3754 34.7016 32.0367 35.125 32.3966C35.5484 32.7671 35.3261 33.6987 34.638 34.4926C33.95 35.2865 33.0501 35.6253 32.6267 35.2654C32.2033 34.8949 32.4256 33.9633 33.1137 33.1694ZM29.6415 37.8695C30.2449 36.8215 31.187 36.2287 31.7481 36.5569C32.3091 36.885 32.2668 37.986 31.6634 39.0446C31.06 40.1032 30.1178 40.6854 29.5568 40.3572C28.9957 40.0291 29.0381 38.9281 29.6415 37.8695ZM29.7156 45.5761C29.1545 46.9841 27.99 47.8521 27.1326 47.5028C26.2751 47.1534 26.0211 45.7349 26.5821 44.327C27.1432 42.919 28.297 42.051 29.1651 42.4003C30.0331 42.7497 30.2766 44.1682 29.7156 45.5761ZM37.0411 49.8105C36.8399 52.457 35.1885 54.6589 33.3571 54.733C31.5258 54.8071 30.2025 52.7322 30.4037 50.0857C30.6048 47.4392 32.2562 45.2374 34.0876 45.1633C35.9189 45.0892 37.2422 47.164 37.0411 49.8105ZM38.2796 40.5584C37.8562 42.0616 36.6282 43.1943 35.5273 43.099C34.4263 42.9931 33.8759 41.6911 34.2887 40.1984C34.7121 38.6952 35.9401 37.5625 37.0411 37.6578C38.142 37.7637 38.6925 39.0657 38.2796 40.5584ZM40.9155 34.4926C40.3333 35.6147 39.2747 36.3769 38.5443 36.1969C37.8138 36.017 37.708 34.9584 38.2902 33.8257C38.8724 32.7036 39.931 31.9414 40.6615 32.1213C41.3813 32.3013 41.4978 33.3599 40.9155 34.4926ZM42.1329 30.904C41.4342 30.7346 41.2966 29.7289 41.8365 28.6386C42.3764 27.5482 43.3821 26.8072 44.0807 26.966C44.7794 27.1353 44.917 28.141 44.3771 29.2314C43.8373 30.3217 42.8316 31.0627 42.1329 30.904ZM56.7416 34.4714C57.2285 33.9845 57.8743 33.8469 58.1919 34.1644C58.5094 34.482 58.3718 35.1278 57.8848 35.6147C57.3979 36.1017 56.7522 36.2393 56.4346 35.9217C56.117 35.6041 56.2546 34.9584 56.7416 34.4714ZM54.4656 37.4778C54.8467 36.885 55.4924 36.6098 55.9159 36.885C56.3393 37.1497 56.3816 37.8589 56.0005 38.4518C55.6194 39.0446 54.9737 39.3198 54.5503 39.0446C54.1268 38.7693 54.0845 38.0707 54.4656 37.4778ZM48.5586 50.7315C47.5212 51.5678 46.2297 51.6948 45.6686 50.9961C45.1076 50.2975 45.4993 49.0589 46.5367 48.2226C47.5741 47.3863 48.8656 47.2593 49.4266 47.958C49.9877 48.6566 49.596 49.8952 48.5586 50.7315ZM52.0414 45.8514C51.4909 46.6241 50.6017 46.9417 50.0724 46.5606C49.5325 46.1795 49.5537 45.2374 50.1042 44.4646C50.6546 43.6918 51.5438 43.3742 52.0731 43.7553C52.613 44.1364 52.5919 45.0786 52.0414 45.8514ZM52.7083 42.792C52.2002 42.5485 52.0626 41.7652 52.4013 41.0559C52.7401 40.3361 53.4387 39.955 53.9469 40.209C54.455 40.4525 54.5926 41.2359 54.2539 41.9451C53.9151 42.6544 53.2164 43.0461 52.7083 42.792Z" fill="#507096"/>
</svg>
