<svg width="36" height="36" viewBox="0 0 36 36" fill="none" xmlns="http://www.w3.org/2000/svg">
<path d="M22.4493 34.1729C22.0364 34.0158 21.5283 33.9321 21.0095 33.8588C20.7131 33.8169 20.4378 33.775 20.1944 33.7122C19.1675 33.5028 16.722 32.8537 15.748 31.367C14.7741 29.8804 13.6096 32.1418 11.9792 31.2205C10.6136 30.4457 10.1901 28.4879 9.39612 28.7706C8.42216 29.0847 7.33175 30.8854 6.67539 31.4089C6.00844 31.9429 5.27797 32.6443 4.20873 32.6967H4.1558C3.65824 32.7909 3.57355 33.0003 3.59472 33.1678C3.62648 33.3877 3.80644 33.5971 4.9392 33.6389C5.12976 33.6389 5.41559 33.6389 5.68026 33.618C6.48483 33.5342 7.39527 33.4295 8.18926 33.4086C9.36436 33.3877 10.4971 33.9844 11.5664 33.9635C13.4508 33.9321 14.4459 33.5971 16.6585 34.2043C17.9924 34.5707 19.3792 34.7278 20.8401 34.9267C21.1048 34.9686 21.4118 35 21.6765 35C21.7717 35 21.867 35 21.9517 35C22.1317 35 22.6187 34.979 22.7351 34.6859C22.7986 34.5288 22.7351 34.3718 22.5657 34.2566L22.4387 34.1938L22.4493 34.1729Z" fill="#507096"/>
<path d="M35.9471 28.3623C35.1319 27.2944 33.1099 26.8756 31.7654 27.1374C31.2678 27.2107 27.4461 28.4147 27.9119 27.284C28.5471 26.7081 29.754 26.2056 29.5316 25.1796C29.1929 23.6615 26.1016 24.9283 26.7792 22.5727C27.7108 20.7614 28.0284 18.3325 29.6269 16.9296C30.5374 16.1967 32.0618 16.3747 32.6335 17.4321C33.3322 18.7408 31.6807 19.4004 31.0349 20.2694C30.7385 20.7719 30.7067 21.4315 31.0138 21.2744C31.8819 20.5625 33.5545 20.1647 34.0733 19.0654C35.2166 16.8458 33.5757 13.6631 30.9926 13.4013C26.4616 12.9093 24.2596 18.4163 22.047 21.4105C21.687 21.9968 21.7188 21.9549 21.4647 22.4261C21.2953 22.7088 21.073 23.2427 20.7554 23.0857C20.5225 22.8763 20.8189 22.0701 21.073 21.4943C22.2905 18.6675 24.7148 16.5317 25.6676 13.5688C27.0967 9.46479 25.9111 4.17767 21.7717 2.08376C18.3417 0.0107931 12.5403 0.837886 10.5818 5.20368C8.17866 10.9096 15.4833 15.3801 18.9134 10.2395C19.2204 9.68465 19.4956 8.78427 19.0087 8.31314C18.7016 8.10375 18.257 8.74239 17.8759 9.10883C17.5265 9.42291 17.029 9.6323 16.3832 9.69512C14.3188 10.072 12.752 7.52792 14.5941 6.38674C15.1128 6.14595 15.4516 5.60153 15.9915 5.40261C16.5102 5.2665 17.2725 5.44448 17.8336 5.51777C18.5958 5.71669 19.4745 6.15642 20.0144 6.67989C20.2049 6.93116 20.279 7.28712 20.4272 7.62215C20.6813 8.16656 21.0307 8.62723 20.8084 9.24493C20.4378 10.072 20.6496 11.1085 20.025 11.7576C18.9028 12.6475 18.4158 13.8829 17.0819 14.5635C16.415 15.0555 15.9597 15.9454 15.4939 16.6155C14.9434 17.296 13.8848 17.5892 13.4613 18.7094C13.1649 19.2538 13.1967 20.2798 12.5826 20.552C12.4344 20.5939 12.2756 20.5311 12.1274 20.3741C11.524 19.6726 10.7512 18.8664 9.95719 18.2592C8.64447 17.3379 5.25678 16.2909 6.79183 14.1551C7.26822 13.5689 8.1469 13.4956 8.67623 13.9876C8.97265 14.2389 9.20555 14.4902 9.33259 14.3959C9.54432 14.3017 9.37494 13.6107 9.23731 13.3595C7.65992 10.6793 3.48884 13.1919 4.1452 15.9036C4.34634 17.3693 5.29913 18.5838 6.4213 19.4527C8.45391 21.086 8.6974 23.2532 6.16723 24.1536C5.83904 24.3525 5.57438 24.6456 5.44734 24.9911C5.09799 25.7135 5.65907 26.8233 5.38382 27.2525C5.11916 27.6085 4.4628 27.3782 4.04992 27.2944C2.71602 26.8023 1.81617 28.1215 1.54092 29.2208C1.39271 29.9746 0.323472 30.9692 0.0482228 31.5032C-0.279959 32.5711 1.14922 32.3512 1.84793 32.236C3.00186 31.9952 4.39928 31.388 5.405 30.6237C8.61271 28.2053 8.59153 24.2164 10.8782 22.8344C11.7675 22.5203 10.2642 24.9283 10.4759 26.4987C10.5183 27.441 11.0582 28.2262 11.8098 28.7183C13.1014 29.4826 14.6576 29.4302 15.9068 29.9956C17.2831 30.6028 18.0453 31.7126 19.3792 32.3198C20.6813 32.8852 22.1529 32.7281 23.4868 33.1992C26.1546 34.0263 29.0341 33.8274 31.5113 32.4559C33.6392 31.3671 28.9811 32.2989 28.4518 31.922C26.6839 31.4927 25.7946 29.671 25.1171 30.027C24.7042 30.2468 24.2913 30.5923 23.8043 30.6866C22.7986 30.8959 21.6235 30.027 21.073 29.4093C20.4061 28.6241 19.8768 27.0536 20.2473 25.9438C20.3531 25.5984 20.5331 25.19 20.8189 25.6612C22.0046 27.8284 23.4126 28.0796 25.1488 26.2998C25.7099 25.7763 27.0438 24.8131 27.6684 25.3052C27.9754 25.5984 27.7531 26.237 27.1603 26.6244C26.4086 27.1688 25.1171 27.5771 24.1537 27.9645C23.2962 28.2471 22.0999 28.9695 23.4868 29.2627C24.0372 29.2941 24.3548 28.7497 24.7889 28.5298C25.7734 28.0063 26.0275 29.3464 26.7262 29.8071C28.9917 31.5136 32.1783 31.2728 34.3697 29.9223C34.9413 29.5244 35.9365 29.158 36 28.467L35.9682 28.3518L35.9471 28.3623ZM29.6693 15.422C30.1668 15.2544 30.6221 15.5581 30.6856 15.757C30.7491 15.9454 30.4209 15.8512 29.9233 16.0187C29.4258 16.1862 28.9388 16.5527 28.8753 16.3642C28.8118 16.1758 29.1717 15.5999 29.6693 15.4324V15.422ZM27.0332 17.5473C27.3402 17.118 27.7743 16.9086 27.9966 17.0657C28.2189 17.2227 28.166 17.7043 27.859 18.1231C27.552 18.5524 27.1179 18.7617 26.8956 18.6047C26.6627 18.4477 26.7262 17.9661 27.0332 17.5473ZM13.1755 7.76872C13.0696 7.74778 12.9955 7.41276 13.0696 7.03585C13.1543 6.66942 13.5566 6.3344 13.6625 6.35534C13.7683 6.37628 13.4931 6.73224 13.419 7.10914C13.3343 7.47558 13.2814 7.80013 13.1755 7.76872ZM14.0753 9.60089C13.9907 9.66371 13.6836 9.50667 13.4402 9.21352C13.2073 8.9099 13.2073 8.3969 13.2919 8.32361C13.3766 8.26079 13.5143 8.67957 13.7472 8.97272C13.9801 9.27633 14.1495 9.53807 14.0648 9.60089H14.0753ZM15.0175 5.70622C14.7105 5.92608 14.3824 5.99937 14.2871 5.87373C14.1918 5.7481 14.3718 5.46542 14.6788 5.24556C14.9858 5.0257 15.314 4.95242 15.4092 5.07805C15.5045 5.20369 15.3246 5.48636 15.0175 5.70622ZM6.40013 16.5841C6.29426 16.5945 6.11429 16.3852 5.99784 16.1129C5.89197 15.8407 5.89197 15.5999 5.99784 15.5895C6.1037 15.579 6.28368 15.7884 6.40013 16.0606C6.51658 16.3328 6.51658 16.5736 6.40013 16.5841ZM7.5964 17.8718C7.41643 17.9661 7.10942 17.8509 6.91887 17.631C6.71772 17.4007 6.70713 17.1494 6.8871 17.0552C7.06708 16.961 7.37409 17.0761 7.56464 17.296C7.76579 17.5263 7.77637 17.7776 7.5964 17.8718ZM8.84561 19.4423C8.5386 19.4946 8.18925 19.2643 8.05162 18.9188C7.914 18.5733 8.05162 18.2487 8.35863 18.1964C8.66564 18.144 9.015 18.3744 9.15262 18.7199C9.29025 19.0654 9.15262 19.3899 8.84561 19.4423ZM9.94661 21.8712C9.51256 21.7665 9.18438 21.2326 9.21614 20.6881C9.2479 20.1437 9.62901 19.7878 10.0631 19.8925C10.4971 19.9971 10.8253 20.5311 10.7935 21.0755C10.7618 21.6199 10.3807 21.9759 9.94661 21.8712ZM22.3222 10.0511C22.2799 10.5955 21.9411 11.0771 21.56 11.1399C21.1789 11.2027 20.9142 10.8154 20.9566 10.2709C20.9989 9.72653 21.3377 9.24493 21.7188 9.18211C22.0999 9.1193 22.3646 9.50666 22.3222 10.0511ZM17.3572 5.16181C16.976 5.1304 16.669 4.96289 16.6902 4.77443C16.7008 4.59645 17.029 4.47082 17.4101 4.5127C17.7912 4.5441 18.0982 4.71162 18.077 4.90007C18.0665 5.07805 17.7383 5.20368 17.3572 5.16181ZM20.4061 5.92609C20.1943 6.10407 19.718 6.00984 19.3474 5.73763C18.9769 5.45496 18.8393 5.08852 19.051 4.92101C19.2627 4.74303 19.7391 4.83725 20.1202 5.10946C20.4908 5.39214 20.6284 5.75857 20.4167 5.92609H20.4061ZM20.7131 7.52792C20.5437 7.13008 20.6284 6.73224 20.9142 6.63802C21.2001 6.54379 21.56 6.79506 21.7294 7.1929C21.8988 7.59074 21.8141 7.98858 21.5282 8.08281C21.2424 8.17703 20.8825 7.92577 20.7131 7.52792ZM16.4679 24.164C16.3409 25.8077 15.3034 27.1688 14.1494 27.2211C12.9955 27.263 12.1592 25.9753 12.2862 24.3315C12.4133 22.6878 13.4507 21.3163 14.6047 21.2744C15.7586 21.2326 16.5843 22.5203 16.4573 24.164H16.4679ZM17.4101 19.1805C17.1666 19.9553 16.4467 20.5311 15.8009 20.4788C15.1552 20.4264 14.8376 19.7563 15.0811 18.9921C15.3246 18.2173 16.0444 17.6415 16.6902 17.6938C17.336 17.7462 17.6536 18.4162 17.4101 19.1805ZM18.9557 16.0711C18.617 16.6469 17.9923 17.0343 17.5689 16.94C17.1454 16.8458 17.0819 16.3014 17.4207 15.7256C17.7594 15.1498 18.3841 14.7624 18.8075 14.8566C19.231 14.9508 19.2945 15.4952 18.9557 16.0711ZM19.665 14.2284C19.2521 14.1447 19.178 13.6212 19.4956 13.0663C19.8132 12.5114 20.3955 12.1241 20.8084 12.2078C21.2212 12.2916 21.2953 12.815 20.9777 13.3699C20.6602 13.9248 20.0779 14.3122 19.665 14.2284ZM24.9265 24.3315C24.7465 25.2843 23.9737 26.08 23.1903 26.1009C22.4175 26.1323 21.9411 25.3785 22.1211 24.4258C22.3011 23.473 23.0739 22.6773 23.8573 22.6564C24.6301 22.625 25.1065 23.3788 24.9265 24.3315ZM26.3451 20.9813C26.0169 21.6513 25.4241 22.0282 25.0218 21.8398C24.6089 21.6409 24.5454 20.9499 24.863 20.2798C25.1912 19.6098 25.784 19.2329 26.1863 19.4213C26.5992 19.6202 26.6627 20.3112 26.3451 20.9813Z" fill="#507096"/>
</svg>
