<svg width="30" height="30" viewBox="0 0 30 30" fill="none" xmlns="http://www.w3.org/2000/svg">
<path d="M9.95075 24.5655C10.5655 24.3366 9.79881 25.3404 10.86 25.9514C12.1279 26.6766 13.0369 24.8932 13.7933 26.066C14.5499 27.2388 16.4548 27.7517 17.2493 27.9153C17.4343 27.9589 17.6519 27.9972 17.8803 28.0299C18.2829 28.0899 18.6804 28.1556 19.0014 28.281L19.0071 28.27L19.0992 28.325C19.2297 28.4177 19.2789 28.5487 19.23 28.6687C19.1319 28.9027 18.757 28.9192 18.6153 28.9193H18.3971C18.196 28.9138 17.962 28.8923 17.75 28.8596C16.618 28.7014 15.5616 28.3574 14.5331 28.0247C13.1237 27.5664 11.7849 27.1353 10.3211 27.1625C9.48306 27.1843 8.64461 27.3535 7.82829 27.5172C7.21882 27.6427 6.59269 27.7682 5.96689 27.8337C5.76571 27.8555 5.54269 27.8499 5.39037 27.8499C4.50912 27.8227 4.36697 27.6535 4.3451 27.479C4.32889 27.3536 4.38931 27.1897 4.78089 27.1133H4.81856C5.65116 27.0806 6.49495 26.846 7.09901 26.5896C7.70315 26.3331 9.19428 24.8166 9.95075 24.5655Z" fill="white"/>
<path fill-rule="evenodd" clip-rule="evenodd" d="M10.5822 4.2377C12.9714 1.58095 16.0739 1.76672 18.4631 3.00513C19.9376 3.76893 20.9882 5.09998 21.5052 6.6437C22.2942 8.97861 21.9515 11.7124 20.6781 13.8345C19.9815 15.0237 19.0778 16.1095 18.4139 17.3151C18.088 17.8738 17.8202 18.4719 17.6218 19.1012C17.91 18.7315 18.2386 18.4907 18.5933 18.3792C19.1266 18.2047 19.3827 18.5428 19.5732 18.7883C19.7634 19.028 19.8289 19.0774 19.9703 19.0174C20.1988 18.9083 20.493 18.6624 20.8031 18.4006C21.418 17.8879 22.0985 17.3099 22.7896 17.348C23.154 17.3045 23.4914 17.4735 23.6601 17.7734C23.8287 18.0788 23.7904 18.4612 23.5565 18.7721C23.502 18.8865 23.3935 19.0233 23.2902 19.154C23.1434 19.3394 22.9802 19.5411 22.991 19.6829C23.0294 19.7865 23.2524 19.9066 23.4645 20.0156C23.6113 20.092 23.7581 20.1686 23.8777 20.2667C24.3185 20.5505 24.678 21.1452 24.4768 21.7834C24.3298 22.2306 23.8505 22.4543 23.3609 22.667C23.089 22.7869 22.9529 22.9344 23.0124 23.0489C23.187 23.3705 24.2808 23.2837 25.2275 22.9783C26.0274 22.7219 26.7349 22.5474 27.3934 22.6837C28.1715 22.8419 28.7053 23.0111 29.2767 23.4476L29.3803 23.5344C29.3858 23.5395 29.522 23.6669 29.5488 23.7311C29.591 23.8213 29.5613 23.8913 29.5598 23.8949C29.5215 24.0091 29.3309 23.9928 29.1025 23.9383C28.8795 23.8783 28.6563 23.8019 28.4224 23.7201C28.0578 23.5947 27.6819 23.4639 27.3227 23.4094C26.6589 23.2676 26.071 23.469 25.4561 23.6872C25.1841 23.7799 24.901 23.8836 24.6018 23.9545C24.3352 24.0417 23.976 24.0585 23.6659 24.0748C23.4374 24.0857 23.0183 24.0531 22.958 24.1946C22.9364 24.2437 22.9584 24.326 23.0616 24.4295C23.5679 24.915 24.8525 25.4879 25.9625 25.1551C26.3216 25.0458 26.6156 24.4241 27.1271 24.3641C28.4002 24.2169 28.9605 24.4241 28.7159 24.6205C28.4384 24.795 28.1008 25.0133 27.8124 25.1442C26.947 25.5425 25.238 26.3768 23.1213 25.3513C22.2724 24.9422 21.6902 24.2546 21.3854 23.311C21.2984 23.1093 21.1839 23.0054 21.048 23.0107C20.7487 23.0271 20.3674 23.4965 20.2585 23.8729C20.1824 24.0582 20.1497 24.2657 20.1225 24.462C20.0899 24.7127 20.0519 24.9749 19.9269 25.1876L19.8887 25.2315C19.818 25.2859 19.7255 25.2803 19.6548 25.2205C19.448 25.0405 19.2846 23.9983 19.7307 23.2618C20.1498 22.449 21.0752 21.9414 22.1581 21.9414H22.245C23.1155 22.0122 23.7254 21.7178 23.7909 21.4015C23.8452 21.1288 23.4802 20.8229 22.8382 20.6047C22.2562 20.4629 21.9679 20.2883 21.8971 20.0266C21.8101 19.7213 22.0818 19.3939 22.3266 19.143C22.7941 18.7233 23.0281 18.2434 22.958 18.1228C22.9361 18.0738 22.7673 18.0245 22.3214 18.1663C21.935 18.2808 21.5594 18.6301 21.2002 18.9683C20.667 19.4647 20.1115 19.9772 19.4476 19.8791C19.2411 19.8082 19.1104 19.6775 18.9799 19.5521C18.8331 19.4049 18.7074 19.2849 18.5551 19.2848C18.3919 19.3176 18.1852 19.525 18.022 19.8467C17.799 20.2776 17.7118 20.8232 17.8206 21.0578C17.9132 21.2649 18.1202 21.314 18.4521 21.3685C18.7622 21.4176 19.1103 21.4782 19.2844 21.8054C19.4964 22.4108 19.1103 23.2293 18.7675 23.6275C18.724 23.6712 18.6474 23.742 18.5441 23.7149C18.5061 23.7039 18.4409 23.6704 18.4191 23.5726L18.4081 23.5292L18.4191 23.491C18.7179 22.5542 18.61 22.3022 18.5609 22.2851C18.4085 22.236 17.8914 22.6673 17.5758 23.491C17.4343 23.8511 17.2602 24.5385 17.5648 25.1766C17.6575 25.3786 18.1039 25.8971 19.0124 26.1261C20.2148 26.4261 20.4167 25.7988 20.9444 25.0406C21.4723 24.2827 22.3816 27.1136 25.0046 26.5844C25.083 26.5564 26.1523 26.1868 26.2942 26.5023C26.3756 26.6877 26.1742 26.8517 25.7554 27.0589C24.58 27.6371 23.5241 27.9812 22.1257 27.9431C21.0808 27.9158 20.0843 27.6209 19.219 27.3754C18.0002 26.999 17.037 26.0933 16.5091 25.1823C16.3404 24.926 16.3508 24.8386 16.1224 24.5933C15.8068 24.2497 15.3771 25.0353 15.524 25.8154L15.5292 25.8316C15.6759 26.6168 14.9144 26.7203 14.5933 26.1695C14.2777 25.6186 14.2501 25.0565 13.6898 24.6419C13.1185 24.2984 12.7971 24.6039 11.7253 24.6639C10.3758 24.7348 12.0782 23.115 11.29 22.5692C10.8002 22.231 9.30879 23.7418 8.1877 24.9474C8.13326 25.0075 7.99721 25.1708 7.84503 25.084C7.68183 24.9858 7.7632 24.702 7.82306 24.5383C8.00835 24.0308 9.0635 22.6403 9.36847 22.2145C9.74389 21.6909 10.0922 21.1995 10.2066 20.6105C10.3807 19.8523 10.2721 19.1427 9.91308 18.7172C9.5811 18.4213 9.4733 18.4582 9.46682 18.4608C9.33085 18.5264 9.39566 19.2027 9.42288 19.4919C9.44462 19.6827 9.45583 19.8468 9.45584 19.9722C9.43394 20.6595 9.03658 21.6087 8.68836 21.7834C8.59592 21.8324 8.49771 21.8268 8.42155 21.7724C8.28018 21.6742 8.17678 21.5376 8.07888 21.4067C8.00824 21.3141 7.94255 21.2324 7.86648 21.1561C7.70869 20.9598 7.47986 20.8449 7.23503 20.8448C7.01746 20.8503 6.79976 20.9271 6.66374 21.0797C6.40824 21.3797 6.53318 21.7944 6.66374 22.2307C6.70723 22.3615 6.74536 22.4982 6.77256 22.6236C7.17501 24.9092 4.24212 26.0552 2.98489 26.5462C2.97945 26.5462 1.86393 26.955 1.72199 26.6608C1.63508 26.4699 1.8963 26.3387 2.12482 26.2187C2.31527 26.1151 2.59831 26.0004 2.92473 25.864C3.95866 25.4385 5.37388 24.86 5.15652 24.0037C4.98233 23.611 4.44873 23.3871 4.01342 23.3816C3.64345 23.3653 3.22981 23.5454 2.77824 23.7363C2.16332 23.9982 1.45551 24.2927 0.797042 24.1073C0.726304 24.08 0.541504 24.0089 0.552204 23.8399C0.568854 23.622 0.868166 23.5346 1.44471 23.3874L1.58596 23.3492C1.92334 23.2837 2.27189 23.1637 2.60926 23.0437C2.89223 22.94 3.18637 22.842 3.46934 22.7711C4.08424 22.6021 4.6611 22.8036 5.21616 22.9945L5.29777 23.0217C5.6784 23.147 5.87989 23.109 5.93446 23.0327C6.03225 22.88 5.97283 22.6507 5.91301 22.4054C5.89128 22.3183 5.86916 22.2308 5.85285 22.1491C5.63523 21.4345 5.78218 20.8123 6.26091 20.4577C6.68533 20.0869 7.28406 20.0758 7.7629 20.0758C8.36671 20.0703 8.59564 20.0373 8.62297 19.7321C8.63383 19.5577 8.6175 19.3611 8.59577 19.154C8.56857 18.9086 8.54151 18.6461 8.57955 18.4116C8.63403 18.0408 8.84619 17.8006 9.17804 17.7242C9.64604 17.6152 10.2503 17.8718 10.5388 18.2918C10.634 18.4019 10.7112 18.5244 10.7752 18.6544C10.7872 18.5572 10.8031 18.492 10.838 18.3902C10.9197 18.1557 11.1648 17.8989 11.3335 17.7734C11.7305 17.5116 11.8559 17.1132 11.8451 16.6606C11.8615 16.1861 12.1715 15.6515 12.5958 15.4223C12.7754 15.3187 12.9879 15.2364 13.1185 15.0728C13.3142 14.8219 13.3146 14.451 13.5103 14.1892C13.6082 14.0474 13.7335 13.9269 13.875 13.8288C14.098 13.6653 14.3922 13.627 14.5608 13.4798C14.7783 13.3106 14.8005 12.9289 15.0453 12.6726C15.3391 12.2745 15.9541 12.3121 16.0848 11.8486C16.1555 11.6141 16.2533 11.3739 16.4437 11.1994C16.6504 10.9867 16.9662 10.9045 17.0751 10.7191C17.2109 10.4846 17.1514 10.1897 17.2655 9.94431C17.3582 9.67185 17.6301 9.50246 17.7118 9.23543C17.777 9.01733 17.5975 8.72249 17.6082 8.41721C17.592 8.16639 17.7388 7.90954 17.6574 7.66962C17.5975 7.48967 17.3309 7.33656 17.2111 7.08577C17.0915 6.88944 17.0968 6.62722 16.9663 6.44176C16.8085 6.24012 16.4817 6.26733 16.226 6.0766C16.0628 5.96751 15.9212 5.74365 15.7254 5.69992C15.3934 5.6781 15.17 5.77067 14.7021 5.53618C14.0438 5.29082 13.8585 5.60209 13.6463 5.89663C13.2435 6.33283 12.2641 6.2516 12.2532 7.34787C12.2969 8.32971 12.8793 9.19729 14.3322 9.05546C15.0829 8.94637 15.3444 8.75522 15.6762 8.37902C15.8177 8.25877 16.09 7.62039 16.2804 7.66386C16.5252 7.71854 16.5636 8.12801 16.5745 8.36803C16.6069 9.07709 16.2151 9.80848 15.3827 10.4957C14.55 11.1831 12.3998 11.7611 10.827 10.3592C9.06935 8.7934 9.05304 5.93983 10.5822 4.2377ZM14.1904 19.2848C13.2925 19.3231 12.4866 20.4036 12.3887 21.6965C12.2855 22.9892 12.9333 24.0093 13.831 23.9712C14.7289 23.933 15.5341 22.8528 15.6322 21.56C15.7356 20.2671 15.0883 19.2468 14.1904 19.2848ZM12.2741 18.0449C11.9251 17.9055 11.458 18.2551 11.2309 18.826C11.0041 19.3967 11.1025 19.9728 11.4512 20.1124C11.8 20.2517 12.2672 19.9018 12.4943 19.3313C12.7214 18.7606 12.6227 18.1847 12.2741 18.0449ZM15.4528 16.1369C15.0066 16.0989 14.5114 16.5573 14.3427 17.1628C14.1743 17.768 14.3917 18.2973 14.8376 18.3358C15.2837 18.3739 15.7794 17.9152 15.9482 17.3099C16.1168 16.7044 15.899 16.1752 15.4528 16.1369ZM13.3136 15.6917C13.0897 15.5625 12.711 15.8002 12.4677 16.2227C12.2244 16.6453 12.2084 17.0934 12.4321 17.223C12.6559 17.3521 13.0347 17.1143 13.278 16.692C13.5214 16.2694 13.5373 15.8214 13.3136 15.6917ZM16.9061 13.9057C16.6177 13.8294 16.1875 14.1403 15.9535 14.5931C15.7197 15.0457 15.7688 15.4714 16.0571 15.5479C16.3454 15.624 16.7752 15.3129 17.0092 14.8604C17.2431 14.4078 17.1943 13.9823 16.9061 13.9057ZM14.6749 14.0103C14.5047 13.8623 14.1415 14.0018 13.8634 14.3221C13.5855 14.6425 13.4978 15.0229 13.6678 15.1712C13.8379 15.3191 14.2012 15.1795 14.4792 14.8594C14.7573 14.539 14.8447 14.1587 14.6749 14.0103ZM16.0733 12.5884C15.9073 12.4493 15.5616 12.5891 15.3011 12.9007C15.0407 13.2124 14.9637 13.5785 15.1295 13.7179C15.2954 13.8568 15.6412 13.7169 15.9017 13.4055C16.1622 13.0938 16.2389 12.7278 16.0733 12.5884ZM18.2826 11.8214C17.9996 11.7509 17.5972 12.051 17.3796 12.4926C17.1622 12.9342 17.2163 13.338 17.4989 13.4092C17.7818 13.48 18.1847 13.1742 18.4024 12.738C18.62 12.2962 18.5655 11.8924 18.2826 11.8214ZM17.163 11.1868C17.0022 11.0812 16.7112 11.2405 16.5132 11.5426C16.3156 11.8446 16.2857 12.1754 16.4463 12.2813C16.6071 12.3867 16.8976 12.2273 17.0955 11.9255C17.2934 11.6234 17.3236 11.2928 17.163 11.1868ZM19.1698 9.80829C18.9086 9.78117 18.5929 10.0869 18.4678 10.4905C18.3428 10.8939 18.4573 11.2431 18.7184 11.2705C18.9794 11.2975 19.2952 10.9921 19.4204 10.5888C19.5456 10.1852 19.431 9.83563 19.1698 9.80829ZM17.977 9.61576C17.8137 9.55535 17.5894 9.75309 17.4764 10.0578C17.3635 10.3627 17.4047 10.6597 17.5679 10.7207C17.7312 10.7811 17.9555 10.5832 18.0686 10.2786C18.1817 9.97367 18.1403 9.67676 17.977 9.61576ZM13.5532 9.20822C13.2868 9.1809 13.0038 9.0666 12.9981 9.13184C12.9938 9.19785 13.2657 9.43172 13.5318 9.45359C13.7978 9.4753 14.0261 9.39914 14.0324 9.33378C14.0378 9.26834 13.8198 9.2355 13.5532 9.20822ZM19.4408 7.84906C19.2012 7.83147 18.9847 8.11414 18.9574 8.48051C18.9304 8.8466 19.1025 9.15803 19.342 9.17631C19.5816 9.19418 19.7984 8.91168 19.8259 8.54538C19.8532 8.17885 19.6806 7.86707 19.4408 7.84906ZM18.1141 7.95892C17.9727 7.95912 17.8531 8.18276 17.8531 8.4554C17.8532 8.72788 17.9728 8.95168 18.1141 8.95188C18.2555 8.95175 18.3751 8.72793 18.3752 8.4554C18.3752 8.18272 18.2556 7.95905 18.1141 7.95892ZM12.0784 7.85011C12.008 7.89533 11.9593 8.30316 12.1166 8.55898C12.2688 8.80949 12.4976 8.96253 12.5686 8.91944C12.6393 8.87574 12.5247 8.65723 12.3724 8.40099C12.2201 8.14457 12.1492 7.80646 12.0784 7.85011ZM12.4378 6.25133C12.356 6.22431 12.0131 6.44804 11.9152 6.73159C11.8175 7.00952 11.8447 7.2822 11.9262 7.30968C12.0077 7.33657 12.0784 7.09654 12.1763 6.8132C12.2741 6.5298 12.5187 6.27903 12.4378 6.25133ZM17.8452 6.79908C17.743 6.58437 17.5678 6.45436 17.4539 6.50873C17.3402 6.56341 17.3304 6.78173 17.4324 6.99631C17.5346 7.21081 17.7104 7.34083 17.8243 7.28666C17.938 7.23205 17.9473 7.01371 17.8452 6.79908ZM19.3598 6.60394C19.2248 6.33142 18.9668 6.18438 18.7838 6.2754C18.601 6.36665 18.5616 6.66161 18.6964 6.93405C18.8313 7.20634 19.0894 7.35333 19.2724 7.2626C19.4554 7.17157 19.4945 6.87648 19.3598 6.60394ZM16.7445 5.60157C16.5384 5.48355 16.3207 5.4767 16.2579 5.5864C16.1958 5.69627 16.3117 5.88117 16.5174 5.99917C16.7233 6.11708 16.9416 6.12382 17.0045 6.01434C17.0671 5.90452 16.9505 5.71969 16.7445 5.60157ZM13.628 5.42997C13.5611 5.3372 13.327 5.39222 13.1054 5.55292C12.8841 5.71354 12.7587 5.91898 12.8255 6.01173C12.8926 6.10418 13.1268 6.04922 13.3481 5.88878C13.5695 5.72824 13.6945 5.52285 13.628 5.42997ZM18.2826 5.34051C18.054 5.16596 17.7655 5.11108 17.6349 5.22019C17.5048 5.32941 17.5865 5.55325 17.8149 5.72765C18.0432 5.90196 18.3318 5.95623 18.4625 5.84745C18.5929 5.73831 18.5109 5.51499 18.2826 5.34051ZM15.2205 5.08103C14.957 5.05875 14.7349 5.14054 14.7246 5.26361C14.7149 5.38646 14.9198 5.50443 15.1829 5.52676C15.4461 5.54903 15.668 5.46704 15.6788 5.34418C15.6891 5.22113 15.484 5.10339 15.2205 5.08103ZM16.4008 4.70906C16.0735 4.69839 15.8045 4.79466 15.8002 4.92408C15.7965 5.05338 16.0586 5.16707 16.3856 5.17781C16.7126 5.18849 16.9814 5.09207 16.9862 4.96279C16.9901 4.83339 16.728 4.71979 16.4008 4.70906Z" fill="white"/>
<path d="M25.3797 18.3682C25.8096 18.1991 26.3971 18.3026 26.6149 18.5916C26.6857 18.6898 26.8276 18.9521 26.4956 19.2958C26.1201 19.6176 25.5156 19.6939 25.0203 19.6939C24.8409 19.6939 24.6724 19.6828 24.5364 19.6719L24.4925 19.6609L24.3894 19.6227L24.4004 19.6175C24.2698 19.5521 24.2099 19.4321 24.2262 19.2958C24.3513 18.8921 24.7594 18.5701 25.3797 18.3682Z" fill="white"/>
<path d="M5.00899 15.2858C5.47702 15.2148 5.90705 15.3184 6.30433 15.5803C7.08803 16.104 7.57273 17.1461 7.76865 17.9481C7.84486 18.3519 7.99125 19.1262 7.46888 19.2298H7.42023C7.33863 19.2244 7.26233 19.1974 7.19161 19.1592C7.02295 19.0665 6.88692 18.9027 6.75634 18.7391C6.66382 18.63 6.57127 18.5151 6.47331 18.4278C6.24476 18.1987 5.93984 17.9698 5.65143 17.7462C5.3521 17.517 5.0417 17.2769 4.81856 17.0478L4.72596 16.9442C4.45392 16.6441 4.32872 16.2239 4.41573 15.8748C4.4919 15.5748 4.69891 15.3676 5.00899 15.2858Z" fill="white"/>
<path d="M23.3007 13.2507C23.6436 13.2125 23.9918 13.3434 24.1932 13.5944C24.3619 13.8126 24.4055 14.0797 24.313 14.3524C24.0627 15.0835 23.4041 15.3948 22.7728 15.6949C22.5552 15.7985 22.3212 15.9074 22.1199 16.0328C21.9948 16.0983 21.8747 16.1804 21.7495 16.2677C21.521 16.4259 21.2814 16.5947 21.0203 16.6329H20.9878L20.8246 16.5675C20.5961 16.3765 20.6831 16 20.7974 15.7163C21.2763 14.6689 22.0981 13.3926 23.3007 13.2507Z" fill="white"/>
</svg>
